<?xml version="1.0" standalone="no"?>
<!DOCTYPE svg PUBLIC "-//W3C//DTD SVG 1.1//EN" "http://www.w3.org/Graphics/SVG/1.1/DTD/svg11.dtd" >
<svg xmlns="http://www.w3.org/2000/svg" xmlns:xlink="http://www.w3.org/1999/xlink" version="1.1">
<metadata>
Created by FontForge 20160407 at Fri Oct 28 20:34:47 2016
 By Jimmy Warting
Copyright (c) 1989 Bigelow &#38; Holmes, Inc. All rights reserved. Lucida is a trademark of Bigelow &#38; Holmes Inc. registered in the U.S. Patent and Trademark Office and other jurisdictions. Lucida typeface designs created by Kris Holmes and Charles Bigelow.
</metadata>
<defs>
<font id="LucidaGrande" horiz-adv-x="0" >
  <font-face 
    font-family="Lucida Grande"
    font-weight="500"
    font-stretch="normal"
    units-per-em="2048"
    panose-1="2 11 6 0 4 5 2 2 2 4"
    ascent="1638"
    descent="-410"
    x-height="1081"
    cap-height="1497"
    bbox="-2186 -901 3296 2381"
    underline-thickness="100"
    underline-position="-250"
    unicode-range="U+0009-FFFD"
  />
<missing-glyph horiz-adv-x="1073" 
d="M82 1614h926v-1708h-926v1708zM393 387q0 -10 14.5 -16t35 -10.5t43 -6.5t40.5 -2q29 2 36 20.5t7 41.5v104q0 84 55.5 162t122 156.5t122 162.5t55.5 183q0 108 -36 178t-99.5 109.5t-147.5 55t-178 15.5q-78 0 -140.5 -10t-115.5 -21q-27 -4 -36 -18t-5 -33
q2 -14 8 -31.5t12.5 -34t14.5 -26.5t16 -10q64 10 116 18t130 8q63 0 115.5 -9t87 -31.5t54 -64.5t19.5 -106q0 -47 -25.5 -96t-64.5 -101t-83 -106.5t-83 -112t-64.5 -116.5t-25.5 -121v-131zM393 23q0 -11 13.5 -18t33 -11t42 -6t40.5 -2q35 0 42 23.5t7 51.5v97
q0 28 -7 51.5t-42 23.5q-18 0 -39.5 -2t-42 -7t-34 -12t-13.5 -15v-174z" />
    <glyph glyph-name="uniFB00" unicode="ff" horiz-adv-x="1321" 
d="M979 1081h235q33 0 37 -32q0 -17 -1 -37.5t-6 -40t-14 -32.5t-22 -13h-229v-869v-27.5t-2 -23.5q-2 -16 -17.5 -23.5t-27.5 -7.5q-17 0 -38.5 2.5t-42 5.5t-33.5 9t-13 16v918h-418v-920q-2 -16 -17.5 -23.5t-27.5 -7.5q-16 0 -37.5 2.5t-42 5.5t-34 9t-13.5 16v918h-164
q-16 0 -26.5 10t-10.5 25q0 14 1 34.5t6.5 40t13.5 32.5t22 13h158v123q0 127 73.5 198t196.5 71q39 0 82 -6.5t78 -18.5t56.5 -30.5t15.5 -43.5q-2 -12 -8.5 -29.5t-15.5 -33t-18 -25.5t-18 -6q-49 18 -85.5 24.5t-71.5 6.5q-60 0 -86.5 -35t-26.5 -98v-97h418v205
q0 127 74.5 197.5t197.5 70.5q37 0 80 -6t79 -18t56.5 -30.5t14.5 -43.5q-2 -12 -8.5 -29.5t-14.5 -33t-17.5 -25.5t-17.5 -6q-51 18 -88 24.5t-71 6.5q-60 0 -85.5 -35t-25.5 -98v-179z" />
    <glyph glyph-name="uniFB01" unicode="fi" horiz-adv-x="1188" 
d="M1128 158q9 2 17 -7.5t16 -24.5t13.5 -32.5t7.5 -30.5q10 -38 -31 -55q-49 -18 -87 -25.5t-83 -7.5t-86 13.5t-71.5 44t-49 82t-18.5 127.5v684h-369v-901q0 -23 -14.5 -36.5t-30.5 -13.5t-37.5 2.5t-42 5.5t-34 9t-13.5 16v918h-162q-16 0 -27.5 10t-11.5 25
q0 14 1 34.5t6.5 40t13.5 32.5t22 13h158v205q0 127 73.5 197.5t196.5 70.5q68 0 113 -11t86 -32q18 -10 27.5 -25.5t5.5 -29.5q-2 -12 -8.5 -29.5t-15.5 -33t-18 -25.5t-18 -6q-49 18 -85.5 24.5t-71.5 6.5q-60 0 -86.5 -35t-26.5 -98v-179h504q16 0 26.5 -9t10.5 -23v-781
q0 -57 21.5 -94t80.5 -37q17 0 36 4t62 17z" />
    <glyph glyph-name="uniFB02" unicode="fl" horiz-adv-x="1188" 
d="M1128 158q9 2 17 -7.5t16 -24.5t13.5 -32.5t7.5 -30.5q10 -38 -31 -55q-49 -16 -87 -24.5t-83 -8.5t-86 13.5t-71.5 44t-49 82t-18.5 127.5v684h-369v-901q0 -23 -14.5 -36.5t-30.5 -13.5t-37.5 2.5t-42 5.5t-34 9t-13.5 16v918h-162q-16 0 -27.5 10t-11.5 25
q0 14 1 34.5t6.5 40t13.5 32.5t22 13h158v205q0 127 73.5 197.5t196.5 70.5q68 0 113 -11t86 -32q18 -10 27.5 -25.5t5.5 -29.5q-2 -12 -8.5 -29.5t-15.5 -33t-18 -25.5t-18 -6q-49 18 -85.5 24.5t-71.5 6.5q-60 0 -86.5 -35t-26.5 -98v-179h369v432q0 9 13 16t32.5 10t41 5
t38.5 2q47 0 47 -59v-1219q0 -61 21.5 -96t80.5 -35q17 0 36 4t62 17z" />
    <glyph glyph-name=".notdef" horiz-adv-x="1073" 
d="M82 1614h926v-1708h-926v1708zM393 387q0 -10 14.5 -16t35 -10.5t43 -6.5t40.5 -2q29 2 36 20.5t7 41.5v104q0 84 55.5 162t122 156.5t122 162.5t55.5 183q0 108 -36 178t-99.5 109.5t-147.5 55t-178 15.5q-78 0 -140.5 -10t-115.5 -21q-27 -4 -36 -18t-5 -33
q2 -14 8 -31.5t12.5 -34t14.5 -26.5t16 -10q64 10 116 18t130 8q63 0 115.5 -9t87 -31.5t54 -64.5t19.5 -106q0 -47 -25.5 -96t-64.5 -101t-83 -106.5t-83 -112t-64.5 -116.5t-25.5 -121v-131zM393 23q0 -11 13.5 -18t33 -11t42 -6t40.5 -2q35 0 42 23.5t7 51.5v97
q0 28 -7 51.5t-42 23.5q-18 0 -39.5 -2t-42 -7t-34 -12t-13.5 -15v-174z" />
    <glyph glyph-name="uni0000" 
 />
    <glyph glyph-name="uni0000" 
 />
    <glyph glyph-name="CR.001" unicode="&#x9;" horiz-adv-x="648" 
 />
    <glyph glyph-name="CR.001" unicode="&#xd;" horiz-adv-x="648" 
 />
    <glyph glyph-name="CR.001" unicode="&#xa;" horiz-adv-x="648" 
 />
    <glyph glyph-name="plus.001" horiz-adv-x="1628" 
d="M740 0v518h-518v148h518v518h148v-518h518v-148h-518v-518h-148z" />
    <glyph glyph-name="hyphen.001" horiz-adv-x="1185" 
d="M148 518v148h888v-148h-888z" />
    <glyph glyph-name="period.001" horiz-adv-x="648" 
d="M200 0v247h247v-247h-247z" />
    <glyph glyph-name="equal.001" horiz-adv-x="1628" 
d="M222 333v148h1184v-148h-1184zM222 703v148h1184v-148h-1184z" />
    <glyph glyph-name="A.001" horiz-adv-x="1413" 
d="M941 566l-252 638l-253 -638h505zM1163 0l-161 410h-627l-163 -410h-195l587 1480h208l578 -1480h-227z" />
    <glyph glyph-name="B.001" horiz-adv-x="1178" 
d="M191 0v1480h384q222 0 340.5 -84t118.5 -242q0 -269 -304 -383q363 -111 363 -401q0 -180 -120 -275t-346 -95h-436zM399 157h43q231 0 299 29q130 55 130 204q0 132 -118 219.5t-295 87.5h-59v-540zM399 830h67q168 0 260.5 72t92.5 203q0 218 -338 218h-82v-493z" />
    <glyph glyph-name="C.001" horiz-adv-x="1417" 
d="M825 -37q-345 0 -533 202.5t-188 573.5q0 370 191.5 574t539.5 204q199 0 466 -65v-197q-304 105 -469 105q-241 0 -373 -163t-132 -460q0 -283 141 -446.5t385 -163.5q210 0 450 129v-180q-219 -113 -478 -113z" />
    <glyph glyph-name="E.001" horiz-adv-x="1110" 
d="M191 0v1480h827v-157h-617v-475h517v-155h-517v-536h660v-157h-870z" />
    <glyph glyph-name="G.001" horiz-adv-x="1480" 
d="M1303 40q-269 -77 -469 -77q-353 0 -541.5 201t-188.5 576q0 368 191 572.5t536 204.5q226 0 470 -67v-194q-306 104 -469 104q-240 0 -372.5 -163t-132.5 -459q0 -293 142 -455.5t398 -162.5q105 0 227 37v482h209v-599z" />
    <glyph glyph-name="H.001" horiz-adv-x="1505" 
d="M191 0v1480h210v-624h704v624h210v-1480h-210v699h-704v-699h-210z" />
    <glyph glyph-name="I.001" horiz-adv-x="590" 
d="M190 0v1480h210v-1480h-210z" />
    <glyph glyph-name="K.001" horiz-adv-x="1337" 
d="M191 0v1480h197v-728l599 728h211l-580 -706l683 -774h-266l-647 750v-750h-197z" />
    <glyph glyph-name="L.001" horiz-adv-x="1092" 
d="M191 0v1480h210v-1323h666v-157h-876z" />
    <glyph glyph-name="M.001" horiz-adv-x="1764" 
d="M191 0v1480h291l410 -1145l422 1145h260v-1480h-196v1204l-408 -1105h-203l-396 1108v-1207h-180z" />
    <glyph glyph-name="N.001" horiz-adv-x="1513" 
d="M191 0v1480h206l745 -1143v1143h180v-1480h-205l-746 1143v-1143h-180z" />
    <glyph glyph-name="O.001" horiz-adv-x="1591" 
d="M787 -37q-308 0 -495.5 213.5t-187.5 564.5q0 353 188.5 564.5t503.5 211.5q314 0 503 -211t189 -563q0 -359 -189 -569.5t-512 -210.5zM790 120q227 0 351 163.5t124 461.5q0 289 -124.5 452t-344.5 163q-221 0 -345 -163.5t-124 -454.5q0 -290 123 -456t340 -166z" />
    <glyph glyph-name="P.001" horiz-adv-x="1132" 
d="M191 0v1480h403q268 0 385 -90.5t117 -297.5q0 -236 -160 -370t-444 -134h-93v-588h-208zM399 747h85q187 0 289 86t102 243q0 133 -80 190t-267 57h-129v-576z" />
    <glyph glyph-name="R.001" horiz-adv-x="1295" 
d="M191 0v1480h448q213 0 326.5 -94t113.5 -273q0 -296 -299 -420l494 -693h-258l-421 626h-196v-626h-208zM399 783h68q396 0 396 311q0 229 -332 229h-132v-540z" />
    <glyph glyph-name="S.001" horiz-adv-x="1103" 
d="M481 -37q-149 0 -381 65v208q250 -116 411 -116q124 0 199.5 65t75.5 171q0 87 -49.5 148t-182.5 136l-102 59q-189 108 -266.5 203.5t-77.5 222.5q0 171 124 281.5t316 110.5q171 0 361 -57v-192q-234 92 -349 92q-109 0 -180 -58t-71 -146q0 -74 52 -131t190 -136
l106 -60q192 -109 268 -206t76 -233q0 -193 -142.5 -310t-377.5 -117z" />
    <glyph glyph-name="T.001" horiz-adv-x="1295" 
d="M543 0v1323h-525v157h1260v-157h-525v-1323h-210z" />
    <glyph glyph-name="U.001" horiz-adv-x="1419" 
d="M179 1480h210v-934q0 -223 82.5 -324.5t262.5 -101.5q176 0 249.5 95.5t73.5 323.5v941h184v-938q0 -303 -124.5 -441t-396.5 -138q-277 0 -409 143t-132 442v932z" />
    <glyph glyph-name="X.001" horiz-adv-x="1282" 
d="M16 0l491 743l-467 737h248l356 -558l374 558h198l-473 -715l485 -765h-248l-376 587l-389 -587h-199z" />
    <glyph glyph-name="Y.001" horiz-adv-x="1276" 
d="M511 0v618l-494 862h240l384 -668l414 668h195l-529 -858v-622h-210z" />
    <glyph glyph-name="Z.001" horiz-adv-x="1238" 
d="M95 0v168l795 1155h-746v157h998v-157l-795 -1155h795v-168h-1047z" />
    <glyph glyph-name="grave.001" horiz-adv-x="1258" 
d="M864 1283h-148l-321 321h228z" />
    <glyph glyph-name="a.001" horiz-adv-x="1131" 
d="M757 138q-177 -163 -341 -163q-135 0 -224 84.5t-89 213.5q0 178 149.5 273.5t428.5 95.5h47v131q0 189 -194 189q-156 0 -337 -96v163q199 81 373 81q182 0 268.5 -82t86.5 -255v-492q0 -169 104 -169q13 0 38 4l14 -109q-67 -32 -148 -32q-138 0 -176 163zM728 245v281
l-66 2q-162 0 -262 -61.5t-100 -161.5q0 -71 50 -120t122 -49q123 0 256 109z" />
    <glyph glyph-name="c.001" horiz-adv-x="1049" 
d="M621 -25q-220 0 -365 163t-145 411q0 265 143.5 413t400.5 148q127 0 284 -35v-165q-167 49 -272 49q-151 0 -242.5 -113.5t-91.5 -302.5q0 -183 94 -296t246 -113q135 0 278 69v-170q-191 -58 -330 -58z" />
    <glyph glyph-name="e.001" horiz-adv-x="1141" 
d="M993 35q-198 -60 -339 -60q-240 0 -391.5 159.5t-151.5 413.5q0 247 133.5 405t341.5 158q197 0 304.5 -140t107.5 -398l-1 -61h-685q43 -387 379 -387q123 0 302 66v-156zM321 660h479q0 303 -226 303q-227 0 -253 -303z" />
    <glyph glyph-name="g.001" horiz-adv-x="1277" 
d="M201 -361l23 171q171 -81 337 -81q333 0 333 353v171q-109 -228 -358 -228q-195 0 -310 142t-115 383q0 248 131 404t339 156q182 0 313 -148v124h198v-790q0 -255 -26.5 -377.5t-99.5 -200.5q-129 -137 -401 -137q-190 0 -364 58zM894 376v451q-130 135 -283 135
q-136 0 -213 -109t-77 -299q0 -357 251 -357q171 0 322 179z" />
    <glyph glyph-name="i.001" horiz-adv-x="592" 
d="M197 0v1086h197v-1086h-197zM197 1283v197h197v-197h-197z" />
    <glyph glyph-name="k.001" horiz-adv-x="1197" 
d="M197 0v1579h197v-1020l460 527h212l-439 -507l530 -579h-252l-511 557v-557h-197z" />
    <glyph glyph-name="l.001" horiz-adv-x="592" 
d="M197 0v1579h197v-1579h-197z" />
    <glyph glyph-name="n.001" horiz-adv-x="1271" 
d="M197 0v1086h197v-204q156 228 382 228q141 0 225 -89.5t84 -240.5v-780h-197v716q0 121 -35.5 172.5t-117.5 51.5q-181 0 -341 -237v-703h-197z" />
    <glyph glyph-name="o.001" horiz-adv-x="1258" 
d="M622 -25q-233 0 -372 154.5t-139 413.5q0 262 139.5 414.5t378.5 152.5t378.5 -152.5t139.5 -412.5q0 -266 -140 -418t-385 -152zM625 123q313 0 313 422q0 417 -309 417q-308 0 -308 -419q0 -420 304 -420z" />
    <glyph glyph-name="r.001" horiz-adv-x="838" 
d="M197 0v1086h197v-204q117 228 340 228q30 0 63 -5v-184q-51 17 -90 17q-187 0 -313 -222v-716h-197z" />
    <glyph glyph-name="s.001" horiz-adv-x="1044" 
d="M485 -25q-135 0 -328 63v181q193 -96 336 -96q85 0 141 46t56 115q0 101 -157 167l-115 49q-255 106 -255 305q0 142 100.5 223.5t275.5 81.5q91 0 225 -25l41 -8v-164q-165 49 -262 49q-190 0 -190 -138q0 -89 144 -150l95 -40q161 -68 228 -143.5t67 -188.5
q0 -143 -113 -235t-289 -92z" />
    <glyph glyph-name="t.001" horiz-adv-x="766" 
d="M523 -25q-150 0 -234 86t-84 239v638h-136v148h136v197l197 19v-216h284v-148h-284v-602q0 -213 184 -213q39 0 95 13v-136q-91 -25 -158 -25z" />
    <glyph glyph-name="u.001" horiz-adv-x="1271" 
d="M876 0v204q-157 -229 -381 -229q-142 0 -226 89.5t-84 241.5v780h197v-716q0 -122 35.5 -173.5t118.5 -51.5q180 0 340 237v704h197v-1086h-197z" />
    <glyph glyph-name="y.001" horiz-adv-x="1070" 
d="M260 -395l176 395l-420 1086h213l311 -818l332 818h186l-593 -1481h-205z" />
    <glyph glyph-name="z.001" horiz-adv-x="1174" 
d="M123 0v148l672 790h-641v148h884v-148l-672 -790h685v-148h-928z" />
    <glyph glyph-name="acute.001" horiz-adv-x="1258" 
d="M395 1283l241 321h228l-321 -321h-148z" />
    <glyph glyph-name="dieresis.001" horiz-adv-x="1258" 
d="M345 1283v173h173v-173h-173zM740 1283v173h173v-173h-173z" />
    <glyph glyph-name="infinity" unicode="&#x221e;" horiz-adv-x="1925" 
d="M988 720q76 156 166.5 234t195.5 78q148 0 250.5 -123.5t102.5 -300.5q0 -192 -111 -331.5t-264 -139.5q-92 0 -190 80.5t-201 242.5q-77 -156 -167.5 -234t-194.5 -78q-147 0 -250 123.5t-103 300.5q0 192 111 331.5t264 139.5q91 0 189 -81t202 -242zM873 547l-23 32
q-116 157 -172 208.5t-111 51.5q-80 0 -136.5 -83t-56.5 -202q0 -113 62 -188.5t155 -75.5q70 0 140.5 64t141.5 193zM1052 633l24 -32q95 -130 165.5 -195t116.5 -65q81 0 137 83t56 202q0 113 -62 188.5t-155 75.5q-71 0 -141.5 -64.5t-140.5 -192.5z" />
    <glyph glyph-name="product" unicode="&#x220f;" horiz-adv-x="1555" 
d="M216 -296v1619h-99v157h1321v-157h-99v-1619h-209v1619h-705v-1619h-209z" />
    <glyph glyph-name="pi1" unicode="&#x3c0;" horiz-adv-x="1598" 
d="M376 0v925h-41q-131 0 -261 -70v181q117 50 283 50h1167v-161h-247v-630q0 -168 77 -295h-209q-66 144 -66 303v622h-505v-925h-198z" />
    <glyph glyph-name="Omega" unicode="&#x3a9;" horiz-adv-x="1629" 
d="M74 0v154h407q-179 135 -268.5 304.5t-89.5 373.5q0 300 194 492.5t497 192.5t497 -192t194 -493q0 -205 -89.5 -374.5t-268.5 -303.5h407v-154h-610v154q169 114 254 280t85 384q0 255 -124.5 400t-344.5 145q-219 0 -344 -145t-125 -401q0 -217 85 -382.5t255 -280.5
v-154h-611z" />
    <glyph glyph-name="Delta" unicode="&#x2206;" horiz-adv-x="1434" 
d="M49 0v185l565 1295h208l563 -1295v-185h-1336zM230 185h928l-463 1064z" />
    <glyph glyph-name="quoteleft.001" unicode="&#x2bb;" horiz-adv-x="648" 
d="M447 1579v-74q-48 -14 -72 -70.5t-24 -155.5v-21h96v-246h-247v214q0 163 61.5 251.5t185.5 101.5z" />
    <glyph glyph-name="quoteright.001" unicode="&#x2bc;" horiz-adv-x="648" 
d="M200 1012v74q48 13 72 69.5t24 156.5v20h-96v247h247v-214q0 -165 -62 -253t-185 -100z" />
    <glyph glyph-name="lozenge" unicode="&#x25ca;" horiz-adv-x="1629" 
d="M1406 592l-592 -592l-592 592l592 592zM1197 592l-383 383l-383 -383l383 -383z" />
    <glyph glyph-name="middot.001" unicode="&#x2219;" horiz-adv-x="1295" 
d="M524 469v247h247v-247h-247z" />
    <glyph glyph-name="apple" unicode="&#xf8ff;" horiz-adv-x="2048" 
d="M1840 1318q-229 -162 -229 -390q0 -273 283 -419q-76 -220 -220 -383t-263 -163q-56 0 -153 37l-31 12q-95 37 -168 37q-69 0 -151 -29l-39 -14l-49 -20q-58 -23 -117 -23q-139 0 -307 229q-242 328 -242 715q0 275 151 443t400 168q93 0 174 -34l37 -15l39 -16
q52 -22 84 -22q41 0 91 19l51 20l38 14q91 33 201 33q261 0 420 -199zM1428 1980q3 -35 3 -54q0 -173 -126 -303.5t-293 -130.5q-5 39 -5 56q0 147 117 276t271 151q11 2 33 5z" />
    <glyph glyph-name="dotlessi.001" horiz-adv-x="592" 
d="M197 0v1086h197v-1086h-197z" />
    <glyph glyph-name="circumflex.001" horiz-adv-x="1258" 
d="M279 1283l241 321h218l241 -321h-148l-201 202h-2l-201 -202h-148z" />
    <glyph glyph-name="tilde.001" horiz-adv-x="1258" 
d="M296 1283q5 117 51.5 175.5t133.5 58.5q73 0 135 -38l60 -37q56 -35 86 -35q34 0 53.5 27.5t23.5 82.5h123q-6 -117 -52 -175.5t-133 -58.5q-73 0 -135 39l-60 37q-56 34 -86 34q-34 0 -53.5 -27.5t-23.5 -82.5h-123z" />
    <glyph glyph-name="macronaccent" unicode="&#x2c9;" horiz-adv-x="1258" 
d="M308 1283v148h642v-148h-642z" />
    <glyph glyph-name="breve.001" horiz-adv-x="1258" 
d="M296 1604h123q16 -87 68.5 -130t141.5 -43t141.5 43t68.5 130h123q-15 -146 -106 -233.5t-227 -87.5t-226.5 87.5t-106.5 233.5z" />
    <glyph glyph-name="dotaccent.001" horiz-adv-x="1258" 
d="M530 1283v197h197v-197h-197z" />
    <glyph glyph-name="cedilla.001" horiz-adv-x="1258" 
d="M626 0h97l-60 -109q78 0 136 -47.5t58 -111.5q0 -69 -58.5 -116.5t-142.5 -47.5q-72 0 -146 21v81q46 -15 105 -15q51 0 77 18.5t26 55.5q0 48 -47 72t-140 24z" />
    <glyph glyph-name="hungarumlaut.001" horiz-adv-x="1258" 
d="M237 1283l241 321h191l-321 -321h-111zM589 1283l240 321h191l-320 -321h-111z" />
    <glyph glyph-name="franc" unicode="&#x20a3;" horiz-adv-x="1295" 
d="M173 0v1480h815v-157h-618v-459h469v-177q140 196 333 196v-190q-24 2 -38 2q-164 0 -295 -183v-512h-197v709h-272v-709h-197z" />
    <glyph glyph-name="Idotabove" horiz-adv-x="590" 
d="M190 0v1480h210v-1480h-210zM201 1604v197h197v-197h-197z" />
    <glyph glyph-name="Cdotabove" horiz-adv-x="1417" 
d="M825 -37q-345 0 -533 202.5t-188 573.5q0 370 191.5 574t539.5 204q199 0 466 -65v-197q-304 105 -469 105q-241 0 -373 -163t-132 -460q0 -283 141 -446.5t385 -163.5q210 0 450 129v-180q-219 -113 -478 -113zM730 1604v197h197v-197h-197z" />
    <glyph glyph-name="cdotabove" horiz-adv-x="1049" 
d="M621 -25q-220 0 -365 163t-145 411q0 265 143.5 413t400.5 148q127 0 284 -35v-165q-167 49 -272 49q-151 0 -242.5 -113.5t-91.5 -302.5q0 -183 94 -296t246 -113q135 0 278 69v-170q-191 -58 -330 -58zM545 1283v197h197v-197h-197z" />
    <glyph glyph-name="dapostrophe" horiz-adv-x="1462" 
d="M894 0v204q-120 -229 -362 -229q-196 0 -308.5 143t-112.5 391q0 271 127.5 436t335.5 165q193 0 320 -148v617h198v-1579h-198zM894 827q-153 135 -290 135q-283 0 -283 -433q0 -381 252 -381q164 0 321 179v500zM1265 1125v59q38 10 57 55.5t19 125.5v17h-76v197h197
v-171q0 -132 -49.5 -202.5t-147.5 -80.5z" />
    <glyph glyph-name="Edotabove" horiz-adv-x="1110" 
d="M191 0v1480h827v-157h-617v-475h517v-155h-517v-536h660v-157h-870zM524 1604v197h197v-197h-197z" />
    <glyph glyph-name="edotabove" horiz-adv-x="1141" 
d="M993 35q-198 -60 -339 -60q-240 0 -391.5 159.5t-151.5 413.5q0 247 133.5 405t341.5 158q197 0 304.5 -140t107.5 -398l-1 -61h-685q43 -387 379 -387q123 0 302 66v-156zM321 660h479q0 303 -226 303q-227 0 -253 -303zM486 1283v197h197v-197h-197z" />
    <glyph glyph-name="Gdotabove" horiz-adv-x="1480" 
d="M1303 40q-269 -77 -469 -77q-353 0 -541.5 201t-188.5 576q0 368 191 572.5t536 204.5q226 0 470 -67v-194q-306 104 -469 104q-240 0 -372.5 -163t-132.5 -459q0 -293 142 -455.5t398 -162.5q105 0 227 37v482h209v-599zM730 1604v197h197v-197h-197z" />
    <glyph glyph-name="gdotabove" horiz-adv-x="1277" 
d="M201 -361l23 171q171 -81 337 -81q333 0 333 353v171q-109 -228 -358 -228q-195 0 -310 142t-115 383q0 248 131 404t339 156q182 0 313 -148v124h198v-790q0 -255 -26.5 -377.5t-99.5 -200.5q-129 -137 -401 -137q-190 0 -364 58zM894 376v451q-130 135 -283 135
q-136 0 -213 -109t-77 -299q0 -357 251 -357q171 0 322 179zM519 1283v197h197v-197h-197z" />
    <glyph glyph-name="Gcommabelow" horiz-adv-x="1480" 
d="M1303 40q-269 -77 -469 -77q-353 0 -541.5 201t-188.5 576q0 368 191 572.5t536 204.5q226 0 470 -67v-194q-306 104 -469 104q-240 0 -372.5 -163t-132.5 -459q0 -293 142 -455.5t398 -162.5q105 0 227 37v482h209v-599zM751 -663v59q38 11 57 56t19 125v16h-76v198h197
v-172q0 -131 -49.5 -201.5t-147.5 -80.5z" />
    <glyph glyph-name="gcommaturnedabove" horiz-adv-x="1277" 
d="M201 -361l23 171q171 -81 337 -81q333 0 333 353v171q-109 -228 -358 -228q-195 0 -310 142t-115 383q0 248 131 404t339 156q182 0 313 -148v124h198v-790q0 -255 -26.5 -377.5t-99.5 -200.5q-129 -137 -401 -137q-190 0 -364 58zM894 376v451q-130 135 -283 135
q-136 0 -213 -109t-77 -299q0 -357 251 -357q171 0 322 179zM700 1737v-59q-38 -11 -57 -56t-19 -125v-17h76v-197h-197v171q0 131 49 202t148 81z" />
    <glyph glyph-name="Kcommabelow" horiz-adv-x="1337" 
d="M191 0v1480h197v-728l599 728h211l-580 -706l683 -774h-266l-647 750v-750h-197zM624 -661v59q38 11 57 56t19 125v16h-76v198h197v-172q0 -131 -49.5 -201.5t-147.5 -80.5z" />
    <glyph glyph-name="kcommabelow" unicode="&#x137;" horiz-adv-x="1197" 
d="M197 0v1579h197v-1020l460 527h212l-439 -507l530 -579h-252l-511 557v-557h-197zM539 -652v59q38 11 57 56t19 125v16h-76v198h197v-172q0 -131 -49.5 -201.5t-147.5 -80.5z" />
    <glyph glyph-name="kra" unicode="&#x138;" horiz-adv-x="1197" 
d="M197 0v1086h197v-527l460 527h212l-439 -507l530 -579h-252l-511 557v-557h-197z" />
    <glyph glyph-name="Lcommabelow" horiz-adv-x="1092" 
d="M191 0v1480h210v-1323h666v-157h-876zM527 -653v59q38 11 57 56t19 125v16h-76v198h197v-172q0 -131 -49.5 -201.5t-147.5 -80.5z" />
    <glyph glyph-name="lcommabelow" horiz-adv-x="592" 
d="M197 0v1579h197v-1579h-197zM198 -679v59q38 11 57 56t19 125v16h-76v198h197v-172q0 -131 -49.5 -201.5t-147.5 -80.5z" />
    <glyph glyph-name="Lapostrophe" horiz-adv-x="1092" 
d="M191 0v1480h210v-1323h666v-157h-876zM697 1031v59q38 10 57 55.5t19 125.5v16h-76v198h197v-171q0 -132 -49.5 -203t-147.5 -80z" />
    <glyph glyph-name="lapostrophe" horiz-adv-x="765" 
d="M197 0v1579h197v-1579h-197zM568 1130v59q38 10 57 55.5t19 125.5v16h-76v198h197v-171q0 -132 -49.5 -203t-147.5 -80z" />
    <glyph glyph-name="Ncommabelow" horiz-adv-x="1513" 
d="M191 0v1480h206l745 -1143v1143h180v-1480h-205l-746 1143v-1143h-180zM645 -645v59q38 11 57 56t19 125v16h-76v198h197v-172q0 -131 -49.5 -201.5t-147.5 -80.5z" />
    <glyph glyph-name="ncommabelow" horiz-adv-x="1271" 
d="M197 0v1086h197v-204q156 228 382 228q141 0 225 -89.5t84 -240.5v-780h-197v716q0 121 -35.5 172.5t-117.5 51.5q-181 0 -341 -237v-703h-197zM543 -652v59q38 11 57 56t19 125v16h-76v198h197v-172q0 -131 -49.5 -201.5t-147.5 -80.5z" />
    <glyph glyph-name="Odblacute" horiz-adv-x="1591" 
d="M787 -37q-308 0 -495.5 213.5t-187.5 564.5q0 353 188.5 564.5t503.5 211.5q314 0 503 -211t189 -563q0 -359 -189 -569.5t-512 -210.5zM790 120q227 0 351 163.5t124 461.5q0 289 -124.5 452t-344.5 163q-221 0 -345 -163.5t-124 -454.5q0 -290 123 -456t340 -166z
M565 1604l241 321h191l-321 -321h-111zM917 1604l240 321h191l-320 -321h-111z" />
    <glyph glyph-name="odblacute" horiz-adv-x="1258" 
d="M622 -25q-233 0 -372 154.5t-139 413.5q0 262 139.5 414.5t378.5 152.5t378.5 -152.5t139.5 -412.5q0 -266 -140 -418t-385 -152zM625 123q313 0 313 422q0 417 -309 417q-308 0 -308 -419q0 -420 304 -420zM398 1283l241 321h191l-321 -321h-111zM750 1283l240 321h191
l-320 -321h-111z" />
    <glyph glyph-name="Rcommabelow" horiz-adv-x="1295" 
d="M191 0v1480h448q213 0 326.5 -94t113.5 -273q0 -296 -299 -420l494 -693h-258l-421 626h-196v-626h-208zM399 783h68q396 0 396 311q0 229 -332 229h-132v-540zM571 -644v59q38 11 57 56t19 125v16h-76v198h197v-172q0 -131 -49.5 -201.5t-147.5 -80.5z" />
    <glyph glyph-name="rcommabelow" horiz-adv-x="838" 
d="M197 0v1086h197v-204q117 228 340 228q30 0 63 -5v-184q-51 17 -90 17q-187 0 -313 -222v-716h-197zM368 -643v59q38 11 57 56t19 125v16h-76v198h197v-172q0 -131 -49.5 -201.5t-147.5 -80.5z" />
    <glyph glyph-name="Tcedilla" horiz-adv-x="1295" 
d="M543 0v1323h-525v157h1260v-157h-525v-1323h-210zM622 0h97l-60 -109q78 0 136 -47.5t58 -111.5q0 -69 -58.5 -116.5t-142.5 -47.5q-72 0 -146 21v81q46 -15 105 -15q51 0 77 18.5t26 55.5q0 48 -47 72t-140 24z" />
    <glyph glyph-name="tcedilla" horiz-adv-x="766" 
d="M523 -25q-150 0 -234 86t-84 239v638h-136v148h136v197l197 19v-216h284v-148h-284v-602q0 -213 184 -213q39 0 95 13v-136q-91 -25 -158 -25zM473 0h97l-60 -109q78 0 136 -47.5t58 -111.5q0 -69 -58.5 -116.5t-142.5 -47.5q-72 0 -146 21v81q46 -15 105 -15
q51 0 77 18.5t26 55.5q0 48 -47 72t-140 24z" />
    <glyph glyph-name="tapostrophe" horiz-adv-x="773" 
d="M523 -25q-150 0 -234 86t-84 239v638h-136v148h136v197l197 19v-216h284v-148h-284v-602q0 -213 184 -213q39 0 95 13v-136q-91 -25 -158 -25zM575 1258v59q38 10 57 55.5t19 125.5v16h-76v198h197v-171q0 -132 -49.5 -203t-147.5 -80z" />
    <glyph glyph-name="Udblacute" horiz-adv-x="1419" 
d="M179 1480h210v-934q0 -223 82.5 -324.5t262.5 -101.5q176 0 249.5 95.5t73.5 323.5v941h184v-938q0 -303 -124.5 -441t-396.5 -138q-277 0 -409 143t-132 442v932zM492 1604l241 321h191l-321 -321h-111zM844 1604l240 321h191l-320 -321h-111z" />
    <glyph glyph-name="udblacute" horiz-adv-x="1271" 
d="M876 0v204q-157 -229 -381 -229q-142 0 -226 89.5t-84 241.5v780h197v-716q0 -122 35.5 -173.5t118.5 -51.5q180 0 340 237v704h197v-1086h-197zM382 1283l241 321h191l-321 -321h-111zM734 1283l240 321h191l-320 -321h-111z" />
    <glyph glyph-name="Zdotabove" horiz-adv-x="1238" 
d="M95 0v168l795 1155h-746v157h998v-157l-795 -1155h795v-168h-1047zM545 1604v197h197v-197h-197z" />
    <glyph glyph-name="zdotabove" horiz-adv-x="1174" 
d="M123 0v148l672 790h-641v148h884v-148l-672 -790h685v-148h-928zM493 1283v197h197v-197h-197z" />
    <glyph glyph-name="longs" unicode="&#x17f;" horiz-adv-x="665" 
d="M234 0v938h-154v148h154v130q0 194 88.5 291t265.5 97q99 0 225 -33v-156q-133 41 -213 41q-97 0 -132.5 -46.5t-35.5 -172.5v-1237h-198z" />
    <glyph glyph-name="Ohorn" unicode="&#x1a0;" horiz-adv-x="1647" 
d="M1393 1169q95 -194 95 -432q0 -351 -189 -562.5t-503 -211.5q-315 0 -503.5 211.5t-188.5 565.5t188.5 565.5t503.5 211.5q348 0 543 -259q81 17 114.5 67t33.5 155v99h148v-49q0 -294 -242 -361zM790 120q227 0 351 163.5t124 461.5q0 289 -124.5 452t-344.5 163
q-221 0 -345 -163.5t-124 -454.5q0 -290 123 -456t340 -166zM1591 0z" />
    <glyph glyph-name="ohorn" unicode="&#x1a1;" horiz-adv-x="1382" 
d="M1112 771q35 -111 35 -226q0 -263 -139 -416.5t-379 -153.5q-239 0 -378.5 153t-139.5 415t139.5 414.5t378.5 152.5q307 0 443 -246q82 15 115.5 65.5t33.5 156.5v98h148v-49q0 -304 -257 -364zM625 123q313 0 313 422q0 417 -309 417q-308 0 -308 -419
q0 -199 80 -309.5t224 -110.5zM1258 0z" />
    <glyph glyph-name="Uhorn" unicode="&#x1af;" horiz-adv-x="1549" 
d="M179 1480h210v-934q0 -223 82.5 -324.5t262.5 -101.5q176 0 249.5 95.5t73.5 323.5v941h184v-222q81 17 114.5 67t33.5 155v99h148v-49q0 -341 -296 -370v-618q0 -194 -38 -298t-137 -183q-124 -98 -346 -98q-277 0 -409 143t-132 442v932zM1419 0z" />
    <glyph glyph-name="uhorn" unicode="&#x1b0;" horiz-adv-x="1382" 
d="M185 1086h197v-716q0 -122 35.5 -173.5t118.5 -51.5q180 0 340 237v704h197v-222q81 16 114.5 66t33.5 156v98h148v-49q0 -340 -296 -370v-765h-197v204q-157 -229 -381 -229q-142 0 -226 89.5t-84 241.5v780zM1271 0z" />
    <glyph glyph-name="gacute" unicode="&#x1f5;" horiz-adv-x="1277" 
d="M201 -361l23 171q171 -81 337 -81q333 0 333 353v171q-109 -228 -358 -228q-195 0 -310 142t-115 383q0 248 131 404t339 156q182 0 313 -148v124h198v-790q0 -255 -26.5 -377.5t-99.5 -200.5q-129 -137 -401 -137q-190 0 -364 58zM894 376v451q-130 135 -283 135
q-136 0 -213 -109t-77 -299q0 -357 251 -357q171 0 322 179zM430 1283l241 321h228l-321 -321h-148z" />
    <glyph glyph-name="Scommabelow" horiz-adv-x="1103" 
d="M481 -37q-149 0 -381 65v208q250 -116 411 -116q124 0 199.5 65t75.5 171q0 87 -49.5 148t-182.5 136l-102 59q-189 108 -266.5 203.5t-77.5 222.5q0 171 124 281.5t316 110.5q171 0 361 -57v-192q-234 92 -349 92q-109 0 -180 -58t-71 -146q0 -74 52 -131t190 -136
l106 -60q192 -109 268 -206t76 -233q0 -193 -142.5 -310t-377.5 -117zM425 -715v59q38 11 57 56t19 125v16h-76v198h197v-172q0 -131 -49.5 -201.5t-147.5 -80.5z" />
    <glyph glyph-name="scommabelow" horiz-adv-x="1044" 
d="M485 -25q-135 0 -328 63v181q193 -96 336 -96q85 0 141 46t56 115q0 101 -157 167l-115 49q-255 106 -255 305q0 142 100.5 223.5t275.5 81.5q91 0 225 -25l41 -8v-164q-165 49 -262 49q-190 0 -190 -138q0 -89 144 -150l95 -40q161 -68 228 -143.5t67 -188.5
q0 -143 -113 -235t-289 -92zM396 -697v59q38 11 57 56t19 125v16h-76v198h197v-172q0 -131 -49.5 -201.5t-147.5 -80.5z" />
    <glyph glyph-name="Tcommabelow" unicode="&#x21a;" horiz-adv-x="1295" 
d="M543 0v1323h-525v157h1260v-157h-525v-1323h-210zM549 -680v59q38 11 57 56t19 125v16h-76v198h197v-172q0 -131 -49.5 -201.5t-147.5 -80.5z" />
    <glyph glyph-name="tcommabelow" unicode="&#x21b;" horiz-adv-x="766" 
d="M523 -25q-150 0 -234 86t-84 239v638h-136v148h136v197l197 19v-216h284v-148h-284v-602q0 -213 184 -213q39 0 95 13v-136q-91 -25 -158 -25zM355 -697v59q38 11 57 56t19 125v16h-76v198h197v-172q0 -131 -49.5 -201.5t-147.5 -80.5z" />
    <glyph glyph-name="gravecmb" unicode="&#x300;" 
d="M-481 1283h-148l-321 321h228z" />
    <glyph glyph-name="acutecmb" unicode="&#x301;" 
d="M-777 1283l241 321h228l-321 -321h-148z" />
    <glyph glyph-name="circumflexcmb" unicode="&#x302;" 
d="M-979 1283l241 321h218l241 -321h-148l-201 202h-2l-201 -202h-148z" />
    <glyph glyph-name="tildecmb" unicode="&#x303;" 
d="M-962 1283q6 117 52 175.5t133 58.5q73 0 135 -38l60 -37q56 -35 86 -35q35 0 54 27.5t23 82.5h123q-5 -117 -51.5 -175.5t-133.5 -58.5q-73 0 -135 39l-60 37q-56 34 -86 34q-34 0 -53 -27.5t-24 -82.5h-123z" />
    <glyph glyph-name="macroncmb" unicode="&#x304;" 
d="M-950 1283v148h642v-148h-642z" />
    <glyph glyph-name="brevecmb" unicode="&#x306;" 
d="M-962 1604h123q16 -87 68.5 -130t141.5 -43t141.5 43t68.5 130h123q-15 -146 -106 -233.5t-227 -87.5t-226.5 87.5t-106.5 233.5z" />
    <glyph glyph-name="dotaccentcmb" unicode="&#x307;" 
d="M-728 1283v197h197v-197h-197z" />
    <glyph glyph-name="dieresiscmb" unicode="&#x308;" 
d="M-913 1283v173h173v-173h-173zM-518 1283v173h173v-173h-173z" />
    <glyph glyph-name="hookcmb" unicode="&#x309;" 
d="M-700 1283q0 91 43 125l41 31l26 22q47 41 47 71q0 33 -29 49.5t-87 16.5q-52 0 -112 -19v106q72 18 140 18q118 0 177 -36t59 -108q0 -60 -78 -128l-22 -19q-45 -39 -54 -58t-9 -71h-142z" />
    <glyph glyph-name="ringcmb" unicode="&#x30a;" 
d="M-632 1283q-93 0 -158.5 66.5t-65.5 160.5t66 160.5t161 66.5q94 0 160.5 -66t66.5 -161q0 -96 -66.5 -161.5t-163.5 -65.5zM-631 1369q60 0 101.5 41t41.5 101q0 58 -41.5 99t-99.5 41q-59 0 -100 -41t-41 -100q0 -58 41 -99.5t98 -41.5z" />
    <glyph glyph-name="hungarumlautcmb" unicode="&#x30b;" 
d="M-953 1283l241 321h191l-321 -321h-111zM-601 1283l240 321h191l-320 -321h-111z" />
    <glyph glyph-name="caroncmb" unicode="&#x30c;" 
d="M-279 1604l-241 -321h-218l-241 321h148l201 -202h2l201 202h148z" />
    <glyph glyph-name="dotbelowcmb" unicode="&#x323;" 
d="M-393 -666v198h197v-198h-197z" />
    <glyph glyph-name="commabelowcmb" unicode="&#x326;" 
d="M-393 -850v59q38 11 57 56t19 125v16h-76v198h197v-172q0 -131 -49.5 -201.5t-147.5 -80.5z" />
    <glyph glyph-name="cedillacmb" unicode="&#x327;" 
d="M-625 0h97l-60 -109q78 0 136 -47.5t58 -111.5q0 -69 -58.5 -116.5t-142.5 -47.5q-72 0 -146 21v81q46 -15 105 -15q52 0 77.5 18.5t25.5 55.5q0 48 -46.5 72t-140.5 24z" />
    <glyph glyph-name="ogonekcmb" unicode="&#x328;" 
d="M-598 0h107q-64 -38 -96.5 -83t-32.5 -97q0 -47 29 -71t86 -24q56 0 91 15v-81q-60 -29 -138 -29q-102 0 -153 40t-51 119q0 63 39.5 115.5t118.5 95.5z" />
    <glyph glyph-name="solidusshortcmb" unicode="&#x337;" 
d="M-1147 -25l890 1135h146l-888 -1135h-148z" />
    <glyph glyph-name="soliduslongcmb" unicode="&#x338;" 
d="M-1477 -37l1190 1554h172l-1189 -1554h-173z" />
    <glyph glyph-name="tonos" unicode="&#x384;" horiz-adv-x="1258" 
d="M395 1283l210 419h228l-302 -419h-136z" />
    <glyph glyph-name="diaeresistonos" unicode="&#x385;" horiz-adv-x="1258" 
d="M265 1283v173h173v-173h-173zM821 1283v173h172v-173h-172zM512 1369l209 420h229l-303 -420h-135z" />
    <glyph glyph-name="Alphatonos" unicode="&#x386;" horiz-adv-x="1413" 
d="M17 0l587 1480h208l578 -1480h-226l-162 410h-627l-163 -410h-195zM436 566h505l-252 638zM0 1160l209 419h229l-303 -419h-135z" />
    <glyph glyph-name="anoteleia" unicode="&#x387;" horiz-adv-x="648" 
d="M200 491v247h247v-247h-247z" />
    <glyph glyph-name="Epsilontonos" unicode="&#x388;" horiz-adv-x="1469" 
d="M549 0v1480h827v-157h-617v-475h517v-155h-517v-536h660v-157h-870zM0 1160l210 419h228l-302 -419h-136z" />
    <glyph glyph-name="Etatonos" unicode="&#x389;" horiz-adv-x="1863" 
d="M549 0v1480h210v-624h704v624h210v-1480h-210v699h-704v-699h-210zM0 1160l210 419h228l-302 -419h-136z" />
    <glyph glyph-name="Iotatonos" unicode="&#x38a;" horiz-adv-x="949" 
d="M549 0v1480h210v-1480h-210zM0 1160l210 419h228l-302 -419h-136z" />
    <glyph glyph-name="Omicrontonos" unicode="&#x38c;" horiz-adv-x="1852" 
d="M1047 -37q-308 0 -495.5 213.5t-187.5 564.5q0 353 188.5 564.5t503.5 211.5q314 0 503 -211t189 -563q0 -359 -189 -569.5t-512 -210.5zM1048 120q227 0 351.5 163.5t124.5 461.5q0 289 -124.5 452t-344.5 163q-221 0 -345.5 -163.5t-124.5 -454.5q0 -290 123.5 -456
t339.5 -166zM0 1160l210 419h228l-302 -419h-136z" />
    <glyph glyph-name="Upsilontonos" unicode="&#x38e;" horiz-adv-x="1793" 
d="M1024 0v479q0 352 -147.5 590.5t-364.5 238.5v172h14q490 0 625 -597q92 245 258.5 407t354.5 190v-148q-231 -66 -386.5 -311.5t-155.5 -541.5v-479h-198zM0 1160l210 419h228l-302 -419h-136z" />
    <glyph glyph-name="Omegatonos" unicode="&#x38f;" horiz-adv-x="1869" 
d="M315 0v154h407q-358 270 -358 678q0 300 194 492.5t497 192.5t497 -192t194 -493q0 -409 -358 -678h407v-154h-611v154q340 229 340 664q0 255 -125 400t-344 145q-220 0 -344.5 -145t-124.5 -401q0 -433 339 -663v-154h-610zM0 1160l210 419h228l-302 -419h-136z" />
    <glyph glyph-name="iotadiaeresistonos" unicode="&#x390;" horiz-adv-x="753" 
d="M703 17q-92 -42 -193 -42q-168 0 -240.5 94.5t-72.5 312.5v704h197v-685q0 -152 35.5 -215t121.5 -63q73 0 152 42v-148zM-37 1283v173h172v-173h-172zM518 1283v173h173v-173h-173zM209 1369l210 420h228l-302 -420h-136z" />
    <glyph glyph-name="Alpha" unicode="&#x391;" horiz-adv-x="1413" 
d="M941 566l-252 638l-253 -638h505zM1163 0l-161 410h-627l-163 -410h-195l587 1480h208l578 -1480h-227z" />
    <glyph glyph-name="Beta" unicode="&#x392;" horiz-adv-x="1178" 
d="M191 0v1480h384q222 0 340.5 -84t118.5 -242q0 -269 -304 -383q363 -111 363 -401q0 -180 -120 -275t-346 -95h-436zM399 157h43q231 0 299 29q130 55 130 204q0 132 -118 219.5t-295 87.5h-59v-540zM399 830h67q168 0 260.5 72t92.5 203q0 218 -338 218h-82v-493z" />
    <glyph glyph-name="Gamma" unicode="&#x393;" horiz-adv-x="1043" 
d="M191 0v1480h828v-160h-618v-1320h-210z" />
    <glyph glyph-name="Epsilon" unicode="&#x395;" horiz-adv-x="1110" 
d="M191 0v1480h827v-157h-617v-475h517v-155h-517v-536h660v-157h-870z" />
    <glyph glyph-name="Zeta" unicode="&#x396;" horiz-adv-x="1238" 
d="M95 0v168l795 1155h-746v157h998v-157l-795 -1155h795v-168h-1047z" />
    <glyph glyph-name="Eta" unicode="&#x397;" horiz-adv-x="1505" 
d="M191 0v1480h210v-624h704v624h210v-1480h-210v699h-704v-699h-210z" />
    <glyph glyph-name="Theta" unicode="&#x398;" horiz-adv-x="1592" 
d="M787 -37q-308 0 -495.5 213.5t-187.5 563.5q0 354 188.5 565.5t503.5 211.5t503.5 -211t188.5 -563q0 -359 -189 -569.5t-512 -210.5zM790 120q227 0 351 163t124 461q0 289 -124 452.5t-345 163.5t-345 -163.5t-124 -454.5q0 -290 123 -456t340 -166zM518 685v160h556
v-160h-556z" />
    <glyph glyph-name="Kappa" unicode="&#x39a;" horiz-adv-x="1337" 
d="M191 0v1480h197v-728l599 728h211l-580 -706l683 -774h-266l-647 750v-750h-197z" />
    <glyph glyph-name="Lambda" unicode="&#x39b;" horiz-adv-x="1333" 
d="M19 0l537 1480h197l561 -1480h-211l-467 1232l-446 -1232h-171z" />
    <glyph glyph-name="Mu" unicode="&#x39c;" horiz-adv-x="1764" 
d="M191 0v1480h291l410 -1145l422 1145h260v-1480h-196v1204l-408 -1105h-203l-396 1108v-1207h-180z" />
    <glyph glyph-name="Nu" unicode="&#x39d;" horiz-adv-x="1513" 
d="M191 0v1480h206l745 -1143v1143h180v-1480h-205l-746 1143v-1143h-180z" />
    <glyph glyph-name="Xi" unicode="&#x39e;" horiz-adv-x="1271" 
d="M49 0v191h1172v-191h-1172zM203 675v192h864v-192h-864zM105 1289v191h1061v-191h-1061z" />
    <glyph glyph-name="Omicron" unicode="&#x39f;" horiz-adv-x="1591" 
d="M787 -37q-308 0 -495.5 213.5t-187.5 564.5q0 353 188.5 564.5t503.5 211.5q314 0 503 -211t189 -563q0 -359 -189 -569.5t-512 -210.5zM790 120q227 0 351 163.5t124 461.5q0 289 -124.5 452t-344.5 163q-221 0 -345 -163.5t-124 -454.5q0 -290 123 -456t340 -166z" />
    <glyph glyph-name="Pi" unicode="&#x3a0;" horiz-adv-x="1506" 
d="M191 0v1480h1124v-1480h-210v1323h-704v-1323h-210z" />
    <glyph glyph-name="Rho" unicode="&#x3a1;" horiz-adv-x="1132" 
d="M191 0v1480h403q268 0 385 -90.5t117 -297.5q0 -236 -160 -370t-444 -134h-93v-588h-208zM399 747h85q187 0 289 86t102 243q0 133 -80 190t-267 57h-129v-576z" />
    <glyph glyph-name="Sigma" unicode="&#x3a3;" horiz-adv-x="1215" 
d="M62 0v188l574 574l-549 561v157h1042v-157h-767l523 -534l-601 -601h876v-188h-1098z" />
    <glyph glyph-name="Tau" unicode="&#x3a4;" horiz-adv-x="1295" 
d="M543 0v1323h-525v157h1260v-157h-525v-1323h-210z" />
    <glyph glyph-name="Upsilon" unicode="&#x3a5;" horiz-adv-x="1307" 
d="M538 0v479q0 352 -147.5 590.5t-364.5 238.5v172h15q244 0 400 -149.5t224 -447.5q91 244 258 406.5t355 190.5v-148q-231 -66 -386.5 -311t-155.5 -542v-479h-198z" />
    <glyph glyph-name="Phi" unicode="&#x3a6;" horiz-adv-x="1443" 
d="M629 0v222q-253 0 -410 143.5t-157 374.5q0 232 157 375t410 143v222h185v-222q254 0 411 -143t157 -375q0 -231 -157 -374.5t-411 -143.5v-222h-185zM629 375v730q-170 0 -264 -95.5t-94 -269.5t94 -269.5t264 -95.5zM814 375q171 0 264.5 95.5t93.5 269.5t-93.5 269.5
t-264.5 95.5v-730z" />
    <glyph glyph-name="Chi" unicode="&#x3a7;" horiz-adv-x="1282" 
d="M16 0l491 743l-467 737h248l356 -558l374 558h198l-473 -715l485 -765h-248l-376 587l-389 -587h-199z" />
    <glyph glyph-name="Iotadiaeresis" unicode="&#x3aa;" horiz-adv-x="590" 
d="M190 0v1480h210v-1480h-210zM16 1604v173h173v-173h-173zM411 1604v173h173v-173h-173z" />
    <glyph glyph-name="Upsilondiaeresis" unicode="&#x3ab;" horiz-adv-x="1307" 
d="M538 0v479q0 352 -147.5 590.5t-364.5 238.5v172h15q244 0 400 -149.5t224 -447.5q91 244 258 406.5t355 190.5v-148q-231 -66 -386.5 -311t-155.5 -542v-479h-198zM390 1604v173h173v-173h-173zM785 1604v173h173v-173h-173z" />
    <glyph glyph-name="alphatonos" unicode="&#x3ac;" horiz-adv-x="1421" 
d="M989 716q70 191 106 370h184q-53 -228 -215 -542l20 -48q13 -29 62 -133q30 -64 70 -152q60 -137 98 -211h-210q-12 25 -14 30l-45 104l-41 96l-33 77l-16 37q-92 -204 -186.5 -286.5t-235.5 -82.5q-182 0 -291.5 142.5t-109.5 379.5q0 277 125.5 445.5t332.5 168.5
q138 0 220 -81t179 -314zM888 504l-49 111q-90 206 -145.5 276.5t-125.5 70.5q-99 0 -162.5 -122t-63.5 -311q0 -183 59.5 -294.5t157.5 -111.5q85 0 156 82t173 299zM467 1283l210 419h228l-302 -419h-136z" />
    <glyph glyph-name="epsilontonos" unicode="&#x3ad;" horiz-adv-x="975" 
d="M405 1283l210 419h228l-302 -419h-136zM851 193v-159q-162 -59 -306 -59q-191 0 -312.5 92t-121.5 237q0 205 247 300q-210 72 -210 243q0 263 390 263q154 0 276 -35v-148q-126 35 -247 35q-228 0 -228 -130q0 -175 362 -175h39v-154h-140q-125 0 -202 -55t-77 -143
q0 -81 70 -131.5t183 -50.5q123 0 277 70z" />
    <glyph glyph-name="etatonos" unicode="&#x3ae;" horiz-adv-x="1274" 
d="M201 0v753q0 182 -66 333h220q27 -88 43 -206q175 230 382 230q159 0 234 -97.5t75 -303.5v-1104h-197v1080q0 240 -178 240q-174 0 -316 -216v-709h-197zM497 1283l210 419h228l-302 -419h-136z" />
    <glyph glyph-name="iotatonos" unicode="&#x3af;" horiz-adv-x="753" 
d="M703 17q-92 -42 -193 -42q-168 0 -240.5 94.5t-72.5 312.5v704h197v-685q0 -152 35.5 -215t121.5 -63q73 0 152 42v-148zM185 1283l209 419h229l-303 -419h-135z" />
    <glyph glyph-name="upsilondiaeresistonos" unicode="&#x3b0;" horiz-adv-x="1234" 
d="M185 1086h197v-543q0 -246 50.5 -333t191.5 -87q140 0 218 100t78 279q0 140 -42.5 301.5t-111.5 282.5h214q118 -267 118 -558q0 -251 -134 -402t-357 -151q-193 0 -304 107q-68 65 -93 154.5t-25 264.5v585zM210 1283v173h172v-173h-172zM765 1283v173h173v-173h-173z
M456 1369l210 420h229l-303 -420h-136z" />
    <glyph glyph-name="alpha" unicode="&#x3b1;" horiz-adv-x="1421" 
d="M989 716q70 191 106 370h184q-53 -228 -215 -542l20 -48q13 -29 62 -133q30 -64 70 -152q60 -137 98 -211h-210q-12 25 -14 30l-45 104l-41 96l-33 77l-16 37q-92 -204 -186.5 -286.5t-235.5 -82.5q-182 0 -291.5 142.5t-109.5 379.5q0 277 125.5 445.5t332.5 168.5
q138 0 220 -81t179 -314zM888 504l-49 111q-90 206 -145.5 276.5t-125.5 70.5q-99 0 -162.5 -122t-63.5 -311q0 -183 59.5 -294.5t157.5 -111.5q85 0 156 82t173 299z" />
    <glyph glyph-name="beta" unicode="&#x3b2;" horiz-adv-x="1234" 
d="M197 -395v1449q0 260 117 405t326 145q172 0 278 -90t106 -237q0 -118 -68 -217.5t-203 -180.5q179 -57 280.5 -176.5t101.5 -273.5q0 -199 -137.5 -326.5t-352.5 -127.5q-129 0 -251 42v-412h-197zM468 913h36q129 0 225.5 104.5t96.5 243.5q0 97 -50 146t-149 49
q-117 0 -175 -93t-58 -278v-897q143 -65 253 -65q121 0 205.5 87.5t84.5 210.5q0 156 -117 250t-313 94h-39v148z" />
    <glyph glyph-name="gamma" unicode="&#x3b3;" horiz-adv-x="1146" 
d="M474 106q-40 175 -183.5 467.5t-296.5 512.5h227q223 -338 366 -747q118 310 294 597l77 127q2 2 14 23h181q-236 -336 -486 -920l-18 -42q38 -105 38 -234q0 -127 -63 -285h-150l-11 33q-42 133 -42 213q0 85 53 255z" />
    <glyph glyph-name="delta" unicode="&#x3b4;" horiz-adv-x="1209" 
d="M487 1000q-35 24 -45 30l-102 65q-192 123 -192 241q0 128 127 198t361 70q96 0 232 -23l39 -6v-164q-162 45 -307 45q-114 0 -185.5 -28.5t-71.5 -74.5q0 -37 93 -99l100 -67q10 -7 93 -57l94 -58q204 -124 290 -252t86 -308q0 -241 -136.5 -389t-358.5 -148
q-217 0 -355 144t-138 371q0 181 94 308.5t282 201.5zM639 908l-22 -9q-148 -62 -222 -165t-74 -247q0 -161 81 -262.5t209 -101.5q121 0 199 105.5t78 269.5q0 143 -55 233.5t-194 176.5z" />
    <glyph glyph-name="epsilon" unicode="&#x3b5;" horiz-adv-x="950" 
d="M863 193v-159q-162 -59 -306 -59q-191 0 -312.5 92t-121.5 237q0 205 247 300q-210 72 -210 243q0 263 390 263q154 0 276 -35v-148q-126 35 -247 35q-228 0 -228 -130q0 -175 362 -175h39v-154h-140q-125 0 -202 -55t-77 -143q0 -81 70 -131.5t183 -50.5q123 0 277 70z
" />
    <glyph glyph-name="zeta" unicode="&#x3b6;" horiz-adv-x="1289" 
d="M666 -409v161q123 -23 199 -23q125 0 188 39.5t63 118.5q0 70 -46.5 91.5t-196.5 21.5h-119q-279 0 -418 125.5t-139 376.5q0 169 80 364.5t208 336.5q-54 -4 -78 -4q-172 0 -364 70v175q228 -119 495 -119l69 1q152 129 299 198.5t289 79.5l47 -135
q-100 -99 -255.5 -170.5t-320.5 -95.5q-130 -177 -194.5 -350t-64.5 -341q0 -182 88 -260.5t292 -78.5h89q221 0 311 -57.5t90 -198.5q0 -168 -120 -252t-359 -84q-60 0 -132 10z" />
    <glyph glyph-name="eta" unicode="&#x3b7;" horiz-adv-x="1274" 
d="M201 0v753q0 182 -66 333h220q27 -88 43 -206q175 230 382 230q154 0 231.5 -100.5t77.5 -300.5v-1104h-197v1080q0 120 -44.5 180t-133.5 60q-174 0 -316 -216v-709h-197z" />
    <glyph glyph-name="theta" unicode="&#x3b8;" horiz-adv-x="1258" 
d="M136 789q0 395 127 605t367 210q239 0 366 -210t127 -604q0 -395 -127 -605t-366 -210q-247 0 -370.5 203.5t-123.5 610.5zM340 876h579q0 254 -81 417t-209 163q-127 0 -208 -163t-81 -417zM919 728h-579q0 -274 79 -439.5t209 -165.5q128 0 209.5 169.5t81.5 435.5z
" />
    <glyph glyph-name="iota" unicode="&#x3b9;" horiz-adv-x="753" 
d="M703 17q-92 -42 -193 -42q-168 0 -240.5 94.5t-72.5 312.5v704h197v-685q0 -152 35.5 -215t121.5 -63q73 0 152 42v-148z" />
    <glyph glyph-name="kappa" unicode="&#x3ba;" horiz-adv-x="1117" 
d="M197 0v1086h197v-532l102 126l95 118q141 176 222 232t192 56v-178q-22 3 -35 3q-51 0 -112 -52t-188 -203l-62 -73l447 -583h-238l-423 554v-554h-197z" />
    <glyph glyph-name="lambda" unicode="&#x3bb;" horiz-adv-x="1195" 
d="M499 985l-100 230q-49 113 -102 152t-157 39h-29v173h37q193 0 275.5 -58t168.5 -256l356 -812q101 -230 235 -453h-222q-99 163 -185 358l-185 418l-356 -776h-190z" />
    <glyph glyph-name="nu" unicode="&#x3bd;" horiz-adv-x="1124" 
d="M459 0q-77 245 -215 571t-244 515h208q42 -69 117 -236l90 -201q87 -194 160 -414l13 -40q135 247 203 432t68 308q0 88 -25 151h195q15 -51 15 -114q0 -120 -111.5 -400t-275.5 -572h-198z" />
    <glyph glyph-name="xi" unicode="&#x3be;" horiz-adv-x="1178" 
d="M495 837q-122 47 -197.5 141.5t-75.5 200.5q0 89 74 191q-142 0 -308 67v161q168 -80 426 -98l45 -4q181 108 374 108q68 0 142 -13l30 -95q-87 -64 -197.5 -96t-244.5 -32l-75 2q-68 -79 -68 -174q0 -139 116 -223.5t308 -84.5h131v-148h-136q-150 0 -221.5 -17.5
t-145.5 -72.5q-126 -95 -126 -239q0 -119 77 -178.5t231 -59.5h99q221 0 311 -57.5t90 -198.5q0 -168 -120 -252t-359 -84q-59 0 -132 10v161q123 -23 199 -23q125 0 188 39.5t63 118.5q0 70 -46.5 91.5t-196.5 21.5h-85q-246 0 -387.5 107.5t-141.5 295.5q0 138 95.5 253.5
t263.5 180.5z" />
    <glyph glyph-name="omicron" unicode="&#x3bf;" horiz-adv-x="1258" 
d="M622 -25q-233 0 -372 154.5t-139 413.5q0 262 139.5 414.5t378.5 152.5t378.5 -152.5t139.5 -412.5q0 -266 -140 -418t-385 -152zM625 123q313 0 313 422q0 417 -309 417q-308 0 -308 -419q0 -420 304 -420z" />
    <glyph glyph-name="rho" unicode="&#x3c1;" horiz-adv-x="1246" 
d="M185 -395v812q0 346 125 519.5t375 173.5q214 0 332 -122.5t118 -344.5q0 -278 -156.5 -460.5t-395.5 -182.5q-107 0 -201 35v-430h-197zM382 226q95 -78 213 -78q154 0 248.5 127t94.5 334q0 163 -75 258t-203 95q-139 0 -208.5 -114.5t-69.5 -342.5v-279z" />
    <glyph glyph-name="sigmafinal" unicode="&#x3c2;" horiz-adv-x="1171" 
d="M1030 1088v-153q-104 28 -219 28q-238 0 -367.5 -125.5t-129.5 -355.5q0 -162 86.5 -235.5t275.5 -73.5h70q220 0 310.5 -57.5t90.5 -198.5q0 -168 -120 -252t-360 -84q-59 0 -131 10v161q122 -23 198 -23q126 0 189 39.5t63 118.5q0 70 -46.5 91.5t-196.5 21.5h-96
q-257 0 -396.5 122t-139.5 346q0 275 202.5 458.5t506.5 183.5q119 0 210 -22z" />
    <glyph glyph-name="sigma" unicode="&#x3c3;" horiz-adv-x="1392" 
d="M791 1086h625v-173h-376q107 -170 107 -369q0 -263 -139 -416t-379 -153q-239 0 -378.5 153t-139.5 415q0 260 139 413.5t376 153.5q66 0 165 -24zM625 123q156 0 234.5 105.5t78.5 316.5q0 208 -77.5 312.5t-231.5 104.5t-231 -105t-77 -314q0 -210 76 -315t228 -105z
" />
    <glyph glyph-name="tau" unicode="&#x3c4;" horiz-adv-x="1104" 
d="M515 0q-68 151 -68 427v486h-157q-138 0 -250 -50v183q106 40 264 40h760v-173h-419v-596q0 -196 79 -317h-209z" />
    <glyph glyph-name="upsilon" unicode="&#x3c5;" horiz-adv-x="1234" 
d="M185 1086h197v-543q0 -246 50.5 -333t191.5 -87q140 0 218 100t78 279q0 313 -154 584h214q118 -267 118 -558q0 -251 -134 -402t-357 -151q-193 0 -304 107q-68 65 -93 154.5t-25 264.5v585z" />
    <glyph glyph-name="phi" unicode="&#x3c6;" horiz-adv-x="1672" 
d="M535 1086v-148q-120 0 -179.5 -80.5t-59.5 -241.5q0 -223 103.5 -340t310.5 -128v262q0 266 18 373.5t77 189.5q99 138 307 138q210 0 335.5 -131.5t125.5 -350.5q0 -269 -173 -432.5t-493 -196.5v-395h-197v395q-306 24 -458.5 178t-152.5 438q0 235 109 352.5
t327 117.5zM907 148q226 17 347.5 143t121.5 344q0 150 -65.5 238.5t-178.5 88.5q-112 0 -168 -92.5t-56 -277.5l-1 -147v-297z" />
    <glyph glyph-name="chi" unicode="&#x3c7;" horiz-adv-x="1123" 
d="M451 363l-201 359q-38 67 -44 78l-69 114q-66 109 -115 172h229q88 -121 189 -301l55 -99l70 -125l308 525h171l-396 -675l246 -443l66 -109l69 -113q35 -58 91 -141h-227l-14 21q-128 198 -181 293l-165 295l-353 -609h-173z" />
    <glyph glyph-name="psi" unicode="&#x3c8;" horiz-adv-x="1616" 
d="M716 -395v395l-23 2q-303 34 -427 179t-124 465v153q0 173 -49 287h199q54 -93 54 -274v-153q0 -184 30.5 -278t110.5 -153q107 -80 229 -80v1135h197v-1135q200 10 300.5 139t100.5 378t-79 421h197q79 -204 79 -456q0 -298 -149.5 -455.5t-448.5 -174.5v-395h-197z" />
    <glyph glyph-name="omega" unicode="&#x3c9;" horiz-adv-x="1838" 
d="M919 287q-63 -156 -153.5 -234t-208.5 -78q-196 0 -321 151.5t-125 388.5q0 139 47.5 298t122.5 273h205q-80 -115 -132.5 -271.5t-52.5 -280.5q0 -172 72.5 -285t182.5 -113q99 0 172.5 89t100.5 241q-47 123 -47 251q0 140 47 264h181q46 -124 46 -264q0 -128 -46 -251
q26 -152 99.5 -241t172.5 -89q110 0 183 113.5t73 284.5q0 124 -53 280.5t-133 271.5h205q75 -114 122.5 -273t47.5 -298q0 -238 -125 -389t-321 -151q-118 0 -208.5 78t-153.5 234z" />
    <glyph glyph-name="iotadiaeresis" unicode="&#x3ca;" horiz-adv-x="753" 
d="M703 17q-92 -42 -193 -42q-168 0 -240.5 94.5t-72.5 312.5v704h197v-685q0 -152 35.5 -215t121.5 -63q73 0 152 42v-148zM17 1283v173h173v-173h-173zM412 1283v173h173v-173h-173z" />
    <glyph glyph-name="upsilondiaeresis" unicode="&#x3cb;" horiz-adv-x="1234" 
d="M185 1086h197v-543q0 -246 50.5 -333t191.5 -87q140 0 218 100t78 279q0 313 -154 584h214q118 -267 118 -558q0 -251 -134 -402t-357 -151q-193 0 -304 107q-68 65 -93 154.5t-25 264.5v585zM313 1283v173h173v-173h-173zM708 1283v173h173v-173h-173z" />
    <glyph glyph-name="omicrontonos" unicode="&#x3cc;" horiz-adv-x="1258" 
d="M622 -25q-233 0 -372 154.5t-139 413.5q0 262 139.5 414.5t378.5 152.5t378.5 -152.5t139.5 -412.5q0 -266 -140 -418t-385 -152zM625 123q313 0 313 422q0 417 -309 417q-308 0 -308 -419q0 -199 80 -309.5t224 -110.5zM481 1283l210 419h228l-302 -419h-136z" />
    <glyph glyph-name="upsilontonos" unicode="&#x3cd;" horiz-adv-x="1234" 
d="M185 1086h197v-543q0 -246 50.5 -333t191.5 -87q140 0 218 100t78 279q0 140 -42.5 301.5t-111.5 282.5h214q118 -267 118 -558q0 -251 -134 -402t-357 -151q-193 0 -304 107q-68 65 -93 154.5t-25 264.5v585zM481 1283l210 419h228l-302 -419h-136z" />
    <glyph glyph-name="omegatonos" unicode="&#x3ce;" horiz-adv-x="1838" 
d="M919 287q-126 -312 -362 -312q-196 0 -321 151.5t-125 388.5q0 139 47.5 298t122.5 273h205q-80 -115 -132.5 -271.5t-52.5 -280.5q0 -172 72.5 -285t182.5 -113q99 0 172.5 89t100.5 241q-47 123 -47 251q0 140 47 264h181q46 -124 46 -264q0 -128 -46 -251
q26 -152 99.5 -241t172.5 -89q110 0 183 113.5t73 284.5q0 124 -53 280.5t-133 271.5h205q75 -114 122.5 -273t47.5 -298q0 -238 -125 -389t-321 -151q-236 0 -362 312zM771 1283l210 419h228l-302 -419h-136z" />
    <glyph glyph-name="phi1" unicode="&#x3d5;" horiz-adv-x="1579" 
d="M697 -395v427q-269 0 -427.5 138t-158.5 371t158.5 370t427.5 137v531h185v-531q269 0 427.5 -137t158.5 -370t-158.5 -371t-427.5 -138v-427h-185zM697 898q-189 -9 -289 -101t-100 -257q0 -161 107 -259.5t282 -98.5v716zM882 898v-716q175 0 282 98.5t107 259.5
q0 165 -100 257t-289 101z" />
    <glyph glyph-name="Iocyrillic" horiz-adv-x="1110" 
d="M191 0v1480h827v-157h-617v-475h517v-155h-517v-536h660v-157h-870zM345 1604v173h173v-173h-173zM740 1604v173h173v-173h-173z" />
    <glyph glyph-name="Gjecyrillic" horiz-adv-x="1043" 
d="M191 0v1480h828v-160h-618v-1320h-210zM401 1604l241 321h228l-321 -321h-148z" />
    <glyph glyph-name="Icyrillic" horiz-adv-x="590" 
d="M190 0v1480h210v-1480h-210z" />
    <glyph glyph-name="Yicyrillic" horiz-adv-x="590" 
d="M190 0v1480h210v-1480h-210zM17 1604v173h173v-173h-173zM412 1604v173h173v-173h-173z" />
    <glyph glyph-name="Kjecyrillic" horiz-adv-x="1306" 
d="M191 0v1480h210v-635h35q118 0 174 43t140 198q24 45 38 70l40 67q96 163 157 209.5t178 46.5q2 0 27 1v-154q-72 0 -111 -30.5t-97 -131.5l-33 -58l-32 -57q-12 -21 -41 -75q-74 -138 -203 -197q117 -27 189.5 -99t163.5 -251l54 -108l56 -107l69 -132q10 -20 45 -80
h-220q-25 44 -29 52l-75 147q-126 246 -201 345.5t-164 140.5h-160v-685h-210zM524 1604l241 321h228l-321 -321h-148z" />
    <glyph glyph-name="Ushortcyrillic" horiz-adv-x="1314" 
d="M597 435l-523 1045h234l404 -807h4l403 807h193l-574 -1149q-107 -214 -225 -291t-339 -77h-38v173h41q158 0 237.5 48.5t151.5 188.5zM381 1925h123q16 -87 68.5 -130t141.5 -43t141.5 43t68.5 130h123q-15 -146 -106 -233.5t-227 -87.5t-226.5 87.5t-106.5 233.5z" />
    <glyph glyph-name="Acyrillic" horiz-adv-x="1413" 
d="M941 566l-252 638l-253 -638h505zM1163 0l-161 410h-627l-163 -410h-195l587 1480h208l578 -1480h-227z" />
    <glyph glyph-name="Gecyrillic" horiz-adv-x="1043" 
d="M191 0v1480h828v-160h-618v-1320h-210z" />
    <glyph glyph-name="Iecyrillic" horiz-adv-x="1110" 
d="M191 0v1480h827v-157h-617v-475h517v-155h-517v-536h660v-157h-870z" />
    <glyph glyph-name="Zhecyrillic" horiz-adv-x="1673" 
d="M936 697v-697h-198v697h-86q-92 -46 -144 -141q-71 -130 -178 -408q-42 -111 -58 -148h-216l22 50q60 135 109 255l47 112q74 180 136 254t167 107q-55 32 -90 80.5t-101 184.5l-37 78q-63 129 -99 167t-95 38v154l21 1q103 0 172.5 -63.5t154.5 -234.5l31 -64l40 -81
q60 -120 97.5 -156.5t106.5 -39.5v638h198v-638q70 8 110 46t94 150q27 54 40 81l31 64q85 171 154.5 234.5t172.5 63.5l21 -1v-154q-59 0 -95 -38t-99 -167l-37 -78q-66 -136 -101 -184.5t-90 -80.5q105 -33 167 -107t136 -254l46 -112q50 -120 110 -255l22 -50h-216
q-17 38 -59 148q-105 276 -177 408q-52 95 -144 141h-86z" />
    <glyph glyph-name="Zecyrillic" horiz-adv-x="1107" 
d="M65 25v185q233 -86 403 -86q151 0 241.5 76t90.5 202q0 152 -119 231.5t-348 79.5h-31v148h29q205 0 318 74.5t113 210.5q0 108 -76.5 162t-228.5 54q-159 0 -367 -77v170q191 62 379 62q243 0 376 -92.5t133 -262.5q0 -263 -322 -358q173 -28 269.5 -129.5t96.5 -253.5
q0 -195 -158.5 -326.5t-392.5 -131.5q-210 0 -406 62z" />
    <glyph glyph-name="Iicyrillic" horiz-adv-x="1517" 
d="M191 0v1480h210v-1178l715 1178h210v-1480h-210v1178l-715 -1178h-210z" />
    <glyph glyph-name="Iishortcyrillic" horiz-adv-x="1517" 
d="M191 0v1480h210v-1178l715 1178h210v-1480h-210v1178l-715 -1178h-210zM413 1925h123q16 -87 68.5 -130t141.5 -43t141.5 43t68.5 130h123q-15 -146 -106 -233.5t-227 -87.5t-226.5 87.5t-106.5 233.5z" />
    <glyph glyph-name="Kacyrillic" horiz-adv-x="1306" 
d="M191 0v1480h210v-635h35q118 0 174 43t140 198q24 45 38 70l40 67q96 163 157 209.5t178 46.5q2 0 27 1v-154q-72 0 -111 -30.5t-97 -131.5l-33 -58l-32 -57q-12 -21 -41 -75q-74 -138 -203 -197q117 -27 189.5 -99t163.5 -251l54 -108l56 -107l69 -132q10 -20 45 -80
h-220q-25 44 -29 52l-75 147q-126 246 -201 345.5t-164 140.5h-160v-685h-210z" />
    <glyph glyph-name="Ocyrillic" horiz-adv-x="1591" 
d="M787 -37q-308 0 -495.5 213.5t-187.5 564.5q0 353 188.5 564.5t503.5 211.5q314 0 503 -211t189 -563q0 -359 -189 -569.5t-512 -210.5zM790 120q227 0 351 163.5t124 461.5q0 289 -124.5 452t-344.5 163q-221 0 -345 -163.5t-124 -454.5q0 -290 123 -456t340 -166z" />
    <glyph glyph-name="Ucyrillic" horiz-adv-x="1314" 
d="M597 435l-523 1045h234l404 -807h4l403 807h193l-574 -1149q-107 -214 -225 -291t-339 -77h-38v173h41q158 0 237.5 48.5t151.5 188.5z" />
    <glyph glyph-name="Checyrillic" horiz-adv-x="1289" 
d="M888 0v596q-161 -90 -369 -90q-226 0 -332.5 117.5t-106.5 366.5v490h210v-484q0 -178 61.5 -248t219.5 -70q174 0 317 89v713h210v-1480h-210z" />
    <glyph glyph-name="Yericyrillic" horiz-adv-x="1647" 
d="M191 0v1480h210v-635h113q289 0 408 -75q170 -108 170 -319q0 -247 -193 -368q-132 -83 -439 -83h-269zM401 154h74q213 0 310 67.5t97 214.5q0 127 -94.5 191t-283.5 64h-103v-537zM1246 0v1480h210v-1480h-210z" />
    <glyph glyph-name="Ereversedcyrillic" horiz-adv-x="1417" 
d="M114 76v180q240 -129 451 -129q234 0 379.5 158t145.5 412h-732v154h725q-28 253 -155.5 379.5t-354.5 126.5q-204 0 -445 -94v192q253 62 459 62q344 0 535 -204.5t191 -573.5q0 -372 -188 -574t-534 -202q-258 0 -477 113z" />
    <glyph glyph-name="acyrillic" horiz-adv-x="1131" 
d="M757 138q-177 -163 -341 -163q-135 0 -224 84.5t-89 213.5q0 178 149.5 273.5t428.5 95.5h47v131q0 189 -194 189q-156 0 -337 -96v163q199 81 373 81q182 0 268.5 -82t86.5 -255v-492q0 -169 104 -169q13 0 38 4l14 -109q-67 -32 -148 -32q-138 0 -176 163zM728 245v281
l-66 2q-162 0 -262 -61.5t-100 -161.5q0 -71 50 -120t122 -49q123 0 256 109z" />
    <glyph glyph-name="gecyrillic" horiz-adv-x="1012" 
d="M197 0v1086h790v-173h-593v-913h-197z" />
    <glyph glyph-name="iecyrillic" horiz-adv-x="1141" 
d="M993 35q-198 -60 -339 -60q-240 0 -391.5 159.5t-151.5 413.5q0 247 133.5 405t341.5 158q197 0 304.5 -140t107.5 -398l-1 -61h-685q43 -387 379 -387q123 0 302 66v-156zM321 660h479q0 303 -226 303q-227 0 -253 -303z" />
    <glyph glyph-name="zhecyrillic" horiz-adv-x="1490" 
d="M646 0v481h-91q-47 -29 -96 -123q-3 -6 -74 -126q-25 -43 -64 -117l-45 -88l-15 -27h-212q45 72 82 144q38 76 44 87l53 98l40 76q59 107 171 145q-82 37 -147 175l-20 42q-7 15 -23 53q-47 110 -120 118v148h18q91 0 141.5 -46t111.5 -182l23 -53q49 -109 85 -148
t88 -39l50 -1v469h198v-469l50 1q52 0 88 39t84 148l24 53q61 136 111.5 182t142.5 46h17v-148q-73 -8 -120 -118q-16 -38 -23 -53l-20 -42q-65 -138 -148 -175q113 -38 172 -145l39 -76l54 -98q6 -11 44 -87q37 -72 82 -144h-213l-14 27l-46 88q-38 74 -63 117
q-71 120 -74 126q-49 94 -96 123h-91v-481h-198z" />
    <glyph glyph-name="zecyrillic" horiz-adv-x="984" 
d="M86 22v166q156 -60 321 -60q115 0 186.5 52.5t71.5 136.5q0 99 -79 148.5t-237 49.5h-26v130h33q140 0 210.5 39.5t70.5 118.5q0 78 -63 117.5t-189 39.5t-280 -55v159q143 46 316 46q196 0 306.5 -70t110.5 -195q0 -79 -50 -144.5t-149 -118.5q116 -36 174.5 -102.5
t58.5 -163.5q0 -147 -134.5 -244t-337.5 -97q-132 0 -314 47z" />
    <glyph glyph-name="iicyrillic" horiz-adv-x="1283" 
d="M197 0v1086h185v-822l506 822h197v-1086h-185v822l-505 -822h-198z" />
    <glyph glyph-name="iishortcyrillic" horiz-adv-x="1283" 
d="M197 0v1086h185v-822l506 822h197v-1086h-185v822l-505 -822h-198zM296 1604h123q16 -87 68.5 -130t141.5 -43t141.5 43t68.5 130h123q-15 -146 -106 -233.5t-227 -87.5t-226.5 87.5t-106.5 233.5z" />
    <glyph glyph-name="kacyrillic" horiz-adv-x="1151" 
d="M197 0v1086h197l1 -475q138 0 177 27t123 181l26 46q78 142 136 181.5t191 39.5v-148h-11q-64 0 -97.5 -29t-88.5 -131l-17 -32q-59 -109 -88 -139t-112 -65q78 -21 109 -48.5t114 -149.5l47 -68l41 -60l52 -77q24 -36 68 -97l30 -42h-214l-30 41q-64 87 -135 191
q-89 129 -174 231h-148v-463h-197z" />
    <glyph glyph-name="ocyrillic" horiz-adv-x="1258" 
d="M622 -25q-233 0 -372 154.5t-139 413.5q0 262 139.5 414.5t378.5 152.5t378.5 -152.5t139.5 -412.5q0 -266 -140 -418t-385 -152zM625 123q313 0 313 422q0 417 -309 417q-308 0 -308 -419q0 -420 304 -420z" />
    <glyph glyph-name="ucyrillic" horiz-adv-x="1095" 
d="M118 -395v173h28q158 0 215.5 39.5t107.5 182.5l-420 1086h212l315 -816h2l327 816h186l-425 -1061q-110 -275 -200.5 -347.5t-324.5 -72.5h-23z" />
    <glyph glyph-name="checyrillic" horiz-adv-x="1073" 
d="M678 0v425q-117 -49 -238 -49q-202 0 -281 101.5t-79 362.5v246h197v-284q0 -163 43 -222.5t160 -59.5q110 0 198 50v516h198v-1086h-198z" />
    <glyph glyph-name="yericyrillic" horiz-adv-x="1481" 
d="M197 0v1086h197v-438h95q224 0 336.5 -79t112.5 -237q0 -166 -119.5 -249t-358.5 -83h-263zM1085 0v1086h198v-1086h-198zM394 148h79q127 0 191 45t64 136q0 85 -63 128t-189 43h-82v-352z" />
    <glyph glyph-name="ereversedcyrillic" horiz-adv-x="1042" 
d="M86 36v153q150 -66 285 -66q164 0 252 92.5t100 277.5h-427v149h427q-12 152 -96 236t-224 84q-123 0 -305 -49v161q149 37 290 37q259 0 401 -148t142 -418q0 -261 -142.5 -415.5t-383.5 -154.5q-154 0 -319 61z" />
    <glyph glyph-name="iocyrillic" horiz-adv-x="1141" 
d="M993 35q-198 -60 -339 -60q-240 0 -391.5 159.5t-151.5 413.5q0 247 133.5 405t341.5 158q197 0 304.5 -140t107.5 -398l-1 -61h-685q43 -387 379 -387q123 0 302 66v-156zM321 660h479q0 303 -226 303q-227 0 -253 -303zM313 1283v173h173v-173h-173zM708 1283v173h173
v-173h-173z" />
    <glyph glyph-name="gjecyrillic" horiz-adv-x="1012" 
d="M197 0v1086h790v-173h-593v-913h-197zM395 1283l241 321h228l-321 -321h-148z" />
    <glyph glyph-name="icyrillic" horiz-adv-x="592" 
d="M197 0v1086h197v-1086h-197zM197 1283v197h197v-197h-197z" />
    <glyph glyph-name="yicyrillic" horiz-adv-x="592" 
d="M197 0v1086h197v-1086h-197zM17 1283v173h173v-173h-173zM412 1283v173h173v-173h-173z" />
    <glyph glyph-name="kjecyrillic" horiz-adv-x="1151" 
d="M197 0v1086h197l1 -475q138 0 177 27t123 181l26 46q78 142 136 181.5t191 39.5v-148h-11q-64 0 -97.5 -29t-88.5 -131l-17 -32q-59 -109 -88 -139t-112 -65q78 -21 109 -48.5t114 -149.5l47 -68l41 -60l52 -77q24 -36 68 -97l30 -42h-214l-30 41q-64 87 -135 191
q-89 129 -174 231h-148v-463h-197zM456 1283l241 321h228l-321 -321h-148z" />
    <glyph glyph-name="ushortcyrillic" horiz-adv-x="1095" 
d="M118 -395v173h28q158 0 215.5 39.5t107.5 182.5l-420 1086h212l315 -816h2l327 816h186l-425 -1061q-110 -275 -200.5 -347.5t-324.5 -72.5h-23zM255 1604h123q16 -87 68.5 -130t141.5 -43t141.5 43t68.5 130h123q-15 -146 -106 -233.5t-227 -87.5t-226.5 87.5
t-106.5 233.5z" />
    <glyph glyph-name="etnahtahebrew" unicode="&#x591;" 
d="M629 -136v-148q185 -28 185 -216v-12h-105v12q0 130 -129 130q-130 0 -130 -130v-12h-105v12q0 188 185 216v148h99z" />
    <glyph glyph-name="segolhebrew1" unicode="&#x592;" 
d="M740 1456v-124h-123v124h123zM494 1456v-124h-124v124h124zM617 1703v-124h-123v124h123z" />
    <glyph glyph-name="shalshelethebrew" unicode="&#x593;" 
d="M764 1332l-419 74v87l233 92l-233 93v86l419 74v-92l-303 -25v-37l284 -99l-284 -98v-37l303 -25v-93z" />
    <glyph glyph-name="zaqefqatanhebrew" unicode="&#x594;" 
d="M493 1579v124h123v-124h-123zM493 1332v124h123v-124h-123z" />
    <glyph glyph-name="zaqefgadolhebrew" unicode="&#x595;" 
d="M617 1579v124h123v-124h-123zM617 1332v124h123v-124h-123zM395 1703h99v-371h-99v371z" />
    <glyph glyph-name="tipehahebrew" unicode="&#x596;" 
d="M833 -512h-50q-181 0 -241.5 68t-60.5 273v35h99v-54l1 -39q0 -116 34 -150t153 -34h65v-99z" />
    <glyph glyph-name="reviahebrew" unicode="&#x597;" 
d="M554 1577l122 -123l-122 -122l-122 122z" />
    <glyph glyph-name="zarqahebrew" unicode="&#x598;" 
d="M788 1685q26 -83 26 -151q0 -90 -41 -146t-108 -56q-76 0 -117 111l-12 33l-20 54q-17 52 -37 52q-48 0 -48 -114q0 -56 26 -136h-89q-23 66 -23 150q0 203 143 203q70 0 104 -91l15 -38l11 -30l17 -43q18 -47 46 -47q46 0 46 101q0 68 -33 148h94z" />
    <glyph glyph-name="pashtahebrew" unicode="&#x599;" 
d="M0 1801h49q195 0 249 -72.5t54 -336.5v-60h-99v80l-1 63q0 145 -34 186.5t-153 41.5h-65v98z" />
    <glyph glyph-name="yetivhebrew" unicode="&#x59a;" 
d="M1061 -518l-506 191l506 191v-111l-338 -80l338 -80v-111z" />
    <glyph glyph-name="tevirhebrew" unicode="&#x59b;" 
d="M481 -512v99h65q118 0 152.5 33.5t34.5 150.5l1 39v54h99v-35q0 -205 -60.5 -273t-242.5 -68h-49zM419 -259v123h124v-123h-124z" />
    <glyph glyph-name="geresh1hebrew" unicode="&#x59c;" 
d="M858 1801v-98h-65q-120 0 -153.5 -41.5t-33.5 -186.5l-1 -63v-80h-99v60q0 264 54 336.5t249 72.5h49z" />
    <glyph glyph-name="gereshmuqdamhebrew" unicode="&#x59d;" 
d="M1216 1801v-98h-65q-120 0 -153.5 -41.5t-33.5 -186.5l-1 -63v-80h-99v60q0 264 54 336.5t249 72.5h49z" />
    <glyph glyph-name="gershayim1hebrew" unicode="&#x59e;" 
d="M641 1801v-98h-15q-94 0 -124 -25.5t-30 -105.5l-2 -97l-1 -88v-55h-99v36l3 117q0 194 49 255t207 61h12zM944 1801v-98h-16q-94 0 -123.5 -25.5t-29.5 -105.5l-3 -97l-1 -88v-55h-99v36l3 117q0 195 49.5 255.5t206.5 60.5h13z" />
    <glyph glyph-name="qarneyparahebrew" unicode="&#x59f;" 
d="M452 1537l134 -136l-68 -69l-135 136q-52 -31 -104 -31q-85 0 -145 59.5t-60 144.5q0 84 59.5 143.5t144.5 59.5t144 -59.5t59 -145.5q0 -52 -29 -102zM276 1536q107 0 107 105q0 43 -31 74t-74 31q-44 0 -74.5 -31t-30.5 -74q0 -44 30.5 -74.5t72.5 -30.5zM778 1537
q-30 50 -30 102q0 86 59.5 145.5t144.5 59.5t144.5 -59.5t59.5 -143.5q0 -85 -60 -144.5t-146 -59.5q-52 0 -103 31l-135 -136l-69 69zM951 1536q106 0 106 105q0 43 -30.5 74t-74.5 31t-74.5 -31t-30.5 -74t30.5 -74t73.5 -31z" />
    <glyph glyph-name="telishagedolahebrew" unicode="&#x5a0;" 
d="M505 1537q-30 50 -30 102q0 86 59.5 145.5t144.5 59.5t144.5 -59.5t59.5 -143.5q0 -85 -60 -144.5t-146 -59.5q-52 0 -103 31l-135 -136l-69 69zM678 1536q106 0 106 105q0 43 -30.5 74t-74.5 31t-74.5 -31t-30.5 -74t30.5 -74t73.5 -31z" />
    <glyph glyph-name="pazerhebrew" unicode="&#x5a1;" 
d="M272 1332h-99v469h99v-240h59q115 0 151 29.5t36 124.5l1 38v48h99v-35q0 -178 -61.5 -241t-235.5 -63h-49v-130z" />
    <glyph glyph-name="munahhebrew" unicode="&#x5a3;" 
d="M666 -136h99v-382h-420v99h321v283z" />
    <glyph glyph-name="mahapakhhebrew" unicode="&#x5a4;" 
d="M827 -518l-506 191l506 191v-111l-338 -80l338 -80v-111z" />
    <glyph glyph-name="merkahhebrew" unicode="&#x5a5;" 
d="M378 -512v99h65q119 0 153 33.5t34 150.5l1 39v54h99v-35q0 -205 -60.5 -273t-242.5 -68h-49z" />
    <glyph glyph-name="merkhakefulahebrew" unicode="&#x5a6;" 
d="M296 -512v99h16q105 0 131 36.5t26 186.5v54h99v-35q0 -203 -52.5 -272t-206.5 -69h-13zM599 -512v99h15q106 0 131.5 36.5t25.5 186.5v54h99v-35q0 -203 -52.5 -272t-206.5 -69h-12z" />
    <glyph glyph-name="dargahebrew" unicode="&#x5a7;" 
d="M458 -493v78q64 -23 128 -23q72 0 72 34q0 29 -55 45l-46 13q-101 29 -101 96q0 114 162 114q76 0 127 -15v-75q-68 16 -125 16q-73 0 -73 -35q0 -21 39 -32l31 -9l48 -14q85 -25 85 -93q0 -119 -168 -119q-59 0 -124 19z" />
    <glyph glyph-name="qadmahebrew" unicode="&#x5a8;" 
d="M457 1801h49q195 0 249 -72.5t54 -336.5v-60h-99v80l-1 63q0 145 -34 186.5t-153 41.5h-65v98z" />
    <glyph glyph-name="telishaqetanahebrew" unicode="&#x5a9;" 
d="M378 1537l134 -136l-68 -69l-135 136q-52 -31 -104 -31q-85 0 -145 59.5t-60 144.5q0 84 59.5 143.5t144.5 59.5t144 -59.5t59 -145.5q0 -52 -29 -102zM202 1536q107 0 107 105q0 43 -31 74t-74 31q-44 0 -74.5 -31t-30.5 -74q0 -44 30.5 -74.5t72.5 -30.5z" />
    <glyph glyph-name="yerahbenyomohebrew" unicode="&#x5aa;" 
d="M555 -512v148q-185 29 -185 216v12h105v-12q0 -130 130 -130q129 0 129 130v12h105v-12q0 -188 -185 -216v-148h-99z" />
    <glyph glyph-name="olehebrew" unicode="&#x5ab;" 
d="M807 1332l-506 191l506 191v-111l-338 -80l338 -80v-111z" />
    <glyph glyph-name="iluyhebrew" unicode="&#x5ac;" 
d="M716 1714h99v-382h-420v99h321v283z" />
    <glyph glyph-name="dehihebrew" unicode="&#x5ad;" 
d="M1216 -512h-50q-181 0 -241.5 68t-60.5 273v35h99v-54l1 -39q0 -116 34 -150t153 -34h65v-99z" />
    <glyph glyph-name="zinorhebrew" unicode="&#x5ae;" 
d="M177 1685q26 -83 26 -151q0 -90 -41 -146t-108 -56q-76 0 -117 111l-12 33l-20 54q-17 52 -37 52q-48 0 -48 -114q0 -56 26 -136h-89q-23 66 -23 150q0 203 143 203q70 0 104 -91l15 -38l11 -30l17 -43q18 -47 46 -47q46 0 46 101q0 68 -33 148h94z" />
    <glyph glyph-name="masoracirclehebrew" unicode="&#x5af;" 
d="M557 1332q-93 0 -158.5 67t-65.5 160q0 95 66 161t161 66q94 0 160.5 -66t66.5 -160q0 -96 -66.5 -162t-163.5 -66zM558 1419q60 0 101.5 40.5t41.5 100.5q0 58 -41.5 99t-99.5 41q-59 0 -100 -41t-41 -99t41 -99.5t98 -41.5z" />
    <glyph glyph-name="shevahebrew" unicode="&#x5b0;" 
d="M568 -254v124h123v-124h-123zM568 -501v124h123v-124h-123z" />
    <glyph glyph-name="hatafsegolhebrew" unicode="&#x5b1;" 
d="M321 -259v123h123v-123h-123zM568 -259v123h123v-123h-123zM444 -506v124h124v-124h-124zM814 -259v123h124v-123h-124zM814 -506v124h124v-124h-124z" />
    <glyph glyph-name="hatafpatahhebrew" unicode="&#x5b2;" 
d="M271 -234v98h549v-98h-549zM943 -259v123h124v-123h-124zM943 -506v124h124v-124h-124z" />
    <glyph glyph-name="hatafqamatshebrew" unicode="&#x5b3;" 
d="M271 -234v98h543v-98h-222v-278h-98v278h-223zM938 -259v123h123v-123h-123zM938 -506v124h123v-124h-123z" />
    <glyph glyph-name="hiriqhebrew" unicode="&#x5b4;" 
d="M568 -259v123h123v-123h-123z" />
    <glyph glyph-name="tserehebrew" unicode="&#x5b5;" 
d="M432 -259v123h123v-123h-123zM679 -259v123h123v-123h-123z" />
    <glyph glyph-name="segolhebrew" unicode="&#x5b6;" 
d="M432 -259v123h123v-123h-123zM679 -259v123h123v-123h-123zM555 -506v124h124v-124h-124z" />
    <glyph glyph-name="patahhebrew" unicode="&#x5b7;" 
d="M383 -234v98h543v-98h-543z" />
    <glyph glyph-name="qamatshebrew" unicode="&#x5b8;" 
d="M383 -234v98h543v-98h-222v-278h-99v278h-222z" />
    <glyph glyph-name="holamhebrew" unicode="&#x5b9;" 
d="M-62 1332v124h124v-124h-124z" />
    <glyph glyph-name="qubutshebrew" unicode="&#x5bb;" 
d="M345 -259v123h123v-123h-123zM592 -382v123h123v-123h-123zM838 -506v124h124v-124h-124z" />
    <glyph glyph-name="dageshhebrew" unicode="&#x5bc;" 
d="M493 543v148h148v-148h-148z" />
    <glyph glyph-name="meteghebrew" unicode="&#x5bd;" 
d="M530 -136h99v-376h-99v376z" />
    <glyph glyph-name="maqafhebrew" unicode="&#x5be;" horiz-adv-x="699" 
d="M99 1012l57 172h445l-58 -172h-444z" />
    <glyph glyph-name="rafehebrew" unicode="&#x5bf;" 
d="M222 1332v99h543v-99h-543z" />
    <glyph glyph-name="paseqhebrew" unicode="&#x5c0;" horiz-adv-x="518" 
d="M197 1184h123v-1184h-123v1184z" />
    <glyph glyph-name="shindothebrew" unicode="&#x5c1;" 
d="M1214 1332v124h124v-124h-124z" />
    <glyph glyph-name="sindothebrew" unicode="&#x5c2;" 
d="M146 1332v124h123v-124h-123z" />
    <glyph glyph-name="upperdothebrew" unicode="&#x5c4;" 
d="M494 1332v124h123v-124h-123z" />
    <glyph glyph-name="alefhebrew" unicode="&#x5d0;" horiz-adv-x="1321" 
d="M117 0v37q0 491 231 857q-95 103 -220 199l145 116q282 -222 562 -563q146 186 146 465v73h185v-53q0 -323 -237 -602q176 -209 287 -436l-145 -118q-178 353 -616 811q-153 -211 -153 -678v-108h-185z" />
    <glyph glyph-name="bethebrew" unicode="&#x5d1;" horiz-adv-x="1153" 
d="M37 0l66 197h652v469q0 231 -38.5 276t-233.5 45h-355l66 197h289q282 0 363.5 -87.5t81.5 -393.5v-506h148l-65 -197h-974z" />
    <glyph glyph-name="gimelhebrew" unicode="&#x5d2;" horiz-adv-x="875" 
d="M166 1039l90 170q214 -79 275.5 -144.5t91.5 -246.5l17 -103l41 -256q51 -314 100 -459h-186q-9 36 -11 43l-21 96q-24 109 -34 170q-146 -159 -414 -334l-76 176q289 163 463 335l-39 223q-27 162 -76.5 217t-220.5 113z" />
    <glyph glyph-name="dalethebrew" unicode="&#x5d3;" horiz-adv-x="1026" 
d="M631 0v987h-619l66 197h942l-66 -197h-150v-987h-173z" />
    <glyph glyph-name="hehebrew" unicode="&#x5d4;" horiz-adv-x="1458" 
d="M77 987l66 197h686q282 0 363.5 -87.5t81.5 -393.5v-703h-173v666q0 230 -38.5 275.5t-233.5 45.5h-752zM398 691v-691h-173v691h173z" />
    <glyph glyph-name="vavhebrew" unicode="&#x5d5;" horiz-adv-x="655" 
d="M297 0v716q0 170 -50 227t-235 97l85 169q224 -32 298.5 -125t74.5 -344v-740h-173z" />
    <glyph glyph-name="zayinhebrew" unicode="&#x5d6;" horiz-adv-x="697" 
d="M165 0v565q0 233 101 355l-247 114l72 175l569 -262l-73 -176l-183 86q-67 -64 -67 -260v-597h-172z" />
    <glyph glyph-name="hethebrew" unicode="&#x5d7;" horiz-adv-x="1458" 
d="M225 0v987h-148l66 197h686q282 0 363.5 -87.5t81.5 -393.5v-703h-173v666q0 230 -38.5 275.5t-233.5 45.5h-431v-987h-173z" />
    <glyph glyph-name="tethebrew" unicode="&#x5d8;" horiz-adv-x="1319" 
d="M260 0l-143 1140l182 69l106 -1012q292 15 467 169t175 397q0 261 -255 261q-60 0 -122 -19l63 190q55 14 105 14q182 0 282 -108.5t100 -306.5q0 -221 -138.5 -412.5t-375.5 -298.5q-185 -83 -446 -83z" />
    <glyph glyph-name="yodhebrew" unicode="&#x5d9;" horiz-adv-x="650" 
d="M433 493h-175q53 221 53 343q0 84 -54 124.5t-214 77.5l86 171q198 -29 282.5 -107t84.5 -232q0 -112 -49 -317z" />
    <glyph glyph-name="kaffinalhebrew" unicode="&#x5da;" horiz-adv-x="1081" 
d="M711 -296v1283h-680l66 197h787v-1480h-173z" />
    <glyph glyph-name="kafhebrew" unicode="&#x5db;" horiz-adv-x="1171" 
d="M62 0l66 197h602q121 226 121 431q0 202 -82.5 280.5t-294.5 78.5h-344l66 197h287q176 0 265 -28t154 -105q115 -137 115 -383q0 -220 -116 -471l-64 -197h-775z" />
    <glyph glyph-name="lamedhebrew" unicode="&#x5dc;" horiz-adv-x="1092" 
d="M150 -25l70 210q200 20 340 152q89 83 150 222t61 257q0 98 -76 134.5t-280 36.5h-316v559l173 58v-420h278q220 0 313 -70t93 -236q0 -321 -229 -577.5t-577 -325.5z" />
    <glyph glyph-name="finalmemhebrew" unicode="&#x5dd;" horiz-adv-x="1435" 
d="M226 0v987h-148l66 197h662q282 0 363 -87.5t81 -393.5v-506l-66 -197h-958zM399 197h678v469q0 231 -38 276t-233 45h-407v-790z" />
    <glyph glyph-name="memhebrew" unicode="&#x5de;" horiz-adv-x="1417" 
d="M91 0l155 583q27 103 27 172q0 133 -223 357l151 97q131 -108 214 -279q157 279 412 279q364 0 405 -528l37 -484l-66 -197h-607l66 197h432l-33 431q-29 384 -263 384q-144 0 -233 -124t-174 -443l-118 -445h-182z" />
    <glyph glyph-name="nunfinalhebrew" unicode="&#x5df;" horiz-adv-x="638" 
d="M281 -296v1034q0 134 -33.5 174t-209.5 115l-26 11l85 171q141 -51 240 -119q72 -49 94.5 -111.5t22.5 -214.5v-1060h-173z" />
    <glyph glyph-name="nunhebrew" unicode="&#x5e0;" horiz-adv-x="846" 
d="M37 0l66 197h385v541q0 134 -34 174t-209 115l-26 11l85 171q141 -51 240 -119q72 -49 94.5 -111.5t22.5 -214.5v-567l-66 -197h-558z" />
    <glyph glyph-name="samekhhebrew" unicode="&#x5e1;" horiz-adv-x="1361" 
d="M288 0l-120 987h-149l66 197h684q269 0 363 -63.5t94 -246.5q0 -208 -106 -402.5t-286 -318.5q-200 -137 -546 -153zM437 197q186 0 328 95q116 77 196 228t80 292q0 106 -70.5 140.5t-287.5 34.5h-342z" />
    <glyph glyph-name="ayinhebrew" unicode="&#x5e2;" horiz-adv-x="1230" 
d="M-31 -134l68 202q174 0 366 81l-225 1005l165 55l222 -983q207 121 283 305.5t76 561.5v91h186v-58q0 -640 -324 -934q-335 -304 -817 -326z" />
    <glyph glyph-name="pefinalhebrew" unicode="&#x5e3;" horiz-adv-x="1073" 
d="M716 -296v924q0 154 -36.5 199.5t-195.5 90.5l-241 68l-22 -68q-18 -53 -18 -85q0 -127 144 -127h14l-56 -169q-268 26 -268 231q0 86 70 282l57 159l430 -114q177 -47 235.5 -115.5t58.5 -228.5v-1047h-172z" />
    <glyph glyph-name="pehebrew" unicode="&#x5e4;" horiz-adv-x="1172" 
d="M814 197v431q0 154 -36 199.5t-195 90.5l-242 68l-22 -68q-17 -52 -17 -85q0 -127 143 -127h15l-56 -169q-268 26 -268 231q0 85 70 282l56 159l431 -114q177 -47 235.5 -115.5t58.5 -228.5v-554l-66 -197h-872l66 197h699z" />
    <glyph glyph-name="tsadifinalhebrew" unicode="&#x5e5;" horiz-adv-x="995" 
d="M320 -296v560q0 132 -7.5 171t-51.5 139l-255 580l165 55l283 -642q152 107 220.5 240t68.5 323v54h185v-31q0 -243 -100.5 -413t-334.5 -321v-715h-173z" />
    <glyph glyph-name="tsadihebrew" unicode="&#x5e6;" horiz-adv-x="1177" 
d="M31 0l66 185h639q-194 169 -381.5 454.5t-252.5 509.5l176 60q111 -334 348 -621q138 125 184.5 227.5t46.5 281.5v87h186v-35q0 -395 -322 -673q188 -208 301 -291l-61 -185h-930z" />
    <glyph glyph-name="qofhebrew" unicode="&#x5e7;" horiz-adv-x="1364" 
d="M223 -296v982h172v-982h-172zM74 987l66 197h634q265 0 359.5 -64.5t94.5 -246.5q0 -298 -198 -542t-530 -355l70 209q193 50 333 235.5t140 392.5q0 172 -244 172l-127 2h-598z" />
    <glyph glyph-name="reshhebrew" unicode="&#x5e8;" horiz-adv-x="1044" 
d="M686 0v666q0 230 -38.5 275.5t-232.5 45.5h-359l66 197h293q282 0 363 -88t81 -393v-703h-173z" />
    <glyph glyph-name="shinhebrew" unicode="&#x5e9;" horiz-adv-x="1467" 
d="M260 0l-143 1140l181 69l65 -684q150 17 216.5 133.5t66.5 362.5v163h185v-147q0 -310 -104 -461.5t-346 -195.5l24 -183q778 0 778 856v131h185v-112q0 -467 -230 -729q-150 -171 -339.5 -248.5t-492.5 -92.5z" />
    <glyph glyph-name="tavhebrew" unicode="&#x5ea;" horiz-adv-x="1421" 
d="M29 0l66 197h307q-108 245 -108 642v148h-151l66 197h582q282 0 363.5 -87.5t81.5 -393.5v-703h-173v666q0 231 -38.5 276t-233.5 45h-324v-119q0 -252 24 -382.5t99 -288.5l-66 -197h-495z" />
    <glyph glyph-name="yoddblhebrew" unicode="&#x5f2;" horiz-adv-x="1225" 
d="M433 493h-175q53 221 53 343q0 84 -54 124.5t-214 77.5l86 171q198 -29 282.5 -107t84.5 -232q0 -112 -49 -317zM1007 493h-175q53 221 53 343q0 84 -54 124.5t-214 77.5l86 171q198 -29 282.5 -107t84.5 -232q0 -112 -49 -317z" />
    <glyph glyph-name="gereshhebrew" unicode="&#x5f3;" horiz-adv-x="580" 
d="M123 827l165 493h205l-247 -493h-123z" />
    <glyph glyph-name="Adotbelow" unicode="&#x1ea0;" horiz-adv-x="1413" 
d="M941 566l-252 638l-253 -638h505zM1163 0l-161 410h-627l-163 -410h-195l587 1480h208l578 -1480h-227zM592 -406v198h197v-198h-197z" />
    <glyph glyph-name="adotbelow" unicode="&#x1ea1;" horiz-adv-x="1131" 
d="M757 138q-177 -163 -341 -163q-135 0 -224 84.5t-89 213.5q0 178 149.5 273.5t428.5 95.5h47v131q0 189 -194 189q-156 0 -337 -96v163q199 81 373 81q182 0 268.5 -82t86.5 -255v-492q0 -169 104 -169q13 0 38 4l14 -109q-67 -32 -148 -32q-138 0 -176 163zM728 245v281
l-66 2q-162 0 -262 -61.5t-100 -161.5q0 -71 50 -120t122 -49q123 0 256 109zM453 -451v198h197v-198h-197z" />
    <glyph glyph-name="Ahookabove" unicode="&#x1ea2;" horiz-adv-x="1413" 
d="M941 566l-252 638l-253 -638h505zM1163 0l-161 410h-627l-163 -410h-195l587 1480h208l578 -1480h-227zM637 1604q0 91 43 125l41 31l26 22q47 41 47 71q0 33 -29 49.5t-87 16.5q-52 0 -112 -19v106q72 18 140 18q118 0 177 -36t59 -108q0 -60 -78 -128l-22 -19
q-45 -39 -54 -58t-9 -71h-142z" />
    <glyph glyph-name="ahookabove" unicode="&#x1ea3;" horiz-adv-x="1131" 
d="M757 138q-177 -163 -341 -163q-135 0 -224 84.5t-89 213.5q0 178 149.5 273.5t428.5 95.5h47v131q0 189 -194 189q-156 0 -337 -96v163q199 81 373 81q182 0 268.5 -82t86.5 -255v-492q0 -169 104 -169q13 0 38 4l14 -109q-67 -32 -148 -32q-138 0 -176 163zM728 245v281
l-66 2q-162 0 -262 -61.5t-100 -161.5q0 -71 50 -120t122 -49q123 0 256 109zM479 1283q0 91 43 125l41 31l26 22q47 41 47 71q0 33 -29 49.5t-87 16.5q-52 0 -112 -19v106q72 18 140 18q118 0 177 -36t59 -108q0 -60 -78 -128l-22 -19q-45 -39 -54 -58t-9 -71h-142z" />
    <glyph glyph-name="Acircumflexacute" unicode="&#x1ea4;" horiz-adv-x="1413" 
d="M941 566l-252 638l-253 -638h505zM1163 0l-161 410h-627l-163 -410h-195l587 1480h208l578 -1480h-227zM359 1603l241 321h218l241 -321h-148l-201 202h-2l-201 -202h-148zM1015 1727l241 321h228l-321 -321h-148z" />
    <glyph glyph-name="acircumflexacute" unicode="&#x1ea5;" horiz-adv-x="1131" 
d="M757 138q-177 -163 -341 -163q-135 0 -224 84.5t-89 213.5q0 178 149.5 273.5t428.5 95.5h47v131q0 189 -194 189q-156 0 -337 -96v163q199 81 373 81q182 0 268.5 -82t86.5 -255v-492q0 -169 104 -169q13 0 38 4l14 -109q-67 -32 -148 -32q-138 0 -176 163zM728 245v281
l-66 2q-162 0 -262 -61.5t-100 -161.5q0 -71 50 -120t122 -49q123 0 256 109zM224 1283l241 321h218l241 -321h-148l-201 202h-2l-201 -202h-148zM747 1579l241 321h228l-321 -321h-148z" />
    <glyph glyph-name="Acircumflexgrave" unicode="&#x1ea6;" horiz-adv-x="1413" 
d="M941 566l-252 638l-253 -638h505zM1163 0l-161 410h-627l-163 -410h-195l587 1480h208l578 -1480h-227zM359 1603l241 321h218l241 -321h-148l-201 202h-2l-201 -202h-148zM1312 1727h-148l-321 321h228z" />
    <glyph glyph-name="acircumflexgrave" unicode="&#x1ea7;" horiz-adv-x="1131" 
d="M757 138q-177 -163 -341 -163q-135 0 -224 84.5t-89 213.5q0 178 149.5 273.5t428.5 95.5h47v131q0 189 -194 189q-156 0 -337 -96v163q199 81 373 81q182 0 268.5 -82t86.5 -255v-492q0 -169 104 -169q13 0 38 4l14 -109q-67 -32 -148 -32q-138 0 -176 163zM728 245v281
l-66 2q-162 0 -262 -61.5t-100 -161.5q0 -71 50 -120t122 -49q123 0 256 109zM220 1283l241 321h218l241 -321h-148l-201 202h-2l-201 -202h-148zM992 1579h-148l-321 321h228z" />
    <glyph glyph-name="Acircumflexhookabove" unicode="&#x1ea8;" horiz-adv-x="1413" 
d="M941 566l-252 638l-253 -638h505zM1163 0l-161 410h-627l-163 -410h-195l587 1480h208l578 -1480h-227zM359 1603l241 321h218l241 -321h-148l-201 202h-2l-201 -202h-148zM1095 1631q0 91 43 125l41 31l26 22q47 41 47 71q0 33 -29 49.5t-87 16.5q-52 0 -112 -19v106
q72 18 140 18q118 0 177 -36t59 -108q0 -60 -78 -128l-22 -19q-45 -39 -54 -58t-9 -71h-142z" />
    <glyph glyph-name="acircumflexhookabove" unicode="&#x1ea9;" horiz-adv-x="1131" 
d="M757 138q-177 -163 -341 -163q-135 0 -224 84.5t-89 213.5q0 178 149.5 273.5t428.5 95.5h47v131q0 189 -194 189q-156 0 -337 -96v163q199 81 373 81q182 0 268.5 -82t86.5 -255v-492q0 -169 104 -169q13 0 38 4l14 -109q-67 -32 -148 -32q-138 0 -176 163zM728 245v281
l-66 2q-162 0 -262 -61.5t-100 -161.5q0 -71 50 -120t122 -49q123 0 256 109zM224 1283l241 321h218l241 -321h-148l-201 202h-2l-201 -202h-148zM776 1603q0 91 43 125l41 31l26 22q47 41 47 71q0 33 -29 49.5t-87 16.5q-52 0 -112 -19v106q72 18 140 18q118 0 177 -36
t59 -108q0 -60 -78 -128l-22 -19q-45 -39 -54 -58t-9 -71h-142z" />
    <glyph glyph-name="Acircumflextilde" unicode="&#x1eaa;" horiz-adv-x="1413" 
d="M17 0l587 1308h208l578 -1308h-227l-151 342h-647l-153 -342h-195zM436 498h507l-252 572zM355 1355l241 321h218l241 -321h-148l-201 202h-2l-201 -202h-148zM376 1815q5 117 51.5 175.5t133.5 58.5q73 0 135 -38l60 -37q56 -35 86 -35q34 0 53.5 27.5t23.5 82.5h123
q-6 -117 -52 -175.5t-133 -58.5q-73 0 -135 39l-60 37q-56 34 -86 34q-34 0 -53.5 -27.5t-23.5 -82.5h-123z" />
    <glyph glyph-name="acircumflextilde" unicode="&#x1eab;" horiz-adv-x="1131" 
d="M757 138q-177 -163 -341 -163q-135 0 -224 84.5t-89 213.5q0 178 149.5 273.5t428.5 95.5h47v131q0 189 -194 189q-156 0 -337 -96v163q199 81 373 81q182 0 268.5 -82t86.5 -255v-492q0 -169 104 -169q13 0 38 4l14 -109q-67 -32 -148 -32q-138 0 -176 163zM728 245v281
l-66 2q-162 0 -262 -61.5t-100 -161.5q0 -71 50 -120t122 -49q123 0 256 109zM224 1283l241 321h218l241 -321h-148l-201 202h-2l-201 -202h-148zM241 1727q5 117 51.5 175.5t133.5 58.5q73 0 135 -38l60 -37q56 -35 86 -35q34 0 53.5 27.5t23.5 82.5h123
q-6 -117 -52 -175.5t-133 -58.5q-73 0 -135 39l-60 37q-56 34 -86 34q-34 0 -53.5 -27.5t-23.5 -82.5h-123z" />
    <glyph glyph-name="Acircumflexdotbelow" unicode="&#x1eac;" horiz-adv-x="1413" 
d="M941 566l-252 638l-253 -638h505zM1163 0l-161 410h-627l-163 -410h-195l587 1480h208l578 -1480h-227zM359 1603l241 321h218l241 -321h-148l-201 202h-2l-201 -202h-148zM590 -406v198h197v-198h-197z" />
    <glyph glyph-name="acircumflexdotbelow" unicode="&#x1ead;" horiz-adv-x="1131" 
d="M757 138q-177 -163 -341 -163q-135 0 -224 84.5t-89 213.5q0 178 149.5 273.5t428.5 95.5h47v131q0 189 -194 189q-156 0 -337 -96v163q199 81 373 81q182 0 268.5 -82t86.5 -255v-492q0 -169 104 -169q13 0 38 4l14 -109q-67 -32 -148 -32q-138 0 -176 163zM728 245v281
l-66 2q-162 0 -262 -61.5t-100 -161.5q0 -71 50 -120t122 -49q123 0 256 109zM224 1283l241 321h218l241 -321h-148l-201 202h-2l-201 -202h-148zM474 -459v198h197v-198h-197z" />
    <glyph glyph-name="Abreveacute" unicode="&#x1eae;" horiz-adv-x="1413" 
d="M17 0l587 1308h208l578 -1308h-227l-151 342h-647l-153 -342h-195zM436 498h507l-252 572zM376 1703h123q16 -87 68.5 -130t141.5 -43t141.5 43t68.5 130h123q-15 -146 -106 -233.5t-227 -87.5t-226.5 87.5t-106.5 233.5zM647 1727l241 321h228l-321 -321h-148z" />
    <glyph glyph-name="abreveacute" unicode="&#x1eaf;" horiz-adv-x="1131" 
d="M757 138q-177 -163 -341 -163q-135 0 -224 84.5t-89 213.5q0 178 149.5 273.5t428.5 95.5h47v131q0 189 -194 189q-156 0 -337 -96v163q199 81 373 81q182 0 268.5 -82t86.5 -255v-492q0 -169 104 -169q13 0 38 4l14 -109q-67 -32 -148 -32q-138 0 -176 163zM728 245v281
l-66 2q-162 0 -262 -61.5t-100 -161.5q0 -71 50 -120t122 -49q123 0 256 109zM257 1604h123q16 -87 68.5 -130t141.5 -43t141.5 43t68.5 130h123q-15 -146 -106 -233.5t-227 -87.5t-226.5 87.5t-106.5 233.5zM503 1727l241 321h228l-321 -321h-148z" />
    <glyph glyph-name="Abrevegrave" unicode="&#x1eb0;" horiz-adv-x="1413" 
d="M17 0l587 1308h208l578 -1308h-227l-151 342h-647l-153 -342h-195zM436 498h507l-252 572zM376 1707h123q16 -87 68.5 -130t141.5 -43t141.5 43t68.5 130h123q-15 -146 -106 -233.5t-227 -87.5t-226.5 87.5t-106.5 233.5zM801 1727h-148l-321 321h228z" />
    <glyph glyph-name="abrevegrave" unicode="&#x1eb1;" horiz-adv-x="1131" 
d="M757 138q-177 -163 -341 -163q-135 0 -224 84.5t-89 213.5q0 178 149.5 273.5t428.5 95.5h47v131q0 189 -194 189q-156 0 -337 -96v163q199 81 373 81q182 0 268.5 -82t86.5 -255v-492q0 -169 104 -169q13 0 38 4l14 -109q-67 -32 -148 -32q-138 0 -176 163zM728 245v281
l-66 2q-162 0 -262 -61.5t-100 -161.5q0 -71 50 -120t122 -49q123 0 256 109zM257 1604h123q16 -87 68.5 -130t141.5 -43t141.5 43t68.5 130h123q-15 -146 -106 -233.5t-227 -87.5t-226.5 87.5t-106.5 233.5zM689 1727h-148l-321 321h228z" />
    <glyph glyph-name="Abrevehookabove" unicode="&#x1eb2;" horiz-adv-x="1413" 
d="M17 0l587 1308h208l578 -1308h-227l-151 342h-647l-153 -342h-195zM436 498h507l-252 572zM372 1676h123q16 -87 68.5 -130t141.5 -43t141.5 43t68.5 130h123q-15 -146 -106 -233.5t-227 -87.5t-226.5 87.5t-106.5 233.5zM636 1627q0 91 43 125l41 31l26 22q47 41 47 71
q0 33 -29 49.5t-87 16.5q-52 0 -112 -19v106q72 18 140 18q118 0 177 -36t59 -108q0 -60 -78 -128l-22 -19q-45 -39 -54 -58t-9 -71h-142z" />
    <glyph glyph-name="abrevehookabove" unicode="&#x1eb3;" horiz-adv-x="1131" 
d="M757 138q-177 -163 -341 -163q-135 0 -224 84.5t-89 213.5q0 178 149.5 273.5t428.5 95.5h47v131q0 189 -194 189q-156 0 -337 -96v163q199 81 373 81q182 0 268.5 -82t86.5 -255v-492q0 -169 104 -169q13 0 38 4l14 -109q-67 -32 -148 -32q-138 0 -176 163zM728 245v281
l-66 2q-162 0 -262 -61.5t-100 -161.5q0 -71 50 -120t122 -49q123 0 256 109zM261 1604h123q16 -87 68.5 -130t141.5 -43t141.5 43t68.5 130h123q-15 -146 -106 -233.5t-227 -87.5t-226.5 87.5t-106.5 233.5zM520 1631q0 91 43 125l41 31l26 22q47 41 47 71q0 33 -29 49.5
t-87 16.5q-52 0 -112 -19v106q72 18 140 18q118 0 177 -36t59 -108q0 -60 -78 -128l-22 -19q-45 -39 -54 -58t-9 -71h-142z" />
    <glyph glyph-name="Abrevetilde" unicode="&#x1eb4;" horiz-adv-x="1413" 
d="M17 0l587 1308h208l578 -1308h-227l-151 342h-647l-153 -342h-195zM436 498h507l-252 572zM376 1728h123q16 -87 68.5 -130t141.5 -43t141.5 43t68.5 130h123q-15 -146 -106 -233.5t-227 -87.5t-226.5 87.5t-106.5 233.5zM376 1815q5 117 51.5 175.5t133.5 58.5
q73 0 135 -38l60 -37q56 -35 86 -35q34 0 53.5 27.5t23.5 82.5h123q-6 -117 -52 -175.5t-133 -58.5q-73 0 -135 39l-60 37q-56 34 -86 34q-34 0 -53.5 -27.5t-23.5 -82.5h-123z" />
    <glyph glyph-name="abrevetilde" unicode="&#x1eb5;" horiz-adv-x="1131" 
d="M757 138q-177 -163 -341 -163q-135 0 -224 84.5t-89 213.5q0 178 149.5 273.5t428.5 95.5h47v131q0 189 -194 189q-156 0 -337 -96v163q199 81 373 81q182 0 268.5 -82t86.5 -255v-492q0 -169 104 -169q13 0 38 4l14 -109q-67 -32 -148 -32q-138 0 -176 163zM728 245v281
l-66 2q-162 0 -262 -61.5t-100 -161.5q0 -71 50 -120t122 -49q123 0 256 109zM257 1604h123q16 -87 68.5 -130t141.5 -43t141.5 43t68.5 130h123q-15 -146 -106 -233.5t-227 -87.5t-226.5 87.5t-106.5 233.5zM265 1727q5 117 51.5 175.5t133.5 58.5q73 0 135 -38l60 -37
q56 -35 86 -35q34 0 53.5 27.5t23.5 82.5h123q-6 -117 -52 -175.5t-133 -58.5q-73 0 -135 39l-60 37q-56 34 -86 34q-34 0 -53.5 -27.5t-23.5 -82.5h-123z" />
    <glyph glyph-name="Abrevedotbelow" unicode="&#x1eb6;" horiz-adv-x="1413" 
d="M941 566l-252 638l-253 -638h505zM1163 0l-161 410h-627l-163 -410h-195l587 1480h208l578 -1480h-227zM372 1924h123q16 -87 68.5 -130t141.5 -43t141.5 43t68.5 130h123q-15 -146 -106 -233.5t-227 -87.5t-226.5 87.5t-106.5 233.5zM590 -415v198h197v-198h-197z" />
    <glyph glyph-name="abrevedotbelow" unicode="&#x1eb7;" horiz-adv-x="1131" 
d="M757 138q-177 -163 -341 -163q-135 0 -224 84.5t-89 213.5q0 178 149.5 273.5t428.5 95.5h47v131q0 189 -194 189q-156 0 -337 -96v163q199 81 373 81q182 0 268.5 -82t86.5 -255v-492q0 -169 104 -169q13 0 38 4l14 -109q-67 -32 -148 -32q-138 0 -176 163zM728 245v281
l-66 2q-162 0 -262 -61.5t-100 -161.5q0 -71 50 -120t122 -49q123 0 256 109zM265 1604h123q16 -87 68.5 -130t141.5 -43t141.5 43t68.5 130h123q-15 -146 -106 -233.5t-227 -87.5t-226.5 87.5t-106.5 233.5zM488 -459v198h197v-198h-197z" />
    <glyph glyph-name="Edotbelow" unicode="&#x1eb8;" horiz-adv-x="1110" 
d="M191 0v1480h827v-157h-617v-475h517v-155h-517v-536h660v-157h-870zM559 -415v198h197v-198h-197z" />
    <glyph glyph-name="edotbelow" unicode="&#x1eb9;" horiz-adv-x="1141" 
d="M993 35q-198 -60 -339 -60q-240 0 -391.5 159.5t-151.5 413.5q0 247 133.5 405t341.5 158q197 0 304.5 -140t107.5 -398l-1 -61h-685q43 -387 379 -387q123 0 302 66v-156zM321 660h479q0 303 -226 303q-227 0 -253 -303zM502 -424v198h197v-198h-197z" />
    <glyph glyph-name="Ehookabove" unicode="&#x1eba;" horiz-adv-x="1110" 
d="M191 0v1480h827v-157h-617v-475h517v-155h-517v-536h660v-157h-870zM556 1604q0 91 43 125l41 31l26 22q47 41 47 71q0 33 -29 49.5t-87 16.5q-52 0 -112 -19v106q72 18 140 18q118 0 177 -36t59 -108q0 -60 -78 -128l-22 -19q-45 -39 -54 -58t-9 -71h-142z" />
    <glyph glyph-name="ehookabove" unicode="&#x1ebb;" horiz-adv-x="1141" 
d="M993 35q-198 -60 -339 -60q-240 0 -391.5 159.5t-151.5 413.5q0 247 133.5 405t341.5 158q197 0 304.5 -140t107.5 -398l-1 -61h-685q43 -387 379 -387q123 0 302 66v-156zM321 660h479q0 303 -226 303q-227 0 -253 -303zM498 1283q0 91 43 125l41 31l26 22q47 41 47 71
q0 33 -29 49.5t-87 16.5q-52 0 -112 -19v106q72 18 140 18q118 0 177 -36t59 -108q0 -60 -78 -128l-22 -19q-45 -39 -54 -58t-9 -71h-142z" />
    <glyph glyph-name="Etilde" unicode="&#x1ebc;" horiz-adv-x="1110" 
d="M191 0v1480h827v-157h-617v-475h517v-155h-517v-536h660v-157h-870zM295 1604q5 117 51.5 175.5t133.5 58.5q73 0 135 -38l60 -37q56 -35 86 -35q34 0 53.5 27.5t23.5 82.5h123q-6 -117 -52 -175.5t-133 -58.5q-73 0 -135 39l-60 37q-56 34 -86 34q-34 0 -53.5 -27.5
t-23.5 -82.5h-123z" />
    <glyph glyph-name="etilde" unicode="&#x1ebd;" horiz-adv-x="1141" 
d="M993 35q-198 -60 -339 -60q-240 0 -391.5 159.5t-151.5 413.5q0 247 133.5 405t341.5 158q197 0 304.5 -140t107.5 -398l-1 -61h-685q43 -387 379 -387q123 0 302 66v-156zM321 660h479q0 303 -226 303q-227 0 -253 -303zM265 1283q5 117 51.5 175.5t133.5 58.5
q73 0 135 -38l60 -37q56 -35 86 -35q34 0 53.5 27.5t23.5 82.5h123q-6 -117 -52 -175.5t-133 -58.5q-73 0 -135 39l-60 37q-56 34 -86 34q-34 0 -53.5 -27.5t-23.5 -82.5h-123z" />
    <glyph glyph-name="Ecircumflexacute" unicode="&#x1ebe;" horiz-adv-x="1110" 
d="M191 0v1480h827v-157h-617v-475h517v-155h-517v-536h660v-157h-870zM268 1603l241 321h218l241 -321h-148l-201 202h-2l-201 -202h-148zM923 1727l241 321h228l-321 -321h-148z" />
    <glyph glyph-name="ecircumflexacute" unicode="&#x1ebf;" horiz-adv-x="1141" 
d="M993 35q-198 -60 -339 -60q-240 0 -391.5 159.5t-151.5 413.5q0 247 133.5 405t341.5 158q197 0 304.5 -140t107.5 -398l-1 -61h-685q43 -387 379 -387q123 0 302 66v-156zM321 660h479q0 303 -226 303q-227 0 -253 -303zM240 1283l241 321h218l241 -321h-148l-201 202
h-2l-201 -202h-148zM763 1579l241 321h228l-321 -321h-148z" />
    <glyph glyph-name="Ecircumflexgrave" unicode="&#x1ec0;" horiz-adv-x="1110" 
d="M191 0v1480h827v-157h-617v-475h517v-155h-517v-536h660v-157h-870zM268 1603l241 321h218l241 -321h-148l-201 202h-2l-201 -202h-148zM1220 1727h-148l-321 321h228z" />
    <glyph glyph-name="ecircumflexgrave" unicode="&#x1ec1;" horiz-adv-x="1141" 
d="M993 35q-198 -60 -339 -60q-240 0 -391.5 159.5t-151.5 413.5q0 247 133.5 405t341.5 158q197 0 304.5 -140t107.5 -398l-1 -61h-685q43 -387 379 -387q123 0 302 66v-156zM321 660h479q0 303 -226 303q-227 0 -253 -303zM240 1283l241 321h218l241 -321h-148l-201 202
h-2l-201 -202h-148zM1012 1579h-148l-321 321h228z" />
    <glyph glyph-name="Ecircumflexhookabove" unicode="&#x1ec2;" horiz-adv-x="1110" 
d="M191 0v1480h827v-157h-617v-475h517v-155h-517v-536h660v-157h-870zM268 1603l241 321h218l241 -321h-148l-201 202h-2l-201 -202h-148zM976 1627q0 91 43 125l41 31l26 22q47 41 47 71q0 33 -29 49.5t-87 16.5q-52 0 -112 -19v106q72 18 140 18q118 0 177 -36t59 -108
q0 -60 -78 -128l-22 -19q-45 -39 -54 -58t-9 -71h-142z" />
    <glyph glyph-name="ecircumflexhookabove" unicode="&#x1ec3;" horiz-adv-x="1141" 
d="M993 35q-198 -60 -339 -60q-240 0 -391.5 159.5t-151.5 413.5q0 247 133.5 405t341.5 158q197 0 304.5 -140t107.5 -398l-1 -61h-685q43 -387 379 -387q123 0 302 66v-156zM321 660h479q0 303 -226 303q-227 0 -253 -303zM240 1283l241 321h218l241 -321h-148l-201 202
h-2l-201 -202h-148zM788 1599q0 91 43 125l41 31l26 22q47 41 47 71q0 33 -29 49.5t-87 16.5q-52 0 -112 -19v106q72 18 140 18q118 0 177 -36t59 -108q0 -60 -78 -128l-22 -19q-45 -39 -54 -58t-9 -71h-142z" />
    <glyph glyph-name="Ecircumflextilde" unicode="&#x1ec4;" horiz-adv-x="1110" 
d="M191 0v1308h827v-158h-617v-409h517v-155h-517v-429h660v-157h-870zM268 1395l241 321h218l241 -321h-148l-201 202h-2l-201 -202h-148zM285 1815q5 117 51.5 175.5t133.5 58.5q73 0 135 -38l60 -37q56 -35 86 -35q34 0 53.5 27.5t23.5 82.5h123q-6 -117 -52 -175.5
t-133 -58.5q-73 0 -135 39l-60 37q-56 34 -86 34q-34 0 -53.5 -27.5t-23.5 -82.5h-123z" />
    <glyph glyph-name="ecircumflextilde" unicode="&#x1ec5;" horiz-adv-x="1141" 
d="M993 35q-198 -60 -339 -60q-240 0 -391.5 159.5t-151.5 413.5q0 247 133.5 405t341.5 158q197 0 304.5 -140t107.5 -398l-1 -61h-685q43 -387 379 -387q123 0 302 66v-156zM321 660h479q0 303 -226 303q-227 0 -253 -303zM240 1283l241 321h218l241 -321h-148l-201 202
h-2l-201 -202h-148zM257 1727q5 117 51.5 175.5t133.5 58.5q73 0 135 -38l60 -37q56 -35 86 -35q34 0 53.5 27.5t23.5 82.5h123q-6 -117 -52 -175.5t-133 -58.5q-73 0 -135 39l-60 37q-56 34 -86 34q-34 0 -53.5 -27.5t-23.5 -82.5h-123z" />
    <glyph glyph-name="Ecircumflexdotbelow" unicode="&#x1ec6;" horiz-adv-x="1110" 
d="M191 0v1480h827v-157h-617v-475h517v-155h-517v-536h660v-157h-870zM268 1603l241 321h218l241 -321h-148l-201 202h-2l-201 -202h-148zM550 -415v198h197v-198h-197z" />
    <glyph glyph-name="ecircumflexdotbelow" unicode="&#x1ec7;" horiz-adv-x="1141" 
d="M993 35q-198 -60 -339 -60q-240 0 -391.5 159.5t-151.5 413.5q0 247 133.5 405t341.5 158q197 0 304.5 -140t107.5 -398l-1 -61h-685q43 -387 379 -387q123 0 302 66v-156zM321 660h479q0 303 -226 303q-227 0 -253 -303zM240 1283l241 321h218l241 -321h-148l-201 202
h-2l-201 -202h-148zM494 -433v198h197v-198h-197z" />
    <glyph glyph-name="Ihookabove" unicode="&#x1ec8;" horiz-adv-x="590" 
d="M190 0v1480h210v-1480h-210zM224 1604q0 91 43 125l41 31l26 22q47 41 47 71q0 33 -29 49.5t-87 16.5q-52 0 -112 -19v106q72 18 140 18q118 0 177 -36t59 -108q0 -60 -78 -128l-22 -19q-45 -39 -54 -58t-9 -71h-142z" />
    <glyph glyph-name="ihookabove" unicode="&#x1ec9;" horiz-adv-x="592" 
d="M197 0v1086h197v-1086h-197zM225 1283q0 91 43 125l41 31l26 22q47 41 47 71q0 33 -29 49.5t-87 16.5q-52 0 -112 -19v106q72 18 140 18q118 0 177 -36t59 -108q0 -60 -78 -128l-22 -19q-45 -39 -54 -58t-9 -71h-142z" />
    <glyph glyph-name="Idotbelow" unicode="&#x1eca;" horiz-adv-x="590" 
d="M190 0v1480h210v-1480h-210zM202 -415v198h197v-198h-197z" />
    <glyph glyph-name="idotbelow" unicode="&#x1ecb;" horiz-adv-x="592" 
d="M197 0v1086h197v-1086h-197zM197 1283v197h197v-197h-197zM194 -397v198h197v-198h-197z" />
    <glyph glyph-name="Odotbelow" unicode="&#x1ecc;" horiz-adv-x="1591" 
d="M787 -37q-308 0 -495.5 213.5t-187.5 564.5q0 353 188.5 564.5t503.5 211.5q314 0 503 -211t189 -563q0 -359 -189 -569.5t-512 -210.5zM790 120q227 0 351 163.5t124 461.5q0 289 -124.5 452t-344.5 163q-221 0 -345 -163.5t-124 -454.5q0 -290 123 -456t340 -166z
M691 -450v198h197v-198h-197z" />
    <glyph glyph-name="odotbelow" unicode="&#x1ecd;" horiz-adv-x="1258" 
d="M622 -25q-233 0 -372 154.5t-139 413.5q0 262 139.5 414.5t378.5 152.5t378.5 -152.5t139.5 -412.5q0 -266 -140 -418t-385 -152zM625 123q313 0 313 422q0 417 -309 417q-308 0 -308 -419q0 -420 304 -420zM532 -424v198h197v-198h-197z" />
    <glyph glyph-name="Ohookabove" unicode="&#x1ece;" horiz-adv-x="1591" 
d="M787 -37q-308 0 -495.5 213.5t-187.5 564.5q0 353 188.5 564.5t503.5 211.5q314 0 503 -211t189 -563q0 -359 -189 -569.5t-512 -210.5zM790 120q227 0 351 163.5t124 461.5q0 289 -124.5 452t-344.5 163q-221 0 -345 -163.5t-124 -454.5q0 -290 123 -456t340 -166z
M725 1604q0 91 43 125l41 31l26 22q47 41 47 71q0 33 -29 49.5t-87 16.5q-52 0 -112 -19v106q72 18 140 18q118 0 177 -36t59 -108q0 -60 -78 -128l-22 -19q-45 -39 -54 -58t-9 -71h-142z" />
    <glyph glyph-name="ohookabove" unicode="&#x1ecf;" horiz-adv-x="1258" 
d="M622 -25q-233 0 -372 154.5t-139 413.5q0 262 139.5 414.5t378.5 152.5t378.5 -152.5t139.5 -412.5q0 -266 -140 -418t-385 -152zM625 123q313 0 313 422q0 417 -309 417q-308 0 -308 -419q0 -420 304 -420zM558 1283q0 91 43 125l41 31l26 22q47 41 47 71q0 33 -29 49.5
t-87 16.5q-52 0 -112 -19v106q72 18 140 18q118 0 177 -36t59 -108q0 -60 -78 -128l-22 -19q-45 -39 -54 -58t-9 -71h-142z" />
    <glyph glyph-name="Ocircumflexacute" unicode="&#x1ed0;" horiz-adv-x="1591" 
d="M787 -37q-308 0 -495.5 213.5t-187.5 564.5q0 353 188.5 564.5t503.5 211.5q314 0 503 -211t189 -563q0 -359 -189 -569.5t-512 -210.5zM790 120q227 0 351 163.5t124 461.5q0 289 -124.5 452t-344.5 163q-221 0 -345 -163.5t-124 -454.5q0 -290 123 -456t340 -166z
M443 1603l241 321h218l241 -321h-148l-201 202h-2l-201 -202h-148zM1107 1727l241 321h228l-321 -321h-148z" />
    <glyph glyph-name="ocircumflexacute" unicode="&#x1ed1;" horiz-adv-x="1258" 
d="M622 -25q-233 0 -372 154.5t-139 413.5q0 262 139.5 414.5t378.5 152.5t378.5 -152.5t139.5 -412.5q0 -266 -140 -418t-385 -152zM625 123q313 0 313 422q0 417 -309 417q-308 0 -308 -419q0 -420 304 -420zM279 1283l241 321h218l241 -321h-148l-201 202h-2l-201 -202
h-148zM807 1579l241 321h228l-321 -321h-148z" />
    <glyph glyph-name="Ocircumflexgrave" unicode="&#x1ed2;" horiz-adv-x="1591" 
d="M787 -37q-308 0 -495.5 213.5t-187.5 564.5q0 353 188.5 564.5t503.5 211.5q314 0 503 -211t189 -563q0 -359 -189 -569.5t-512 -210.5zM790 120q227 0 351 163.5t124 461.5q0 289 -124.5 452t-344.5 163q-221 0 -345 -163.5t-124 -454.5q0 -290 123 -456t340 -166z
M447 1603l241 321h218l241 -321h-148l-201 202h-2l-201 -202h-148zM1400 1727h-148l-321 321h228z" />
    <glyph glyph-name="ocircumflexgrave" unicode="&#x1ed3;" horiz-adv-x="1258" 
d="M622 -25q-233 0 -372 154.5t-139 413.5q0 262 139.5 414.5t378.5 152.5t378.5 -152.5t139.5 -412.5q0 -266 -140 -418t-385 -152zM625 123q313 0 313 422q0 417 -309 417q-308 0 -308 -419q0 -420 304 -420zM279 1283l241 321h218l241 -321h-148l-201 202h-2l-201 -202
h-148zM1052 1579h-148l-321 321h228z" />
    <glyph glyph-name="Ocircumflexhookabove" unicode="&#x1ed4;" horiz-adv-x="1591" 
d="M787 -37q-308 0 -495.5 213.5t-187.5 564.5q0 353 188.5 564.5t503.5 211.5q314 0 503 -211t189 -563q0 -359 -189 -569.5t-512 -210.5zM790 120q227 0 351 163.5t124 461.5q0 289 -124.5 452t-344.5 163q-221 0 -345 -163.5t-124 -454.5q0 -290 123 -456t340 -166z
M447 1603l241 321h218l241 -321h-148l-201 202h-2l-201 -202h-148zM1144 1627q0 91 43 125l41 31l26 22q47 41 47 71q0 33 -29 49.5t-87 16.5q-52 0 -112 -19v106q72 18 140 18q118 0 177 -36t59 -108q0 -60 -78 -128l-22 -19q-45 -39 -54 -58t-9 -71h-142z" />
    <glyph glyph-name="ocircumflexhookabove" unicode="&#x1ed5;" horiz-adv-x="1258" 
d="M622 -25q-233 0 -372 154.5t-139 413.5q0 262 139.5 414.5t378.5 152.5t378.5 -152.5t139.5 -412.5q0 -266 -140 -418t-385 -152zM625 123q313 0 313 422q0 417 -309 417q-308 0 -308 -419q0 -420 304 -420zM279 1283l241 321h218l241 -321h-148l-201 202h-2l-201 -202
h-148zM836 1603q0 91 43 125l41 31l26 22q47 41 47 71q0 33 -29 49.5t-87 16.5q-52 0 -112 -19v106q72 18 140 18q118 0 177 -36t59 -108q0 -60 -78 -128l-22 -19q-45 -39 -54 -58t-9 -71h-142z" />
    <glyph glyph-name="Ocircumflextilde" unicode="&#x1ed6;" horiz-adv-x="1591" 
d="M787 -37q-301 0 -492 193.5t-191 497.5q0 307 192 499t500 192q307 0 499.5 -191.5t192.5 -497.5q0 -312 -192.5 -502.5t-508.5 -190.5zM789 120q222 0 349 143t127 393q0 244 -127 387.5t-342 143.5q-216 0 -342.5 -143.5t-126.5 -389.5q0 -243 126 -388.5t336 -145.5z
M443 1407l241 321h218l241 -321h-148l-201 202h-2l-201 -202h-148zM464 1815q5 117 51.5 175.5t133.5 58.5q73 0 135 -38l60 -37q56 -35 86 -35q34 0 53.5 27.5t23.5 82.5h123q-6 -117 -52 -175.5t-133 -58.5q-73 0 -135 39l-60 37q-56 34 -86 34q-34 0 -53.5 -27.5
t-23.5 -82.5h-123z" />
    <glyph glyph-name="ocircumflextilde" unicode="&#x1ed7;" horiz-adv-x="1258" 
d="M622 -25q-233 0 -372 154.5t-139 413.5q0 262 139.5 414.5t378.5 152.5t378.5 -152.5t139.5 -412.5q0 -266 -140 -418t-385 -152zM625 123q313 0 313 422q0 417 -309 417q-308 0 -308 -419q0 -420 304 -420zM279 1283l241 321h218l241 -321h-148l-201 202h-2l-201 -202
h-148zM296 1727q5 117 51.5 175.5t133.5 58.5q73 0 135 -38l60 -37q56 -35 86 -35q34 0 53.5 27.5t23.5 82.5h123q-6 -117 -52 -175.5t-133 -58.5q-73 0 -135 39l-60 37q-56 34 -86 34q-34 0 -53.5 -27.5t-23.5 -82.5h-123z" />
    <glyph glyph-name="Ocircumflexdotbelow" unicode="&#x1ed8;" horiz-adv-x="1591" 
d="M787 -37q-308 0 -495.5 213.5t-187.5 564.5q0 353 188.5 564.5t503.5 211.5q314 0 503 -211t189 -563q0 -359 -189 -569.5t-512 -210.5zM790 120q227 0 351 163.5t124 461.5q0 289 -124.5 452t-344.5 163q-221 0 -345 -163.5t-124 -454.5q0 -290 123 -456t340 -166z
M447 1603l241 321h218l241 -321h-148l-201 202h-2l-201 -202h-148zM703 -459v198h197v-198h-197z" />
    <glyph glyph-name="ocircumflexdotbelow" unicode="&#x1ed9;" horiz-adv-x="1258" 
d="M622 -25q-233 0 -372 154.5t-139 413.5q0 262 139.5 414.5t378.5 152.5t378.5 -152.5t139.5 -412.5q0 -266 -140 -418t-385 -152zM625 123q313 0 313 422q0 417 -309 417q-308 0 -308 -419q0 -420 304 -420zM279 1283l241 321h218l241 -321h-148l-201 202h-2l-201 -202
h-148zM534 -433v198h197v-198h-197z" />
    <glyph glyph-name="Ohornacute" unicode="&#x1eda;" horiz-adv-x="1647" 
d="M1393 1169q95 -194 95 -432q0 -351 -189 -562.5t-503 -211.5q-315 0 -503.5 211.5t-188.5 565.5t188.5 565.5t503.5 211.5q348 0 543 -259q81 17 114.5 67t33.5 155v99h148v-49q0 -294 -242 -361zM790 120q227 0 351 163.5t124 461.5q0 289 -124.5 452t-344.5 163
q-221 0 -345 -163.5t-124 -454.5q0 -290 123 -456t340 -166zM1591 0zM648 1604l241 321h228l-321 -321h-148z" />
    <glyph glyph-name="ohornacute" unicode="&#x1edb;" horiz-adv-x="1382" 
d="M1112 771q35 -111 35 -226q0 -263 -139 -416.5t-379 -153.5q-239 0 -378.5 153t-139.5 415t139.5 414.5t378.5 152.5q307 0 443 -246q82 15 115.5 65.5t33.5 156.5v98h148v-49q0 -304 -257 -364zM625 123q313 0 313 422q0 417 -309 417q-308 0 -308 -419
q0 -199 80 -309.5t224 -110.5zM1258 0zM481 1283l241 321h228l-321 -321h-148z" />
    <glyph glyph-name="Ohorngrave" unicode="&#x1edc;" horiz-adv-x="1647" 
d="M1393 1169q95 -194 95 -432q0 -351 -189 -562.5t-503 -211.5q-315 0 -503.5 211.5t-188.5 565.5t188.5 565.5t503.5 211.5q348 0 543 -259q81 17 114.5 67t33.5 155v99h148v-49q0 -294 -242 -361zM790 120q227 0 351 163.5t124 461.5q0 289 -124.5 452t-344.5 163
q-221 0 -345 -163.5t-124 -454.5q0 -290 123 -456t340 -166zM1591 0zM944 1604h-148l-321 321h228z" />
    <glyph glyph-name="ohorngrave" unicode="&#x1edd;" horiz-adv-x="1382" 
d="M1112 771q35 -111 35 -226q0 -263 -139 -416.5t-379 -153.5q-239 0 -378.5 153t-139.5 415t139.5 414.5t378.5 152.5q307 0 443 -246q82 15 115.5 65.5t33.5 156.5v98h148v-49q0 -304 -257 -364zM625 123q313 0 313 422q0 417 -309 417q-308 0 -308 -419
q0 -199 80 -309.5t224 -110.5zM1258 0zM782 1283h-148l-321 321h228z" />
    <glyph glyph-name="Ohornhookabove" unicode="&#x1ede;" horiz-adv-x="1647" 
d="M1393 1169q95 -194 95 -432q0 -351 -189 -562.5t-503 -211.5q-315 0 -503.5 211.5t-188.5 565.5t188.5 565.5t503.5 211.5q348 0 543 -259q81 17 114.5 67t33.5 155v99h148v-49q0 -294 -242 -361zM790 120q227 0 351 163.5t124 461.5q0 289 -124.5 452t-344.5 163
q-221 0 -345 -163.5t-124 -454.5q0 -290 123 -456t340 -166zM1591 0zM725 1604q0 91 43 125l41 31l26 22q47 41 47 71q0 33 -29 49.5t-87 16.5q-52 0 -112 -19v106q72 18 140 18q118 0 177 -36t59 -108q0 -60 -78 -128l-22 -19q-45 -39 -54 -58t-9 -71h-142z" />
    <glyph glyph-name="ohornhookabove" unicode="&#x1edf;" horiz-adv-x="1382" 
d="M1112 771q35 -111 35 -226q0 -263 -139 -416.5t-379 -153.5q-239 0 -378.5 153t-139.5 415t139.5 414.5t378.5 152.5q307 0 443 -246q82 15 115.5 65.5t33.5 156.5v98h148v-49q0 -304 -257 -364zM625 123q313 0 313 422q0 417 -309 417q-308 0 -308 -419
q0 -199 80 -309.5t224 -110.5zM1258 0zM558 1283q0 91 43 125l41 31l26 22q47 41 47 71q0 33 -29 49.5t-87 16.5q-52 0 -112 -19v106q72 18 140 18q118 0 177 -36t59 -108q0 -60 -78 -128l-22 -19q-45 -39 -54 -58t-9 -71h-142z" />
    <glyph glyph-name="Ohorntilde" unicode="&#x1ee0;" horiz-adv-x="1647" 
d="M1393 1169q95 -194 95 -432q0 -351 -189 -562.5t-503 -211.5q-315 0 -503.5 211.5t-188.5 565.5t188.5 565.5t503.5 211.5q348 0 543 -259q81 17 114.5 67t33.5 155v99h148v-49q0 -294 -242 -361zM790 120q227 0 351 163.5t124 461.5q0 289 -124.5 452t-344.5 163
q-221 0 -345 -163.5t-124 -454.5q0 -290 123 -456t340 -166zM1591 0zM463 1604q5 117 51.5 175.5t133.5 58.5q73 0 135 -38l60 -37q56 -35 86 -35q34 0 53.5 27.5t23.5 82.5h123q-6 -117 -52 -175.5t-133 -58.5q-73 0 -135 39l-60 37q-56 34 -86 34q-34 0 -53.5 -27.5
t-23.5 -82.5h-123z" />
    <glyph glyph-name="ohorntilde" unicode="&#x1ee1;" horiz-adv-x="1382" 
d="M1112 771q35 -111 35 -226q0 -263 -139 -416.5t-379 -153.5q-239 0 -378.5 153t-139.5 415t139.5 414.5t378.5 152.5q307 0 443 -246q82 15 115.5 65.5t33.5 156.5v98h148v-49q0 -304 -257 -364zM625 123q313 0 313 422q0 417 -309 417q-308 0 -308 -419
q0 -199 80 -309.5t224 -110.5zM1258 0zM296 1283q5 117 51.5 175.5t133.5 58.5q73 0 135 -38l60 -37q56 -35 86 -35q34 0 53.5 27.5t23.5 82.5h123q-6 -117 -52 -175.5t-133 -58.5q-73 0 -135 39l-60 37q-56 34 -86 34q-34 0 -53.5 -27.5t-23.5 -82.5h-123z" />
    <glyph glyph-name="Ohorndotbelow" unicode="&#x1ee2;" horiz-adv-x="1647" 
d="M1393 1169q95 -194 95 -432q0 -351 -189 -562.5t-503 -211.5q-315 0 -503.5 211.5t-188.5 565.5t188.5 565.5t503.5 211.5q348 0 543 -259q81 17 114.5 67t33.5 155v99h148v-49q0 -294 -242 -361zM790 120q227 0 351 163.5t124 461.5q0 289 -124.5 452t-344.5 163
q-221 0 -345 -163.5t-124 -454.5q0 -290 123 -456t340 -166zM1591 0zM709 -441v198h197v-198h-197z" />
    <glyph glyph-name="ohorndotbelow" unicode="&#x1ee3;" horiz-adv-x="1382" 
d="M1112 771q35 -111 35 -226q0 -263 -139 -416.5t-379 -153.5q-239 0 -378.5 153t-139.5 415t139.5 414.5t378.5 152.5q307 0 443 -246q82 15 115.5 65.5t33.5 156.5v98h148v-49q0 -304 -257 -364zM625 123q313 0 313 422q0 417 -309 417q-308 0 -308 -419
q0 -199 80 -309.5t224 -110.5zM1258 0zM550 -433v198h197v-198h-197z" />
    <glyph glyph-name="Udotbelow" unicode="&#x1ee4;" horiz-adv-x="1419" 
d="M179 1480h210v-934q0 -223 82.5 -324.5t262.5 -101.5q176 0 249.5 95.5t73.5 323.5v941h184v-938q0 -303 -124.5 -441t-396.5 -138q-277 0 -409 143t-132 442v932zM616 -450v198h197v-198h-197z" />
    <glyph glyph-name="udotbelow" unicode="&#x1ee5;" horiz-adv-x="1271" 
d="M876 0v204q-157 -229 -381 -229q-142 0 -226 89.5t-84 241.5v780h197v-716q0 -122 35.5 -173.5t118.5 -51.5q180 0 340 237v704h197v-1086h-197zM523 -459v198h197v-198h-197z" />
    <glyph glyph-name="Uhookabove" unicode="&#x1ee6;" horiz-adv-x="1419" 
d="M179 1480h210v-934q0 -223 82.5 -324.5t262.5 -101.5q176 0 249.5 95.5t73.5 323.5v941h184v-938q0 -303 -124.5 -441t-396.5 -138q-277 0 -409 143t-132 442v932zM652 1604q0 91 43 125l41 31l26 22q47 41 47 71q0 33 -29 49.5t-87 16.5q-52 0 -112 -19v106
q72 18 140 18q118 0 177 -36t59 -108q0 -60 -78 -128l-22 -19q-45 -39 -54 -58t-9 -71h-142z" />
    <glyph glyph-name="uhookabove" unicode="&#x1ee7;" horiz-adv-x="1271" 
d="M876 0v204q-157 -229 -381 -229q-142 0 -226 89.5t-84 241.5v780h197v-716q0 -122 35.5 -173.5t118.5 -51.5q180 0 340 237v704h197v-1086h-197zM558 1283q0 91 43 125l41 31l26 22q47 41 47 71q0 33 -29 49.5t-87 16.5q-52 0 -112 -19v106q72 18 140 18q118 0 177 -36
t59 -108q0 -60 -78 -128l-22 -19q-45 -39 -54 -58t-9 -71h-142z" />
    <glyph glyph-name="Uhornacute" unicode="&#x1ee8;" horiz-adv-x="1549" 
d="M179 1480h210v-934q0 -223 82.5 -324.5t262.5 -101.5q176 0 249.5 95.5t73.5 323.5v941h184v-222q81 17 114.5 67t33.5 155v99h148v-49q0 -341 -296 -370v-618q0 -194 -38 -298t-137 -183q-124 -98 -346 -98q-277 0 -409 143t-132 442v932zM1419 0zM575 1604l241 321h228
l-321 -321h-148z" />
    <glyph glyph-name="uhornacute" unicode="&#x1ee9;" horiz-adv-x="1382" 
d="M185 1086h197v-716q0 -122 35.5 -173.5t118.5 -51.5q180 0 340 237v704h197v-222q81 16 114.5 66t33.5 156v98h148v-49q0 -340 -296 -370v-765h-197v204q-157 -229 -381 -229q-142 0 -226 89.5t-84 241.5v780zM1271 0zM481 1283l241 321h228l-321 -321h-148z" />
    <glyph glyph-name="Uhorngrave" unicode="&#x1eea;" horiz-adv-x="1549" 
d="M179 1480h210v-934q0 -223 82.5 -324.5t262.5 -101.5q176 0 249.5 95.5t73.5 323.5v941h184v-222q81 17 114.5 67t33.5 155v99h148v-49q0 -341 -296 -370v-618q0 -194 -38 -298t-137 -183q-124 -98 -346 -98q-277 0 -409 143t-132 442v932zM1419 0zM871 1604h-148
l-321 321h228z" />
    <glyph glyph-name="uhorngrave" unicode="&#x1eeb;" horiz-adv-x="1382" 
d="M185 1086h197v-716q0 -122 35.5 -173.5t118.5 -51.5q180 0 340 237v704h197v-222q81 16 114.5 66t33.5 156v98h148v-49q0 -340 -296 -370v-765h-197v204q-157 -229 -381 -229q-142 0 -226 89.5t-84 241.5v780zM1271 0zM782 1283h-148l-321 321h228z" />
    <glyph glyph-name="Uhornhookabove" unicode="&#x1eec;" horiz-adv-x="1549" 
d="M179 1480h210v-934q0 -223 82.5 -324.5t262.5 -101.5q176 0 249.5 95.5t73.5 323.5v941h184v-222q81 17 114.5 67t33.5 155v99h148v-49q0 -341 -296 -370v-618q0 -194 -38 -298t-137 -183q-124 -98 -346 -98q-277 0 -409 143t-132 442v932zM1419 0zM652 1604q0 91 43 125
l41 31l26 22q47 41 47 71q0 33 -29 49.5t-87 16.5q-52 0 -112 -19v106q72 18 140 18q118 0 177 -36t59 -108q0 -60 -78 -128l-22 -19q-45 -39 -54 -58t-9 -71h-142z" />
    <glyph glyph-name="uhornhookabove" unicode="&#x1eed;" horiz-adv-x="1382" 
d="M185 1086h197v-716q0 -122 35.5 -173.5t118.5 -51.5q180 0 340 237v704h197v-222q81 16 114.5 66t33.5 156v98h148v-49q0 -340 -296 -370v-765h-197v204q-157 -229 -381 -229q-142 0 -226 89.5t-84 241.5v780zM1271 0zM558 1283q0 91 43 125l41 31l26 22q47 41 47 71
q0 33 -29 49.5t-87 16.5q-52 0 -112 -19v106q72 18 140 18q118 0 177 -36t59 -108q0 -60 -78 -128l-22 -19q-45 -39 -54 -58t-9 -71h-142z" />
    <glyph glyph-name="Uhorntilde" unicode="&#x1eee;" horiz-adv-x="1549" 
d="M179 1480h210v-934q0 -223 82.5 -324.5t262.5 -101.5q176 0 249.5 95.5t73.5 323.5v941h184v-222q81 17 114.5 67t33.5 155v99h148v-49q0 -341 -296 -370v-618q0 -194 -38 -298t-137 -183q-124 -98 -346 -98q-277 0 -409 143t-132 442v932zM1419 0zM390 1604
q5 117 51.5 175.5t133.5 58.5q73 0 135 -38l60 -37q56 -35 86 -35q34 0 53.5 27.5t23.5 82.5h123q-6 -117 -52 -175.5t-133 -58.5q-73 0 -135 39l-60 37q-56 34 -86 34q-34 0 -53.5 -27.5t-23.5 -82.5h-123z" />
    <glyph glyph-name="uhorntilde" unicode="&#x1eef;" horiz-adv-x="1382" 
d="M185 1086h197v-716q0 -122 35.5 -173.5t118.5 -51.5q180 0 340 237v704h197v-222q81 16 114.5 66t33.5 156v98h148v-49q0 -340 -296 -370v-765h-197v204q-157 -229 -381 -229q-142 0 -226 89.5t-84 241.5v780zM1271 0zM296 1283q5 117 51.5 175.5t133.5 58.5
q73 0 135 -38l60 -37q56 -35 86 -35q34 0 53.5 27.5t23.5 82.5h123q-6 -117 -52 -175.5t-133 -58.5q-73 0 -135 39l-60 37q-56 34 -86 34q-34 0 -53.5 -27.5t-23.5 -82.5h-123z" />
    <glyph glyph-name="Uhorndotbelow" unicode="&#x1ef0;" horiz-adv-x="1549" 
d="M179 1480h210v-934q0 -223 82.5 -324.5t262.5 -101.5q176 0 249.5 95.5t73.5 323.5v941h184v-222q81 17 114.5 67t33.5 155v99h148v-49q0 -341 -296 -370v-618q0 -194 -38 -298t-137 -183q-124 -98 -346 -98q-277 0 -409 143t-132 442v932zM1419 0zM633 -433v198h197
v-198h-197z" />
    <glyph glyph-name="uhorndotbelow" unicode="&#x1ef1;" horiz-adv-x="1382" 
d="M185 1086h197v-716q0 -122 35.5 -173.5t118.5 -51.5q180 0 340 237v704h197v-222q81 16 114.5 66t33.5 156v98h148v-49q0 -340 -296 -370v-765h-197v204q-157 -229 -381 -229q-142 0 -226 89.5t-84 241.5v780zM1271 0zM532 -433v198h197v-198h-197z" />
    <glyph glyph-name="Ydotbelow" unicode="&#x1ef4;" horiz-adv-x="1276" 
d="M511 0v618l-494 862h240l384 -668l414 668h195l-529 -858v-622h-210zM519 -397v198h197v-198h-197z" />
    <glyph glyph-name="ydotbelow" unicode="&#x1ef5;" horiz-adv-x="1070" 
d="M260 -395l176 395l-420 1086h213l311 -818l332 818h186l-593 -1481h-205zM682 -406v198h197v-198h-197z" />
    <glyph glyph-name="Yhookabove" unicode="&#x1ef6;" horiz-adv-x="1276" 
d="M511 0v618l-494 862h240l384 -668l414 668h195l-529 -858v-622h-210zM585 1604q0 91 43 125l41 31l26 22q47 41 47 71q0 33 -29 49.5t-87 16.5q-52 0 -112 -19v106q72 18 140 18q118 0 177 -36t59 -108q0 -60 -78 -128l-22 -19q-45 -39 -54 -58t-9 -71h-142z" />
    <glyph glyph-name="yhookabove" unicode="&#x1ef7;" horiz-adv-x="1070" 
d="M260 -395l176 395l-420 1086h213l311 -818l332 818h186l-593 -1481h-205zM480 1283q0 91 43 125l41 31l26 22q47 41 47 71q0 33 -29 49.5t-87 16.5q-52 0 -112 -19v106q72 18 140 18q118 0 177 -36t59 -108q0 -60 -78 -128l-22 -19q-45 -39 -54 -58t-9 -71h-142z" />
    <glyph glyph-name="Ytilde" unicode="&#x1ef8;" horiz-adv-x="1276" 
d="M511 0v618l-494 862h240l384 -668l414 668h195l-529 -858v-622h-210zM323 1604q5 117 51.5 175.5t133.5 58.5q73 0 135 -38l60 -37q56 -35 86 -35q34 0 53.5 27.5t23.5 82.5h123q-6 -117 -52 -175.5t-133 -58.5q-73 0 -135 39l-60 37q-56 34 -86 34q-34 0 -53.5 -27.5
t-23.5 -82.5h-123z" />
    <glyph glyph-name="ytilde" unicode="&#x1ef9;" horiz-adv-x="1070" 
d="M260 -395l176 395l-420 1086h213l311 -818l332 818h186l-593 -1481h-205zM222 1283q5 117 51.5 175.5t133.5 58.5q73 0 135 -38l60 -37q56 -35 86 -35q34 0 53.5 27.5t23.5 82.5h123q-6 -117 -52 -175.5t-133 -58.5q-73 0 -135 39l-60 37q-56 34 -86 34
q-34 0 -53.5 -27.5t-23.5 -82.5h-123z" />
    <glyph glyph-name="enspace" unicode="&#x2002;" horiz-adv-x="1024" 
 />
    <glyph glyph-name="hyphen1" unicode="&#x2010;" horiz-adv-x="666" 
d="M111 537v172h444v-172h-444z" />
    <glyph glyph-name="hyphennobreak" unicode="&#x2011;" horiz-adv-x="666" 
d="M111 537v172h444v-172h-444z" />
    <glyph glyph-name="trianglebullet" unicode="&#x2023;" horiz-adv-x="962" 
d="M765 629l-543 -543v1086z" />
    <glyph glyph-name="coloncurrency" unicode="&#x20a1;" horiz-adv-x="1295" 
d="M1007 1335q-79 18 -185 26l-426 -972q65 -103 126 -157zM677 1342q-164 -41 -260 -199t-96 -388q0 -58 16 -186zM632 167q97 -40 195 -40q164 0 372 112v-179q-186 -97 -392 -97q-116 0 -250 32l-53 -118h-138l73 164q-92 60 -144 117l-125 -281h-138l177 400
q-110 218 -110 458q0 354 168 554.5t486 225.5l38 89h138l-38 -88q94 -8 184 -26l50 114h138l-66 -146v-193q-35 15 -70 29z" />
    <glyph glyph-name="cruzeiro" unicode="&#x20a2;" horiz-adv-x="1295" 
d="M1199 235v-180q-183 -95 -391 -95q-335 0 -522 204.5t-187 571.5q0 356 188 567t505 211q168 0 406 -59v-196q-233 98 -394 98q-222 0 -352 -168t-130 -456q0 -435 321 -575v829h197v-177q132 186 334 195l24 2v-192q-36 4 -53 4q-174 0 -305 -184v-511q154 0 359 111z
" />
    <glyph glyph-name="lira" unicode="&#x20a4;" horiz-adv-x="1295" 
d="M1077 1487v-167q-124 49 -239 49q-92 0 -138 -57.5t-46 -172.5v-142h216v-124h-216v-172h216v-124h-216v-16q0 -122 -43.5 -219t-129.5 -169h611v-173h-845v173q105 33 157.5 112t52.5 204v88h-198v124h198v172h-198v124h198v82q0 213 101.5 325.5t291.5 112.5
q104 0 227 -30z" />
    <glyph glyph-name="mill" unicode="&#x20a5;" horiz-adv-x="1295" 
d="M62 0v1086h173v-184q111 208 277 208q71 0 121.5 -36.5t79.5 -109.5l228 516h132l-176 -398q52 28 111 28q123 0 174.5 -82t51.5 -276v-752h-172v756q0 103 -25.5 154.5t-75.5 51.5q-105 0 -226 -213v-749h-173v325l-231 -522h-134l365 824v129q0 103 -25 154.5t-75 51.5
q-105 0 -227 -213v-749h-173z" />
    <glyph glyph-name="naira" unicode="&#x20a6;" horiz-adv-x="1295" 
d="M703 839l75 -197h90v197h-165zM822 531l46 -118v118h-46zM473 950l-46 120v-120h46zM592 642l-74 197h-91v-197h165zM636 531h-209v-531h-181v531h-197v111h197v197h-197v111h197v530h206l206 -530h210v530h180v-530h198v-111h-198v-197h198v-111h-198v-531h-205z" />
    <glyph glyph-name="pesetas" unicode="&#x20a7;" horiz-adv-x="2292" 
d="M99 0v1480h354q237 0 345 -97t108 -310q0 -230 -146 -357.5t-409 -127.5h-44v-588h-208zM307 747h36q170 0 255.5 75t85.5 226q0 152 -66.5 213.5t-230.5 61.5h-80v-576zM1433 -3q-79 -22 -132 -22q-140 0 -209.5 68.5t-69.5 205.5v486h-104v133h104v153l197 21v-174h207
v-133h-207v-456q0 -83 34.5 -124.5t104.5 -41.5q30 0 75 11v-127zM1556 29v159q165 -74 285 -74q76 0 114 28t38 85q0 36 -31 67t-92 56l-86 35q-112 46 -167.5 109.5t-55.5 145.5q0 119 87.5 186t243.5 67q91 0 234 -29v-148q-138 44 -224 44q-75 0 -112 -25.5t-37 -75.5
q0 -33 28 -61t84 -50l73 -29q141 -56 198 -116.5t57 -152.5q0 -118 -95.5 -194t-244.5 -76q-140 0 -297 49z" />
    <glyph glyph-name="won" unicode="&#x20a9;" horiz-adv-x="1296" 
d="M1061 0h-186l-153 765h-143l-177 -765h-190l-97 765h-115v111h102l-27 210h-75v111h61l-37 283h191l36 -283h278l65 283h169l59 -283h278l42 283h147l-43 -283h50v-111h-67l-32 -210h99v-111h-117zM908 765l71 -357l54 357h-125zM701 876l-44 218l-51 -218h95zM453 876
l50 210h-238l25 -210h163zM843 1086l42 -210h165l32 210h-239zM304 765l43 -349l81 349h-124z" />
    <glyph glyph-name="newsheqel" unicode="&#x20aa;" horiz-adv-x="1295" 
d="M99 0v1480h172q413 0 515 -98.5t102 -496.5v-392h-172v344q0 309 -56 377.5t-308 68.5h-81v-1283h-172zM407 0v987h173v-790h93q241 0 296 70t55 377v836h173v-884q0 -381 -90 -479q-107 -117 -515 -117h-185z" />
    <glyph glyph-name="dong" unicode="&#x20ab;" horiz-adv-x="1295" 
d="M858 222v179q-102 -204 -303 -204q-174 0 -290.5 137t-116.5 343q0 232 126.5 382t321.5 150q167 0 262 -123v222h-382v123h382v148h198v-148h185v-123h-185v-1086h-198zM858 962q-109 99 -224 99q-129 0 -202.5 -96.5t-73.5 -266.5q0 -152 67 -240t183 -88
q135 0 250 154v438zM1056 0h-759v124h759v-124z" />
    <glyph glyph-name="kip" unicode="&#x20ad;" horiz-adv-x="1295" 
d="M197 691h-197v123h197v666h197v-666h48l508 666h211l-507 -666h507v-123h-468l571 -691h-250l-571 691h-49v-691h-197v691z" />
    <glyph glyph-name="tugric" unicode="&#x20ae;" horiz-adv-x="1295" 
d="M1278 1323h-525v-315l296 208v-138l-296 -208v-196l296 208v-138l-296 -208v-536h-210v388l-296 -206v138l296 208v194l-296 -205v138l296 207v461h-525v157h1260v-157z" />
    <glyph glyph-name="Drachma.rho" unicode="&#x20af;" horiz-adv-x="2134" 
d="M12 0l148 160h56q116 82 158 293l172 863q-130 0 -204.5 -83t-74.5 -228v-24l-194 -94q0 273 159 432q160 161 555 161h64q226 0 356 -139t130 -380q0 -393 -238 -687q-124 -152 -294 -213t-471 -61h-322zM383 160h118q280 0 442 212t162 578q0 174 -75.5 278t-202.5 104
h-80l-135 -680q-52 -257 -89 -337.5t-140 -154.5zM1138 -395l161 812q74 371 189 532t307 161q327 0 327 -347q0 -306 -166.5 -534.5t-390.5 -228.5q-52 0 -144 35l-86 -430h-197zM1458 226q75 -78 148 -78q133 0 220.5 161.5t87.5 407.5q0 245 -150 245q-155 0 -224 -327
l-26 -130z" />
    <glyph glyph-name="Pcircle" unicode="&#x2117;" horiz-adv-x="1752" 
d="M867 -37q-315 0 -541.5 229.5t-226.5 547.5q0 322 228 549.5t549 227.5t549 -227.5t228 -547.5q0 -326 -228.5 -552.5t-557.5 -226.5zM867 74q326 0 518 239q157 195 157 428q0 275 -195.5 470t-470.5 195t-470.5 -195.5t-195.5 -470.5q0 -272 194.5 -469t462.5 -197z
M659 288v889h259q161 0 231 -54.5t70 -179.5q0 -143 -95.5 -223t-264.5 -80h-61v-352h-139zM798 742h47q113 0 170 47t57 142q0 72 -49.5 108t-148.5 36h-76v-333z" />
    <glyph glyph-name="Pcircle" unicode="&#x24c5;" horiz-adv-x="1752" 
d="M867 -37q-315 0 -541.5 229.5t-226.5 547.5q0 322 228 549.5t549 227.5t549 -227.5t228 -547.5q0 -326 -228.5 -552.5t-557.5 -226.5zM867 74q326 0 518 239q157 195 157 428q0 275 -195.5 470t-470.5 195t-470.5 -195.5t-195.5 -470.5q0 -272 194.5 -469t462.5 -197z
M659 288v889h259q161 0 231 -54.5t70 -179.5q0 -143 -95.5 -223t-264.5 -80h-61v-352h-139zM798 742h47q113 0 170 47t57 142q0 72 -49.5 108t-148.5 36h-76v-333z" />
    <glyph glyph-name="servicemark" unicode="&#x2120;" horiz-adv-x="1653" 
d="M125 747v127q120 -50 204 -50q64 0 96 24.5t32 74.5q0 61 -103 119l-50 27q-181 103 -181 227q0 92 67.5 147.5t178.5 55.5q87 0 199 -26v-118q-114 42 -180 42q-57 0 -85 -20.5t-28 -61.5q0 -52 103 -110l53 -30q188 -106 188 -233q0 -110 -72 -165t-216 -55
q-89 0 -206 25zM785 740v740h204l177 -520h2l183 520h178v-740h-141v559h-3l-178 -509h-124l-175 516h-2v-566h-121z" />
    <glyph glyph-name="Ohm" unicode="&#x2126;" horiz-adv-x="1629" 
d="M74 0v154h407q-358 270 -358 678q0 300 194 492.5t497 192.5t497 -192t194 -493q0 -409 -358 -678h407v-154h-610v154q339 229 339 664q0 255 -124.5 400t-344.5 145q-219 0 -344 -145t-125 -401q0 -433 340 -663v-154h-611z" />
    <glyph glyph-name="arrowleft" unicode="&#x2190;" horiz-adv-x="2048" 
d="M210 740l432 432v-358h1172v-148h-1172v-358z" />
    <glyph glyph-name="arrowup" unicode="&#x2191;" horiz-adv-x="1321" 
d="M661 1604l432 -432h-358v-1172h-148v1172h-358z" />
    <glyph glyph-name="arrowright" unicode="&#x2192;" horiz-adv-x="2048" 
d="M1838 740l-432 432v-358h-1172v-148h1172v-358z" />
    <glyph glyph-name="arrowdown" unicode="&#x2193;" horiz-adv-x="1321" 
d="M661 -124l432 432h-358v1172h-148v-1172h-358z" />
    <glyph glyph-name="arrowupleft" unicode="&#x2196;" horiz-adv-x="2048" 
d="M284 1480h611l-253 -253l1122 -1122l-104 -105l-1123 1123l-253 -253v610z" />
    <glyph glyph-name="arrowdownright" unicode="&#x2198;" horiz-adv-x="2048" 
d="M1764 0h-610l253 253l-1123 1123l105 104l1122 -1122l253 253v-611z" />
    <glyph glyph-name="arrowhookleft" unicode="&#x21a9;" horiz-adv-x="2048" 
d="M197 740l432 432v-358h752q134 0 227.5 94t93.5 227t-93.5 227t-227.5 94h-24v148h24q195 0 332 -137.5t137 -331.5t-137 -331.5t-332 -137.5h-752v-358z" />
    <glyph glyph-name="arrowhookright" unicode="&#x21aa;" horiz-adv-x="2023" 
d="M1863 740l-432 432v-358h-752q-134 0 -227.5 94t-93.5 227t93.5 227t227.5 94h24v148h-24q-195 0 -332 -137.5t-137 -331.5t137 -331.5t332 -137.5h752v-358z" />
    <glyph glyph-name="carriagereturnright" unicode="&#x21b3;" horiz-adv-x="2048" 
d="M1863 740l-432 -432v358h-1172v926h148v-778h1024v358z" />
    <glyph glyph-name="carriagereturn" unicode="&#x21b5;" horiz-adv-x="2048" 
d="M185 740l432 432v-358h1024v778h148v-926h-1172v-358z" />
    <glyph glyph-name="pageup" unicode="&#x21de;" horiz-adv-x="1321" 
d="M735 864h254v-148h-254v-173h254v-148h-254v-395h-148v395h-254v148h254v173h-254v148h254v308h-358l432 432l432 -432h-358v-308z" />
    <glyph glyph-name="pagedown" unicode="&#x21df;" horiz-adv-x="1321" 
d="M587 740h-254v148h254v173h-254v148h254v395h148v-395h254v-148h-254v-173h254v-148h-254v-308h358l-432 -432l-432 432h358v308z" />
    <glyph glyph-name="arrowdashleft" unicode="&#x21e0;" horiz-adv-x="2048" 
d="M210 740l432 432v-358h148v-148h-148v-358zM946 814h185v-148h-185v148zM1287 814h186v-148h-186v148zM1629 814h185v-148h-185v148z" />
    <glyph glyph-name="arrowdashup" unicode="&#x21e1;" horiz-adv-x="1321" 
d="M661 1604l432 -432h-358v-148h-148v148h-358zM735 868v-185h-148v185h148zM735 526v-185h-148v185h148zM735 185v-185h-148v185h148z" />
    <glyph glyph-name="arrowdashright" unicode="&#x21e2;" horiz-adv-x="2048" 
d="M1838 740l-432 -432v358h-148v148h148v358zM1102 814v-148h-185v148h185zM761 814v-148h-186v148h186zM419 814v-148h-185v148h185z" />
    <glyph glyph-name="arrowdashdown" unicode="&#x21e3;" horiz-adv-x="1321" 
d="M661 0l-432 432h358v148h148v-148h358zM587 736v185h148v-185h-148zM587 1077v186h148v-186h-148zM587 1419v185h148v-185h-148z" />
    <glyph glyph-name="arrowtableft" unicode="&#x21e4;" horiz-adv-x="2048" 
d="M173 308v864h148v-864h-148zM469 740l432 432v-358h975v-148h-975v-358z" />
    <glyph glyph-name="arrowtabright" unicode="&#x21e5;" horiz-adv-x="2048" 
d="M1876 308h-148v864h148v-864zM1580 740l-432 -432v358h-975v148h975v358z" />
    <glyph glyph-name="shift" unicode="&#x21e7;" horiz-adv-x="2048" 
d="M173 753l851 851l852 -851h-426v-753h-851v753h-426zM1024 1429l-565 -565h263v-741h605v741h262z" />
    <glyph glyph-name="capslock" unicode="&#x21ea;" horiz-adv-x="2048" 
d="M599 0h851v-432h-851v432zM722 -123v-185h605v185h-605zM173 753l851 851l852 -851h-426v-519h-851v519h-426zM1024 1429l-565 -565h263v-506h605v506h262z" />
    <glyph glyph-name="control" unicode="&#x2303;" horiz-adv-x="1628" 
d="M222 888l592 592l593 -592l-105 -105l-488 488l-487 -488z" />
    <glyph glyph-name="projective" unicode="&#x2305;" horiz-adv-x="1628" 
d="M222 543l592 592l593 -592l-105 -105l-488 487l-487 -487zM222 1332v148h1185v-148h-1185z" />
    <glyph glyph-name="command" unicode="&#x2318;" horiz-adv-x="2048" 
d="M876 592h296v296h-296v-296zM876 444v-170q0 -128 -92.5 -219.5t-222.5 -91.5t-222 92t-92 223q0 128 92 221t219 93h170v296h-170q-127 0 -219 93t-92 222q0 130 92 222t222 92t222.5 -91.5t92.5 -219.5v-170h296v170q0 128 92.5 219.5t222.5 91.5q131 0 222.5 -92
t91.5 -222q0 -129 -91.5 -222t-219.5 -93h-170v-296h170q128 0 219.5 -93t91.5 -221q0 -131 -91.5 -223t-222.5 -92q-130 0 -222.5 91.5t-92.5 219.5v170h-296zM728 1036v167q0 69 -49 117.5t-118 48.5q-68 0 -117 -48.5t-49 -117.5t49 -118t118 -49h166zM728 444h-166
q-69 0 -118 -49t-49 -117q0 -69 49 -118t118 -49q68 0 117 49t49 117v167zM1320 1036h167q68 0 117 49t49 118t-48.5 117.5t-117.5 48.5t-118 -48.5t-49 -117.5v-167zM1320 444v-167q0 -68 49 -117t118 -49t117.5 49t48.5 118q0 68 -49 117t-117 49h-167z" />
    <glyph glyph-name="enter" unicode="&#x2324;" horiz-adv-x="1628" 
d="M222 888l592 592l593 -592l-105 -105l-488 488l-487 -488zM567 1480v-148h-345v148h345zM1407 1480v-148h-346v148h346z" />
    <glyph glyph-name="option" unicode="&#x2325;" horiz-adv-x="2048" 
d="M173 1480h578l666 -1332h459v-148h-579l-666 1332h-458v148zM1184 1480h692v-148h-692v148z" />
    <glyph glyph-name="deleteright" unicode="&#x2326;" horiz-adv-x="2486" 
d="M1573 0h-1376v1480h1376l740 -740zM2104 740l-592 592h-1167v-1184h1167zM1076 636l-330 -331l-105 105l331 330l-331 331l105 104l330 -330l331 330l105 -104l-331 -331l331 -330l-105 -105z" />
    <glyph glyph-name="clear" unicode="&#x2327;" horiz-adv-x="2048" 
d="M173 0v1480h298l-187 297l125 79l237 -376h757l256 407l125 -78l-206 -329h297v-1480h-298l187 -297l-125 -79l-237 376h-756l-217 -345l-125 79l167 266h-298zM1112 740l372 -592h243v1184h-242zM937 740l-373 592h-243v-1184h243zM1024 879l286 453h-571zM1024 601
l-285 -453h570z" />
    <glyph glyph-name="deleteleft" unicode="&#x232b;" horiz-adv-x="2486" 
d="M913 0l-740 740l740 740h1376v-1480h-1376zM382 740l593 -592h1166v1184h-1166zM1410 636l-331 -331l-104 105l330 330l-330 331l104 104l331 -330l330 330l105 -104l-330 -331l330 -330l-105 -105z" />
    <glyph glyph-name="poweron" unicode="&#x233d;" horiz-adv-x="2048" 
d="M1015 -37q-315 0 -541.5 229.5t-226.5 547.5q0 322 228 549.5t549 227.5t549 -227.5t228 -547.5q0 -326 -228.5 -552.5t-557.5 -226.5zM1015 74q326 0 518 239q157 195 157 428q0 275 -195.5 470t-470.5 195t-470.5 -195.5t-195.5 -470.5q0 -272 194.5 -469t462.5 -197z
M950 271v938h148v-938h-148z" />
    <glyph glyph-name="help" horiz-adv-x="2048" 
d="M1015 -37q-315 0 -541.5 229.5t-226.5 547.5q0 322 228 549.5t549 227.5t549 -227.5t228 -547.5q0 -326 -228.5 -552.5t-557.5 -226.5zM1015 74q326 0 518 239q157 195 157 428q0 275 -195.5 470t-470.5 195t-470.5 -195.5t-195.5 -470.5q0 -272 194.5 -469t462.5 -197z
M926 538v25q0 107 89 207l40 45q91 103 91 175q0 115 -147 115q-92 0 -203 -49v118q115 35 223 35q131 0 208.5 -55.5t77.5 -148.5q0 -89 -100 -184l-39 -37q-92 -88 -92 -187v-59h-148zM926 267v135h148v-135h-148z" />
    <glyph glyph-name="contextmenu" unicode="&#xf803;" horiz-adv-x="2048" 
d="M1456 864h370v-124h-370v124zM222 864h370v-124h-370v124zM962 1234v370h124v-370h-124zM1286 1151l261 262l88 -88l-262 -261zM413 278l262 262l87 -87l-262 -262zM675 1064l-262 261l87 88l262 -262zM901 1098l622 -622h-284l173 -419l-137 -57l-173 419l-201 -201v880
z" />
    <glyph glyph-name="nobreakspacebox" unicode="&#x237d;" horiz-adv-x="648" 
d="M37 0h207v-197h160v197h207v-99h-108v-197h-358v197h-108v99z" />
    <glyph glyph-name="circlearrowupleft" unicode="&#x238b;" horiz-adv-x="2048" 
d="M1078 791l-104 -105l-536 536l-191 -191v486h486l-191 -190zM1024 1517q322 0 549.5 -227.5t227.5 -549.5q0 -321 -227.5 -549t-549.5 -228q-321 0 -549 228t-228 549h148q0 -259 185 -444t444 -185q260 0 444.5 185t184.5 444q0 260 -184.5 444.5t-444.5 184.5v148z" />
    <glyph glyph-name="spaceopenbox" unicode="&#x2423;" horiz-adv-x="648" 
d="M37 -296v296h99v-197h376v197h99v-296h-574z" />
    <glyph glyph-name="blacksquare" unicode="&#x25a0;" horiz-adv-x="1110" 
d="M234 284v691h691v-691h-691z" />
    <glyph glyph-name="whitesquare" unicode="&#x25a1;" horiz-adv-x="1110" 
d="M197 259v740h740v-740h-740zM271 333h592v592h-592v-592z" />
    <glyph glyph-name="blacksmallsquare" unicode="&#x25aa;" horiz-adv-x="1036" 
d="M222 296v592h592v-592h-592z" />
    <glyph glyph-name="whitesmallsquare" unicode="&#x25ab;" horiz-adv-x="1036" 
d="M222 296v592h592v-592h-592zM301 375h435v434h-435v-434z" />
    <glyph glyph-name="blackuppointingsmalltria" unicode="&#x25b4;" horiz-adv-x="1128" 
d="M906 296h-684l342 592z" />
    <glyph glyph-name="triagrt" unicode="&#x25b6;" horiz-adv-x="1802" 
d="M164 1679l1490 -860l-1490 -860v1720z" />
    <glyph glyph-name="triagrt" unicode="&#x25ba;" horiz-adv-x="1802" 
d="M164 1679l1490 -860l-1490 -860v1720z" />
    <glyph glyph-name="blackrighttriangle" unicode="&#x25b8;" horiz-adv-x="1086" 
d="M358 1221l592 -592l-592 -592v1184z" />
    <glyph glyph-name="whiterighttriangle" unicode="&#x25b9;" horiz-adv-x="1086" 
d="M327 1270l641 -641l-641 -641v1282zM401 1092v-925l463 462z" />
    <glyph glyph-name="triagdn" unicode="&#x25bc;" horiz-adv-x="2007" 
d="M164 1638h1679l-839 -1679z" />
    <glyph glyph-name="blackdowntriangle" unicode="&#x25be;" horiz-adv-x="1308" 
d="M62 839h1184l-592 -592z" />
    <glyph glyph-name="whitedowntriangle" unicode="&#x25bf;" horiz-adv-x="1308" 
d="M13 863h1283l-642 -641zM1117 789h-925l462 -462z" />
    <glyph glyph-name="triangleleftwhite" unicode="&#x25c1;" horiz-adv-x="1628" 
d="M100 740l1282 740v-1480zM396 740l838 -483v967z" />
    <glyph glyph-name="blackdiamond" unicode="&#x25c6;" horiz-adv-x="1480" 
d="M1283 543l-543 -543l-543 543l543 543z" />
    <glyph glyph-name="whitediamond" unicode="&#x25c7;" horiz-adv-x="1259" 
d="M1195 629l-565 -565l-566 565l566 566zM1091 629l-461 461l-461 -461l461 -461z" />
    <glyph glyph-name="blackcircle" unicode="&#x25cf;" horiz-adv-x="1184" 
d="M586 210q-169 0 -291 124t-122 295q0 174 123 297t297 123t296.5 -123.5t122.5 -299.5q0 -173 -124.5 -294.5t-301.5 -121.5z" />
    <glyph glyph-name="whitebullet" unicode="&#x25e6;" horiz-adv-x="1184" 
d="M575 185q-180 0 -309.5 131t-129.5 313q0 184 130 314t314 130t314 -130t130 -313q0 -187 -130.5 -316t-318.5 -129zM576 259q156 0 265 108t109 263q0 152 -108.5 260.5t-261.5 108.5t-261.5 -108.5t-108.5 -261.5q0 -151 108 -260.5t258 -109.5z" />
    <glyph glyph-name="checkmark" unicode="&#x2713;" horiz-adv-x="1565" 
d="M632 -37q-93 168 -143 247l-53 83l-40 61q-131 204 -273 337q81 67 151 67q86 0 153 -63t169 -240q116 377 295 715q99 184 176.5 247.5t205.5 63.5q68 0 168 -21q-257 -207 -411 -492t-398 -1005z" />
    <glyph glyph-name="applelogoopen" horiz-adv-x="2048" 
d="M1822 1288q-125 -93 -174.5 -177.5t-49.5 -202.5q0 -264 275 -411q-82 -225 -218.5 -379t-254.5 -154q-49 0 -146 36l-30 11l-52 20q-10 3 -16 5l-11 2l-14 4q-31 6 -72 6q-86 0 -187 -42l-46 -19q-55 -23 -111 -23q-202 0 -404 381q-137 257 -137 540q0 268 147 433
t386 165q93 0 175 -33l38 -15l36 -15q52 -21 84 -21q47 0 88 17l50 21q22 9 43 15l9 3q4 1 45 11q4 0 8 1l7 2q55 14 121 14q247 0 411 -195zM1579 1288q-71 36 -163 36q-53 0 -96 -11l-14 -4l-37 -8q-7 -2 -34 -13q-117 -50 -195 -50q-65 0 -181 50q-86 36 -151 36
q-172 0 -273.5 -118t-101.5 -319q0 -254 128 -482q159 -283 254 -283q22 0 54 14l50 21q118 50 240 50q34 0 63 -4l24 -3q51 -6 135 -40l29 -11q67 -27 92 -27q91 0 273 310q-107 75 -171.5 204t-64.5 268q0 227 136 380zM1420 1935q1 -8 1 -12l1 -11v-27
q0 -170 -123.5 -298.5t-287.5 -128.5l-1 18q-2 29 -2 41q0 117 96 240q66 85 132 122t184 56z" />
    <glyph glyph-name="daletqamatshebrew" horiz-adv-x="1026" 
d="M631 0v987h-619l66 197h942l-66 -197h-150v-987h-173zM446 -234v98h543v-98h-222v-278h-99v278h-222z" />
    <glyph glyph-name="daletpatahhebrew" horiz-adv-x="1026" 
d="M631 0v987h-619l66 197h942l-66 -197h-150v-987h-173zM446 -234v98h543v-98h-543z" />
    <glyph glyph-name="dalettserehebrew" horiz-adv-x="1026" 
d="M631 0v987h-619l66 197h942l-66 -197h-150v-987h-173zM533 -259v123h123v-123h-123zM780 -259v123h123v-123h-123z" />
    <glyph glyph-name="daletsegolhebrew" horiz-adv-x="1026" 
d="M631 0v987h-619l66 197h942l-66 -197h-150v-987h-173zM533 -259v123h123v-123h-123zM780 -259v123h123v-123h-123zM656 -506v124h124v-124h-124z" />
    <glyph glyph-name="dalethiriqhebrew" horiz-adv-x="1026" 
d="M631 0v987h-619l66 197h942l-66 -197h-150v-987h-173zM656 -259v123h123v-123h-123z" />
    <glyph glyph-name="daletshevahebrew" horiz-adv-x="1026" 
d="M631 0v987h-619l66 197h942l-66 -197h-150v-987h-173zM657 -254v124h123v-124h-123zM657 -501v124h123v-124h-123z" />
    <glyph glyph-name="dalethatafpatahhebrew" horiz-adv-x="1026" 
d="M631 0v987h-619l66 197h942l-66 -197h-150v-987h-173zM111 -234v98h549v-98h-549zM783 -259v123h124v-123h-124zM783 -506v124h124v-124h-124z" />
    <glyph glyph-name="dalethatafsegolhebrew" horiz-adv-x="1026" 
d="M631 0v987h-619l66 197h942l-66 -197h-150v-987h-173zM294 -259v123h123v-123h-123zM541 -259v123h123v-123h-123zM417 -506v124h124v-124h-124zM787 -259v123h124v-123h-124zM787 -506v124h124v-124h-124z" />
    <glyph glyph-name="daletqubutshebrew" horiz-adv-x="1026" 
d="M631 0v987h-619l66 197h942l-66 -197h-150v-987h-173zM409 -259v123h123v-123h-123zM656 -382v123h123v-123h-123zM902 -506v124h124v-124h-124z" />
    <glyph glyph-name="daletholamhebrew" horiz-adv-x="1026" 
d="M631 0v987h-619l66 197h942l-66 -197h-150v-987h-173zM-62 1312v124h124v-124h-124z" />
    <glyph glyph-name="qofqamatshebrew" horiz-adv-x="1364" 
d="M223 -296v982h172v-982h-172zM74 987l66 197h634q265 0 359.5 -64.5t94.5 -246.5q0 -298 -198 -542t-530 -355l70 209q193 50 333 235.5t140 392.5q0 172 -244 172l-127 2h-598zM571 -234v98h543v-98h-222v-278h-99v278h-222z" />
    <glyph glyph-name="qofpatahhebrew" horiz-adv-x="1364" 
d="M223 -296v982h172v-982h-172zM74 987l66 197h634q265 0 359.5 -64.5t94.5 -246.5q0 -298 -198 -542t-530 -355l70 209q193 50 333 235.5t140 392.5q0 172 -244 172l-127 2h-598zM563 -234v98h543v-98h-543z" />
    <glyph glyph-name="qoftserehebrew" horiz-adv-x="1364" 
d="M223 -296v982h172v-982h-172zM74 987l66 197h634q265 0 359.5 -64.5t94.5 -246.5q0 -298 -198 -542t-530 -355l70 209q193 50 333 235.5t140 392.5q0 172 -244 172l-127 2h-598zM568 -259v123h123v-123h-123zM815 -259v123h123v-123h-123z" />
    <glyph glyph-name="qofsegolhebrew" horiz-adv-x="1364" 
d="M223 -296v982h172v-982h-172zM74 987l66 197h634q265 0 359.5 -64.5t94.5 -246.5q0 -298 -198 -542t-530 -355l70 209q193 50 333 235.5t140 392.5q0 172 -244 172l-127 2h-598zM568 -259v123h123v-123h-123zM815 -259v123h123v-123h-123zM691 -506v124h124v-124h-124z
" />
    <glyph glyph-name="qofhiriqhebrew" horiz-adv-x="1364" 
d="M223 -296v982h172v-982h-172zM74 987l66 197h634q265 0 359.5 -64.5t94.5 -246.5q0 -298 -198 -542t-530 -355l70 209q193 50 333 235.5t140 392.5q0 172 -244 172l-127 2h-598zM568 -259v123h123v-123h-123z" />
    <glyph glyph-name="qofshevahebrew" horiz-adv-x="1364" 
d="M223 -296v982h172v-982h-172zM74 987l66 197h634q265 0 359.5 -64.5t94.5 -246.5q0 -298 -198 -542t-530 -355l70 209q193 50 333 235.5t140 392.5q0 172 -244 172l-127 2h-598zM568 -254v124h123v-124h-123zM568 -501v124h123v-124h-123z" />
    <glyph glyph-name="qofhatafpatahhebrew" horiz-adv-x="1364" 
d="M223 -296v982h172v-982h-172zM74 987l66 197h634q265 0 359.5 -64.5t94.5 -246.5q0 -298 -198 -542t-530 -355l70 209q193 50 333 235.5t140 392.5q0 172 -244 172l-127 2h-598zM499 -234v98h549v-98h-549zM1171 -259v123h124v-123h-124zM1171 -506v124h124v-124h-124z
" />
    <glyph glyph-name="qofhatafsegolhebrew" horiz-adv-x="1364" 
d="M223 -296v982h172v-982h-172zM74 987l66 197h634q265 0 359.5 -64.5t94.5 -246.5q0 -298 -198 -542t-530 -355l70 209q193 50 333 235.5t140 392.5q0 172 -244 172l-127 2h-598zM501 -259v123h123v-123h-123zM748 -259v123h123v-123h-123zM624 -506v124h124v-124h-124z
M994 -259v123h124v-123h-124zM994 -506v124h124v-124h-124z" />
    <glyph glyph-name="qofqubutshebrew" horiz-adv-x="1364" 
d="M223 -296v982h172v-982h-172zM74 987l66 197h634q265 0 359.5 -64.5t94.5 -246.5q0 -298 -198 -542t-530 -355l70 209q193 50 333 235.5t140 392.5q0 172 -244 172l-127 2h-598zM545 -259v123h123v-123h-123zM792 -382v123h123v-123h-123zM1038 -506v124h124v-124h-124z
" />
    <glyph glyph-name="qofholamhebrew" horiz-adv-x="1364" 
d="M223 -296v982h172v-982h-172zM74 987l66 197h634q265 0 359.5 -64.5t94.5 -246.5q0 -298 -198 -542t-530 -355l70 209q193 50 333 235.5t140 392.5q0 172 -244 172l-127 2h-598zM-62 1332v124h124v-124h-124z" />
    <glyph glyph-name="reshqamatshebrew" horiz-adv-x="1044" 
d="M686 0v666q0 230 -38.5 275.5t-232.5 45.5h-359l66 197h293q282 0 363 -88t81 -393v-703h-173zM501 -234v98h543v-98h-222v-278h-99v278h-222z" />
    <glyph glyph-name="reshpatahhebrew" horiz-adv-x="1044" 
d="M686 0v666q0 230 -38.5 275.5t-232.5 45.5h-359l66 197h293q282 0 363 -88t81 -393v-703h-173zM501 -234v98h543v-98h-543z" />
    <glyph glyph-name="reshtserehebrew" horiz-adv-x="1044" 
d="M686 0v666q0 230 -38.5 275.5t-232.5 45.5h-359l66 197h293q282 0 363 -88t81 -393v-703h-173zM588 -259v123h123v-123h-123zM835 -259v123h123v-123h-123z" />
    <glyph glyph-name="reshsegolhebrew" horiz-adv-x="1044" 
d="M686 0v666q0 230 -38.5 275.5t-232.5 45.5h-359l66 197h293q282 0 363 -88t81 -393v-703h-173zM588 -259v123h123v-123h-123zM835 -259v123h123v-123h-123zM711 -506v124h124v-124h-124z" />
    <glyph glyph-name="reshhiriqhebrew" horiz-adv-x="1044" 
d="M686 0v666q0 230 -38.5 275.5t-232.5 45.5h-359l66 197h293q282 0 363 -88t81 -393v-703h-173zM711 -259v123h123v-123h-123z" />
    <glyph glyph-name="reshshevahebrew" horiz-adv-x="1044" 
d="M686 0v666q0 230 -38.5 275.5t-232.5 45.5h-359l66 197h293q282 0 363 -88t81 -393v-703h-173zM712 -254v124h123v-124h-123zM712 -501v124h123v-124h-123z" />
    <glyph glyph-name="reshhatafpatahhebrew" horiz-adv-x="1044" 
d="M686 0v666q0 230 -38.5 275.5t-232.5 45.5h-359l66 197h293q282 0 363 -88t81 -393v-703h-173zM166 -234v98h549v-98h-549zM838 -259v123h124v-123h-124zM838 -506v124h124v-124h-124z" />
    <glyph glyph-name="reshhatafsegolhebrew" horiz-adv-x="1044" 
d="M686 0v666q0 230 -38.5 275.5t-232.5 45.5h-359l66 197h293q282 0 363 -88t81 -393v-703h-173zM344 -259v123h123v-123h-123zM591 -259v123h123v-123h-123zM467 -506v124h124v-124h-124zM837 -259v123h124v-123h-124zM837 -506v124h124v-124h-124z" />
    <glyph glyph-name="reshqubutshebrew" horiz-adv-x="1044" 
d="M686 0v666q0 230 -38.5 275.5t-232.5 45.5h-359l66 197h293q282 0 363 -88t81 -393v-703h-173zM464 -259v123h123v-123h-123zM711 -382v123h123v-123h-123zM957 -506v124h124v-124h-124z" />
    <glyph glyph-name="reshholamhebrew" horiz-adv-x="1044" 
d="M686 0v666q0 230 -38.5 275.5t-232.5 45.5h-359l66 197h293q282 0 363 -88t81 -393v-703h-173zM-62 1312v124h124v-124h-124z" />
    <glyph glyph-name="finalkafqamatshebrew" horiz-adv-x="1081" 
d="M711 -296v1283h-680l66 197h787v-1480h-173zM75 -98v98h543v-98h-222v-278h-99v278h-222z" />
    <glyph glyph-name="finalkafshevahebrew" horiz-adv-x="1081" 
d="M711 -296v1283h-680l66 197h787v-1480h-173zM409 -122v124h123v-124h-123zM409 -369v124h123v-124h-123z" />
    <glyph glyph-name="lamedholamdageshhebrew" horiz-adv-x="1092" 
d="M150 -25l70 210q200 20 340 152q89 83 150 222t61 257q0 98 -76 134.5t-280 36.5h-316v559l173 58v-420h278q220 0 313 -70t93 -236q0 -321 -229 -577.5t-577 -325.5zM-121 1420v124h124v-124h-124zM226 543v148h148v-148h-148z" />
    <glyph glyph-name="lamedholamhebrew" horiz-adv-x="1092" 
d="M150 -25l70 210q200 20 340 152q89 83 150 222t61 257q0 98 -76 134.5t-280 36.5h-316v559l173 58v-420h278q220 0 313 -70t93 -236q0 -321 -229 -577.5t-577 -325.5zM-119 1418v124h124v-124h-124z" />
    <glyph glyph-name="Acircumflexgrave1" horiz-adv-x="1413" 
d="M17 0l587 1308h208l578 -1308h-227l-151 342h-647l-153 -342h-195zM436 498h507l-252 572zM358 1345l241 321h218l241 -321h-148l-201 202h-2l-201 -202h-148zM861 1727h-148l-321 321h228z" />
    <glyph glyph-name="acircumflexgrave1" horiz-adv-x="1131" 
d="M757 138q-177 -163 -341 -163q-135 0 -224 84.5t-89 213.5q0 178 149.5 273.5t428.5 95.5h47v131q0 189 -194 189q-156 0 -337 -96v163q199 81 373 81q182 0 268.5 -82t86.5 -255v-492q0 -169 104 -169q13 0 38 4l14 -109q-67 -32 -148 -32q-138 0 -176 163zM728 245v281
l-66 2q-162 0 -262 -61.5t-100 -161.5q0 -71 50 -120t122 -49q123 0 256 109zM225 1283l241 321h218l241 -321h-148l-201 202h-2l-201 -202h-148zM723 1727h-148l-321 321h228z" />
    <glyph glyph-name="Acircumflexacute1" horiz-adv-x="1413" 
d="M17 0l587 1308h208l578 -1308h-227l-151 342h-647l-153 -342h-195zM436 498h507l-252 572zM358 1345l241 321h218l241 -321h-148l-201 202h-2l-201 -202h-148zM560 1727l241 321h228l-321 -321h-148z" />
    <glyph glyph-name="acircumflexacute1" horiz-adv-x="1131" 
d="M757 138q-177 -163 -341 -163q-135 0 -224 84.5t-89 213.5q0 178 149.5 273.5t428.5 95.5h47v131q0 189 -194 189q-156 0 -337 -96v163q199 81 373 81q182 0 268.5 -82t86.5 -255v-492q0 -169 104 -169q13 0 38 4l14 -109q-67 -32 -148 -32q-138 0 -176 163zM728 245v281
l-66 2q-162 0 -262 -61.5t-100 -161.5q0 -71 50 -120t122 -49q123 0 256 109zM225 1283l241 321h218l241 -321h-148l-201 202h-2l-201 -202h-148zM422 1727l241 321h228l-321 -321h-148z" />
    <glyph glyph-name="Acircumflexhookabove1" horiz-adv-x="1413" 
d="M17 0l587 1308h208l578 -1308h-227l-151 342h-647l-153 -342h-195zM436 498h507l-252 572zM358 1345l241 321h218l241 -321h-148l-201 202h-2l-201 -202h-148zM651 1781v21q0 51 69 82l27 12q52 23 52 59q0 48 -84 48q-59 0 -138 -26v102q84 23 171 23q199 0 199 -114
q0 -59 -68 -107l-21 -16l-24 -16q-41 -26 -41 -48v-20h-142z" />
    <glyph glyph-name="acircumflexhookabove1" horiz-adv-x="1131" 
d="M757 138q-177 -163 -341 -163q-135 0 -224 84.5t-89 213.5q0 178 149.5 273.5t428.5 95.5h47v131q0 189 -194 189q-156 0 -337 -96v163q199 81 373 81q182 0 268.5 -82t86.5 -255v-492q0 -169 104 -169q13 0 38 4l14 -109q-67 -32 -148 -32q-138 0 -176 163zM728 245v281
l-66 2q-162 0 -262 -61.5t-100 -161.5q0 -71 50 -120t122 -49q123 0 256 109zM225 1283l241 321h218l241 -321h-148l-201 202h-2l-201 -202h-148zM490 1754v21q0 51 69 82l27 12q52 23 52 59q0 48 -84 48q-59 0 -138 -26v102q84 23 171 23q199 0 199 -114q0 -59 -68 -107
l-21 -16l-24 -16q-41 -26 -41 -48v-20h-142z" />
    <glyph glyph-name="Acircumflexgrave2" horiz-adv-x="1413" 
d="M941 566l-252 638l-253 -638h505zM1163 0l-161 410h-627l-163 -410h-195l587 1480h208l578 -1480h-227zM358 1604l241 321h218l241 -321h-148l-201 202h-2l-201 -202h-148zM406 1727h-148l-321 321h228z" />
    <glyph glyph-name="acircumflexgrave2" horiz-adv-x="1131" 
d="M757 138q-177 -163 -341 -163q-135 0 -224 84.5t-89 213.5q0 178 149.5 273.5t428.5 95.5h47v131q0 189 -194 189q-156 0 -337 -96v163q199 81 373 81q182 0 268.5 -82t86.5 -255v-492q0 -169 104 -169q13 0 38 4l14 -109q-67 -32 -148 -32q-138 0 -176 163zM728 245v281
l-66 2q-162 0 -262 -61.5t-100 -161.5q0 -71 50 -120t122 -49q123 0 256 109zM225 1283l241 321h218l241 -321h-148l-201 202h-2l-201 -202h-148zM398 1579h-148l-321 321h228z" />
    <glyph glyph-name="Acircumflexacute2" horiz-adv-x="1413" 
d="M941 566l-252 638l-253 -638h505zM1163 0l-161 410h-627l-163 -410h-195l587 1480h208l578 -1480h-227zM358 1604l241 321h218l241 -321h-148l-201 202h-2l-201 -202h-148zM110 1727l241 321h228l-321 -321h-148z" />
    <glyph glyph-name="acircumflexacute2" horiz-adv-x="1131" 
d="M757 138q-177 -163 -341 -163q-135 0 -224 84.5t-89 213.5q0 178 149.5 273.5t428.5 95.5h47v131q0 189 -194 189q-156 0 -337 -96v163q199 81 373 81q182 0 268.5 -82t86.5 -255v-492q0 -169 104 -169q13 0 38 4l14 -109q-67 -32 -148 -32q-138 0 -176 163zM728 245v281
l-66 2q-162 0 -262 -61.5t-100 -161.5q0 -71 50 -120t122 -49q123 0 256 109zM225 1283l241 321h218l241 -321h-148l-201 202h-2l-201 -202h-148zM151 1579l241 321h228l-321 -321h-148z" />
    <glyph glyph-name="Acircumflexhookabove2" horiz-adv-x="1413" 
d="M941 566l-252 638l-253 -638h505zM1163 0l-161 410h-627l-163 -410h-195l587 1480h208l578 -1480h-227zM358 1604l241 321h218l241 -321h-148l-201 202h-2l-201 -202h-148zM135 1629q0 91 43 125l41 31l26 22q47 41 47 71q0 33 -29 49.5t-87 16.5q-52 0 -112 -19v106
q72 18 140 18q118 0 177 -36t59 -108q0 -60 -78 -128l-22 -19q-45 -39 -54 -58t-9 -71h-142z" />
    <glyph glyph-name="acircumflexhookabove2" horiz-adv-x="1131" 
d="M757 138q-177 -163 -341 -163q-135 0 -224 84.5t-89 213.5q0 178 149.5 273.5t428.5 95.5h47v131q0 189 -194 189q-156 0 -337 -96v163q199 81 373 81q182 0 268.5 -82t86.5 -255v-492q0 -169 104 -169q13 0 38 4l14 -109q-67 -32 -148 -32q-138 0 -176 163zM728 245v281
l-66 2q-162 0 -262 -61.5t-100 -161.5q0 -71 50 -120t122 -49q123 0 256 109zM225 1283l241 321h218l241 -321h-148l-201 202h-2l-201 -202h-148zM225 1604q0 91 43 125l41 31l26 22q47 41 47 71q0 33 -29 49.5t-87 16.5q-52 0 -112 -19v106q72 18 140 18q118 0 177 -36
t59 -108q0 -60 -78 -128l-22 -19q-45 -39 -54 -58t-9 -71h-142z" />
    <glyph glyph-name="Ecircumflexgrave1" horiz-adv-x="1110" 
d="M191 0v1308h827v-158h-617v-409h517v-155h-517v-429h660v-157h-870zM270 1357l241 321h218l241 -321h-148l-201 202h-2l-201 -202h-148zM768 1727h-148l-321 321h228z" />
    <glyph glyph-name="ecircumflexgrave1" horiz-adv-x="1141" 
d="M993 35q-198 -60 -339 -60q-240 0 -391.5 159.5t-151.5 413.5q0 247 133.5 405t341.5 158q197 0 304.5 -140t107.5 -398l-1 -61h-685q43 -387 379 -387q123 0 302 66v-156zM321 660h479q0 303 -226 303q-227 0 -253 -303zM240 1283l241 321h218l241 -321h-148l-201 202
h-2l-201 -202h-148zM739 1727h-148l-321 321h228z" />
    <glyph glyph-name="Ecircumflexacute1" horiz-adv-x="1110" 
d="M191 0v1308h827v-158h-617v-409h517v-155h-517v-429h660v-157h-870zM270 1357l241 321h218l241 -321h-148l-201 202h-2l-201 -202h-148zM467 1727l241 321h228l-321 -321h-148z" />
    <glyph glyph-name="ecircumflexacute1" horiz-adv-x="1141" 
d="M993 35q-198 -60 -339 -60q-240 0 -391.5 159.5t-151.5 413.5q0 247 133.5 405t341.5 158q197 0 304.5 -140t107.5 -398l-1 -61h-685q43 -387 379 -387q123 0 302 66v-156zM321 660h479q0 303 -226 303q-227 0 -253 -303zM240 1283l241 321h218l241 -321h-148l-201 202
h-2l-201 -202h-148zM437 1727l241 321h228l-321 -321h-148z" />
    <glyph glyph-name="Ecircumflexhookabove1" horiz-adv-x="1110" 
d="M191 0v1308h827v-158h-617v-409h517v-155h-517v-429h660v-157h-870zM270 1384l241 321h218l241 -321h-148l-201 202h-2l-201 -202h-148zM561 1794v21q0 51 69 82l27 12q52 23 52 59q0 48 -84 48q-59 0 -138 -26v102q84 23 171 23q199 0 199 -114q0 -59 -68 -107l-21 -16
l-24 -16q-41 -26 -41 -48v-20h-142z" />
    <glyph glyph-name="ecircumflexhookabove1" horiz-adv-x="1141" 
d="M993 35q-198 -60 -339 -60q-240 0 -391.5 159.5t-151.5 413.5q0 247 133.5 405t341.5 158q197 0 304.5 -140t107.5 -398l-1 -61h-685q43 -387 379 -387q123 0 302 66v-156zM321 660h479q0 303 -226 303q-227 0 -253 -303zM231 1251l241 321h218l241 -321h-148l-201 202
h-2l-201 -202h-148zM504 1727v21q0 51 69 82l27 12q52 23 52 59q0 48 -84 48q-59 0 -138 -26v102q84 23 171 23q199 0 199 -114q0 -59 -68 -107l-21 -16l-24 -16q-41 -26 -41 -48v-20h-142z" />
    <glyph glyph-name="Ecircumflexgrave2" horiz-adv-x="1110" 
d="M191 0v1480h827v-157h-617v-475h517v-155h-517v-536h660v-157h-870zM270 1604l241 321h218l241 -321h-148l-201 202h-2l-201 -202h-148zM313 1727h-148l-321 321h228z" />
    <glyph glyph-name="ecircumflexgrave2" horiz-adv-x="1141" 
d="M993 35q-198 -60 -339 -60q-240 0 -391.5 159.5t-151.5 413.5q0 247 133.5 405t341.5 158q197 0 304.5 -140t107.5 -398l-1 -61h-685q43 -387 379 -387q123 0 302 66v-156zM321 660h479q0 303 -226 303q-227 0 -253 -303zM239 1283l241 321h218l241 -321h-148l-201 202
h-2l-201 -202h-148zM412 1579h-148l-321 321h228z" />
    <glyph glyph-name="Ecircumflexacute2" horiz-adv-x="1110" 
d="M191 0v1480h827v-157h-617v-475h517v-155h-517v-536h660v-157h-870zM270 1604l241 321h218l241 -321h-148l-201 202h-2l-201 -202h-148zM17 1727l241 321h228l-321 -321h-148z" />
    <glyph glyph-name="ecircumflexacute2" horiz-adv-x="1141" 
d="M993 35q-198 -60 -339 -60q-240 0 -391.5 159.5t-151.5 413.5q0 247 133.5 405t341.5 158q197 0 304.5 -140t107.5 -398l-1 -61h-685q43 -387 379 -387q123 0 302 66v-156zM321 660h479q0 303 -226 303q-227 0 -253 -303zM240 1283l241 321h218l241 -321h-148l-201 202
h-2l-201 -202h-148zM166 1579l241 321h228l-321 -321h-148z" />
    <glyph glyph-name="Ecircumflexhookabove2" horiz-adv-x="1110" 
d="M191 0v1480h827v-157h-617v-475h517v-155h-517v-536h660v-157h-870zM270 1604l241 321h218l241 -321h-148l-201 202h-2l-201 -202h-148zM42 1629q0 91 43 125l41 31l26 22q47 41 47 71q0 33 -29 49.5t-87 16.5q-52 0 -112 -19v106q72 18 140 18q118 0 177 -36t59 -108
q0 -60 -78 -128l-22 -19q-45 -39 -54 -58t-9 -71h-142z" />
    <glyph glyph-name="ecircumflexhookabove2" horiz-adv-x="1141" 
d="M993 35q-198 -60 -339 -60q-240 0 -391.5 159.5t-151.5 413.5q0 247 133.5 405t341.5 158q197 0 304.5 -140t107.5 -398l-1 -61h-685q43 -387 379 -387q123 0 302 66v-156zM321 660h479q0 303 -226 303q-227 0 -253 -303zM240 1283l241 321h218l241 -321h-148l-201 202
h-2l-201 -202h-148zM241 1604q0 91 43 125l41 31l26 22q47 41 47 71q0 33 -29 49.5t-87 16.5q-52 0 -112 -19v106q72 18 140 18q118 0 177 -36t59 -108q0 -60 -78 -128l-22 -19q-45 -39 -54 -58t-9 -71h-142z" />
    <glyph glyph-name="Ocircumflexgrave1" horiz-adv-x="1591" 
d="M787 -37q-301 0 -492 193.5t-191 497.5q0 307 192 499t500 192q307 0 499.5 -191.5t192.5 -497.5q0 -312 -192.5 -502.5t-508.5 -190.5zM789 120q222 0 349 143t127 393q0 244 -127 387.5t-342 143.5q-216 0 -342.5 -143.5t-126.5 -389.5q0 -243 126 -388.5t336 -145.5z
M446 1363l241 321h218l241 -321h-148l-201 202h-2l-201 -202h-148zM944 1727h-148l-321 321h228z" />
    <glyph glyph-name="ocircumflexgrave1" horiz-adv-x="1258" 
d="M622 -25q-233 0 -372 154.5t-139 413.5q0 262 139.5 414.5t378.5 152.5t378.5 -152.5t139.5 -412.5q0 -266 -140 -418t-385 -152zM625 123q313 0 313 422q0 417 -309 417q-308 0 -308 -419q0 -420 304 -420zM279 1283l241 321h218l241 -321h-148l-201 202h-2l-201 -202
h-148zM782 1727h-148l-321 321h228z" />
    <glyph glyph-name="Ocircumflexacute1" horiz-adv-x="1591" 
d="M787 -37q-301 0 -492 193.5t-191 497.5q0 307 192 499t500 192q307 0 499.5 -191.5t192.5 -497.5q0 -312 -192.5 -502.5t-508.5 -190.5zM789 120q222 0 349 143t127 393q0 244 -127 387.5t-342 143.5q-216 0 -342.5 -143.5t-126.5 -389.5q0 -243 126 -388.5t336 -145.5z
M446 1363l241 321h218l241 -321h-148l-201 202h-2l-201 -202h-148zM648 1727l241 321h228l-321 -321h-148z" />
    <glyph glyph-name="ocircumflexacute1" horiz-adv-x="1258" 
d="M622 -25q-233 0 -372 154.5t-139 413.5q0 262 139.5 414.5t378.5 152.5t378.5 -152.5t139.5 -412.5q0 -266 -140 -418t-385 -152zM625 123q313 0 313 422q0 417 -309 417q-308 0 -308 -419q0 -420 304 -420zM279 1283l241 321h218l241 -321h-148l-201 202h-2l-201 -202
h-148zM481 1727l241 321h228l-321 -321h-148z" />
    <glyph glyph-name="Ocircumflexhookabove1" horiz-adv-x="1591" 
d="M787 -37q-301 0 -492 193.5t-191 497.5q0 307 192 499t500 192q307 0 499.5 -191.5t192.5 -497.5q0 -312 -192.5 -502.5t-508.5 -190.5zM789 120q222 0 349 143t127 393q0 244 -127 387.5t-342 143.5q-216 0 -342.5 -143.5t-126.5 -389.5q0 -243 126 -388.5t336 -145.5z
M446 1399l241 321h218l241 -321h-148l-201 202h-2l-201 -202h-148zM726 1791v21q0 51 69 82l27 12q52 23 52 59q0 48 -84 48q-59 0 -138 -26v102q84 23 171 23q199 0 199 -114q0 -59 -68 -107l-21 -16l-24 -16q-41 -26 -41 -48v-20h-142z" />
    <glyph glyph-name="ocircumflexhookabove1" horiz-adv-x="1258" 
d="M622 -25q-233 0 -372 154.5t-139 413.5q0 262 139.5 414.5t378.5 152.5t378.5 -152.5t139.5 -412.5q0 -266 -140 -418t-385 -152zM625 123q313 0 313 422q0 417 -309 417q-308 0 -308 -419q0 -420 304 -420zM274 1242l241 321h218l241 -321h-148l-201 202h-2l-201 -202
h-148zM566 1695v21q0 51 69 82l27 12q52 23 52 59q0 48 -84 48q-59 0 -138 -26v102q84 23 171 23q199 0 199 -114q0 -59 -68 -107l-21 -16l-24 -16q-41 -26 -41 -48v-20h-142z" />
    <glyph glyph-name="Ocircumflexgrave2" horiz-adv-x="1591" 
d="M787 -37q-308 0 -495.5 213.5t-187.5 564.5q0 353 188.5 564.5t503.5 211.5q314 0 503 -211t189 -563q0 -359 -189 -569.5t-512 -210.5zM790 120q227 0 351 163.5t124 461.5q0 289 -124.5 452t-344.5 163q-221 0 -345 -163.5t-124 -454.5q0 -290 123 -456t340 -166z
M446 1604l241 321h218l241 -321h-148l-201 202h-2l-201 -202h-148zM494 1727h-148l-321 321h228z" />
    <glyph glyph-name="ocircumflexgrave2" horiz-adv-x="1258" 
d="M622 -25q-233 0 -372 154.5t-139 413.5q0 262 139.5 414.5t378.5 152.5t378.5 -152.5t139.5 -412.5q0 -266 -140 -418t-385 -152zM625 123q313 0 313 422q0 417 -309 417q-308 0 -308 -419q0 -420 304 -420zM279 1283l241 321h218l241 -321h-148l-201 202h-2l-201 -202
h-148zM457 1579h-148l-321 321h228z" />
    <glyph glyph-name="Ocircumflexacute2" horiz-adv-x="1591" 
d="M787 -37q-308 0 -495.5 213.5t-187.5 564.5q0 353 188.5 564.5t503.5 211.5q314 0 503 -211t189 -563q0 -359 -189 -569.5t-512 -210.5zM790 120q227 0 351 163.5t124 461.5q0 289 -124.5 452t-344.5 163q-221 0 -345 -163.5t-124 -454.5q0 -290 123 -456t340 -166z
M446 1604l241 321h218l241 -321h-148l-201 202h-2l-201 -202h-148zM198 1727l241 321h228l-321 -321h-148z" />
    <glyph glyph-name="ocircumflexacute2" horiz-adv-x="1258" 
d="M622 -25q-233 0 -372 154.5t-139 413.5q0 262 139.5 414.5t378.5 152.5t378.5 -152.5t139.5 -412.5q0 -266 -140 -418t-385 -152zM625 123q313 0 313 422q0 417 -309 417q-308 0 -308 -419q0 -420 304 -420zM279 1283l241 321h218l241 -321h-148l-201 202h-2l-201 -202
h-148zM210 1579l241 321h228l-321 -321h-148z" />
    <glyph glyph-name="Ocircumflexhookabove2" horiz-adv-x="1591" 
d="M787 -37q-308 0 -495.5 213.5t-187.5 564.5q0 353 188.5 564.5t503.5 211.5q314 0 503 -211t189 -563q0 -359 -189 -569.5t-512 -210.5zM790 120q227 0 351 163.5t124 461.5q0 289 -124.5 452t-344.5 163q-221 0 -345 -163.5t-124 -454.5q0 -290 123 -456t340 -166z
M446 1604l241 321h218l241 -321h-148l-201 202h-2l-201 -202h-148zM223 1629q0 91 43 125l41 31l26 22q47 41 47 71q0 33 -29 49.5t-87 16.5q-52 0 -112 -19v106q72 18 140 18q118 0 177 -36t59 -108q0 -60 -78 -128l-22 -19q-45 -39 -54 -58t-9 -71h-142z" />
    <glyph glyph-name="ocircumflexhookabove2" horiz-adv-x="1258" 
d="M622 -25q-233 0 -372 154.5t-139 413.5q0 262 139.5 414.5t378.5 152.5t378.5 -152.5t139.5 -412.5q0 -266 -140 -418t-385 -152zM625 123q313 0 313 422q0 417 -309 417q-308 0 -308 -419q0 -420 304 -420zM279 1283l241 321h218l241 -321h-148l-201 202h-2l-201 -202
h-148zM284 1604q0 91 43 125l41 31l26 22q47 41 47 71q0 33 -29 49.5t-87 16.5q-52 0 -112 -19v106q72 18 140 18q118 0 177 -36t59 -108q0 -60 -78 -128l-22 -19q-45 -39 -54 -58t-9 -71h-142z" />
    <glyph glyph-name="hook" 
d="M-768 1727v21q0 51 69 82l27 12q52 23 52 59q0 48 -84 48q-59 0 -138 -26v102q84 23 171 23q199 0 199 -114q0 -59 -68 -107l-21 -16l-24 -16q-41 -26 -41 -48v-20h-142z" />
    <glyph glyph-name="hookcmb.high" horiz-adv-x="1258" 
d="M561 1283q0 91 43 125l41 31l26 22q47 41 47 71q0 33 -29 49.5t-87 16.5q-52 0 -112 -19v106q72 18 140 18q118 0 177 -36t59 -108q0 -60 -78 -128l-22 -19q-45 -39 -54 -58t-9 -71h-142z" />
    <glyph glyph-name="A1" horiz-adv-x="1413" 
d="M17 0l587 1308h208l578 -1308h-227l-151 342h-647l-153 -342h-195zM436 498h507l-252 572z" />
    <glyph glyph-name="E1" horiz-adv-x="1110" 
d="M191 0v1308h827v-158h-617v-409h517v-155h-517v-429h660v-157h-870z" />
    <glyph glyph-name="O1" horiz-adv-x="1591" 
d="M787 -37q-301 0 -492 193.5t-191 497.5q0 307 192 499t500 192q307 0 499.5 -191.5t192.5 -497.5q0 -312 -192.5 -502.5t-508.5 -190.5zM789 120q222 0 349 143t127 393q0 244 -127 387.5t-342 143.5q-216 0 -342.5 -143.5t-126.5 -389.5q0 -243 126 -388.5t336 -145.5z
" />
    <glyph glyph-name="apostrophe1" horiz-adv-x="1258" 
d="M543 1150v59q38 10 57 55.5t19 125.5v16h-76v198h197v-171q0 -132 -49.5 -203t-147.5 -80z" />
    <glyph glyph-name="F1" horiz-adv-x="2048" 
d="M200 0v1184h752v-148h-554v-382h451v-148h-451v-506h-198zM1183 0v148h259v859l-259 -74v153l457 123v-1061h259v-148h-716z" />
    <glyph glyph-name="F2" horiz-adv-x="2048" 
d="M200 0v1184h752v-148h-554v-382h451v-148h-451v-506h-198zM1085 0v173q59 124 261 300q77 67 93 82l59 53q166 152 166 260q0 193 -206 193q-124 0 -336 -120v175q187 93 364 93q173 0 274 -86t101 -232q0 -156 -131 -279l-94 -84l-52 -46q-236 -211 -261 -309h538v-173
h-776z" />
    <glyph glyph-name="F3" horiz-adv-x="2048" 
d="M200 0v1184h752v-148h-554v-382h451v-148h-451v-506h-198zM1099 23v184q179 -84 315 -84q126 0 189.5 50.5t63.5 152.5q0 124 -77.5 172t-274.5 48h-79v136h69q155 0 233 51t78 153q0 87 -52 131t-156 44q-129 0 -289 -83v172q157 59 295 59q200 0 300 -73.5t100 -220.5
q0 -109 -69.5 -180.5t-207.5 -105.5q163 -26 245 -98.5t82 -191.5q0 -163 -125 -263.5t-329 -100.5q-140 0 -311 48z" />
    <glyph glyph-name="F4" horiz-adv-x="2048" 
d="M200 0v1184h752v-148h-554v-382h451v-148h-451v-506h-198zM1569 0v296h-549v148l549 740h185v-728h191v-160h-191v-296h-185zM1213 456h369v497z" />
    <glyph glyph-name="F5" horiz-adv-x="2048" 
d="M200 0v1184h752v-148h-554v-382h451v-148h-451v-506h-198zM1118 6v176q153 -59 251 -59q140 0 210.5 61t70.5 184q0 121 -85.5 182t-255.5 61q-73 0 -165 -11v584h674v-172h-502v-255q47 3 70 3q212 0 336.5 -101t124.5 -272q0 -183 -135 -297.5t-351 -114.5
q-100 0 -243 31z" />
    <glyph glyph-name="F6" horiz-adv-x="2048" 
d="M200 0v1184h752v-148h-554v-382h451v-148h-451v-506h-198zM1209 617q135 161 312 161q173 0 282.5 -105.5t109.5 -272.5q0 -185 -129 -305t-329 -120q-208 0 -325.5 151t-117.5 419q0 306 146 485t396 179q141 0 283 -55v-172q-153 79 -285 79q-172 0 -257.5 -111
t-85.5 -333zM1715 373q0 128 -57.5 192t-172.5 64q-111 0 -181 -70.5t-70 -182.5q0 -113 66 -183t174 -70q109 0 175 68.5t66 181.5z" />
    <glyph glyph-name="F7" horiz-adv-x="2048" 
d="M200 0v1184h752v-148h-554v-382h451v-148h-451v-506h-198zM1159 0q14 210 229 501l167 223l205 275h-688v185h876v-185q-271 -335 -411.5 -585t-151.5 -414h-226z" />
    <glyph glyph-name="F8" horiz-adv-x="2048" 
d="M200 0v1184h752v-148h-554v-382h451v-148h-451v-506h-198zM1270 642q-123 69 -162.5 120.5t-39.5 142.5q0 141 107.5 222.5t294.5 81.5q174 0 276 -74.5t102 -201.5q0 -172 -218 -305q160 -89 219 -153t59 -150q0 -156 -133 -253t-347 -97q-203 0 -320 82.5t-117 225.5
q0 199 279 359zM1515 685q97 71 125.5 110.5t28.5 101.5q0 82 -54.5 123t-162.5 41q-104 0 -155.5 -35t-51.5 -105q0 -74 127 -153l99 -62q7 -4 44 -21zM1378 562q-189 -105 -189 -261q0 -82 65 -130t176 -48q119 0 197.5 48t78.5 121q0 84 -205 199z" />
    <glyph glyph-name="F9" horiz-adv-x="2048" 
d="M200 0v1184h752v-148h-554v-382h451v-148h-451v-506h-198zM1749 567q-135 -160 -312 -160q-172 0 -282 105.5t-110 271.5q0 186 129 305.5t328 119.5q210 0 327.5 -150.5t117.5 -419.5q0 -305 -146.5 -484.5t-394.5 -179.5q-144 0 -285 55v173q153 -80 285 -80
q171 0 257 111t86 333zM1243 812q0 -129 57.5 -193t172.5 -64q111 0 181.5 71t70.5 182q0 114 -66.5 183.5t-174.5 69.5q-109 0 -175 -68.5t-66 -180.5z" />
    <glyph glyph-name="F10" horiz-adv-x="3072" 
d="M200 0v1184h752v-148h-554v-382h451v-148h-451v-506h-198zM1147 0v148h259v859l-259 -74v153l457 123v-1061h259v-148h-716zM2445 -25q-235 0 -372.5 166.5t-137.5 450.5q0 288 138.5 452.5t379.5 164.5t379.5 -164.5t138.5 -449.5q0 -293 -138.5 -456.5t-387.5 -163.5z
M2448 123q141 0 227.5 130t86.5 341q0 206 -86.5 336.5t-222.5 130.5t-222 -130.5t-86 -338.5q0 -205 85.5 -337t217.5 -132z" />
    <glyph glyph-name="F11" horiz-adv-x="3072" 
d="M200 0v1184h752v-148h-554v-382h451v-148h-451v-506h-198zM1171 0v148h259v859l-259 -74v153l457 123v-1061h259v-148h-716zM2171 0v148h259v859l-259 -74v153l457 123v-1061h259v-148h-716z" />
    <glyph glyph-name="F12" horiz-adv-x="3072" 
d="M200 0v1184h752v-148h-554v-382h451v-148h-451v-506h-198zM1171 0v148h259v859l-259 -74v153l457 123v-1061h259v-148h-716zM2121 0v173q59 124 261 300q77 67 93 82l59 53q166 152 166 260q0 193 -206 193q-124 0 -336 -120v175q187 93 364 93q173 0 274 -86t101 -232
q0 -156 -131 -279l-94 -84l-52 -46q-236 -211 -261 -309h538v-173h-776z" />
    <glyph glyph-name="F13" horiz-adv-x="3072" 
d="M200 0v1184h752v-148h-554v-382h451v-148h-451v-506h-198zM1183 0v148h259v859l-259 -74v153l457 123v-1061h259v-148h-716zM2131 23v184q179 -84 315 -84q126 0 189.5 50.5t63.5 152.5q0 124 -77.5 172t-274.5 48h-79v136h69q155 0 233 51t78 153q0 87 -52 131t-156 44
q-129 0 -289 -83v172q157 59 295 59q200 0 300 -73.5t100 -220.5q0 -109 -69.5 -180.5t-207.5 -105.5q163 -26 245 -98.5t82 -191.5q0 -163 -125 -263.5t-329 -100.5q-140 0 -311 48z" />
    <glyph glyph-name="F14" horiz-adv-x="3072" 
d="M200 0v1184h752v-148h-554v-382h451v-148h-451v-506h-198zM1183 0v148h259v859l-259 -74v153l457 123v-1061h259v-148h-716zM2549 0v296h-549v148l549 740h185v-728h191v-160h-191v-296h-185zM2193 456h369v497z" />
    <glyph glyph-name="F15" horiz-adv-x="3072" 
d="M200 0v1184h752v-148h-554v-382h451v-148h-451v-506h-198zM1183 0v148h259v859l-259 -74v153l457 123v-1061h259v-148h-716zM2134 6v176q153 -59 251 -59q140 0 210.5 61t70.5 184q0 121 -85.5 182t-255.5 61q-73 0 -165 -11v584h674v-172h-502v-255q47 3 70 3
q212 0 336.5 -101t124.5 -272q0 -183 -135 -297.5t-351 -114.5q-100 0 -243 31z" />
    <glyph glyph-name="zeroboxed" horiz-adv-x="2048" 
d="M136 232v720q0 219 154.5 373.5t373.5 154.5h720q219 0 374 -154.5t155 -373.5v-720q0 -219 -155 -373.5t-374 -154.5h-720q-219 0 -373.5 154.5t-154.5 373.5zM664 -222h720q189 0 322 133t133 321v720q0 188 -133 321t-322 133h-720q-188 0 -321 -133t-133 -321v-720
q0 -188 133 -321t321 -133zM1013 -25q-235 0 -372.5 166.5t-137.5 450.5q0 288 138.5 452.5t379.5 164.5t379.5 -164.5t138.5 -449.5q0 -293 -138.5 -456.5t-387.5 -163.5zM1016 123q141 0 227.5 130t86.5 341q0 206 -86.5 336.5t-222.5 130.5t-222 -130.5t-86 -338.5
q0 -205 85.5 -337t217.5 -132z" />
    <glyph glyph-name="oneboxed" horiz-adv-x="2048" 
d="M136 232v720q0 219 154.5 373.5t373.5 154.5h720q219 0 374 -154.5t155 -373.5v-720q0 -219 -155 -373.5t-374 -154.5h-720q-219 0 -373.5 154.5t-154.5 373.5zM664 -222h720q189 0 322 133t133 321v720q0 188 -133 321t-322 133h-720q-188 0 -321 -133t-133 -321v-720
q0 -188 133 -321t321 -133zM691 0v148h259v859l-259 -74v153l457 123v-1061h259v-148h-716z" />
    <glyph glyph-name="twoboxed" horiz-adv-x="2048" 
d="M136 232v720q0 219 154.5 373.5t373.5 154.5h720q219 0 374 -154.5t155 -373.5v-720q0 -219 -155 -373.5t-374 -154.5h-720q-219 0 -373.5 154.5t-154.5 373.5zM664 -222h720q189 0 322 133t133 321v720q0 188 -133 321t-322 133h-720q-188 0 -321 -133t-133 -321v-720
q0 -188 133 -321t321 -133zM633 0v173q59 124 261 300q77 67 93 82l59 53q166 152 166 260q0 193 -206 193q-124 0 -336 -120v175q187 93 364 93q173 0 274 -86t101 -232q0 -156 -131 -279l-94 -84l-52 -46q-236 -211 -261 -309h538v-173h-776z" />
    <glyph glyph-name="threeboxed" horiz-adv-x="2048" 
d="M136 232v720q0 219 154.5 373.5t373.5 154.5h720q219 0 374 -154.5t155 -373.5v-720q0 -219 -155 -373.5t-374 -154.5h-720q-219 0 -373.5 154.5t-154.5 373.5zM664 -222h720q189 0 322 133t133 321v720q0 188 -133 321t-322 133h-720q-188 0 -321 -133t-133 -321v-720
q0 -188 133 -321t321 -133zM643 23v184q179 -84 315 -84q126 0 189.5 50.5t63.5 152.5q0 124 -77.5 172t-274.5 48h-79v136h69q155 0 233 51t78 153q0 87 -52 131t-156 44q-129 0 -289 -83v172q157 59 295 59q200 0 300 -73.5t100 -220.5q0 -109 -69.5 -180.5t-207.5 -105.5
q163 -26 245 -98.5t82 -191.5q0 -163 -125 -263.5t-329 -100.5q-140 0 -311 48z" />
    <glyph glyph-name="fourboxed" horiz-adv-x="2048" 
d="M136 232v720q0 219 154.5 373.5t373.5 154.5h720q219 0 374 -154.5t155 -373.5v-720q0 -219 -155 -373.5t-374 -154.5h-720q-219 0 -373.5 154.5t-154.5 373.5zM664 -222h720q189 0 322 133t133 321v720q0 188 -133 321t-322 133h-720q-188 0 -321 -133t-133 -321v-720
q0 -188 133 -321t321 -133zM1077 0v296h-549v148l549 740h185v-728h191v-160h-191v-296h-185zM721 456h369v497z" />
    <glyph glyph-name="fiveboxed" horiz-adv-x="2048" 
d="M136 232v720q0 219 154.5 373.5t373.5 154.5h720q219 0 374 -154.5t155 -373.5v-720q0 -219 -155 -373.5t-374 -154.5h-720q-219 0 -373.5 154.5t-154.5 373.5zM664 -222h720q189 0 322 133t133 321v720q0 188 -133 321t-322 133h-720q-188 0 -321 -133t-133 -321v-720
q0 -188 133 -321t321 -133zM666 6v176q153 -59 251 -59q140 0 210.5 61t70.5 184q0 121 -85.5 182t-255.5 61q-73 0 -165 -11v584h674v-172h-502v-255q47 3 70 3q212 0 336.5 -101t124.5 -272q0 -183 -135 -297.5t-351 -114.5q-100 0 -243 31z" />
    <glyph glyph-name="sixboxed" horiz-adv-x="2048" 
d="M136 232v720q0 219 154.5 373.5t373.5 154.5h720q219 0 374 -154.5t155 -373.5v-720q0 -219 -155 -373.5t-374 -154.5h-720q-219 0 -373.5 154.5t-154.5 373.5zM664 -222h720q189 0 322 133t133 321v720q0 188 -133 321t-322 133h-720q-188 0 -321 -133t-133 -321v-720
q0 -188 133 -321t321 -133zM757 617q135 161 312 161q173 0 282.5 -105.5t109.5 -272.5q0 -185 -129 -305t-329 -120q-208 0 -325.5 151t-117.5 419q0 306 146 485t396 179q141 0 283 -55v-172q-153 79 -285 79q-172 0 -257.5 -111t-85.5 -333zM1263 373q0 128 -57.5 192
t-172.5 64q-111 0 -181 -70.5t-70 -182.5q0 -113 66 -183t174 -70q109 0 175 68.5t66 181.5z" />
    <glyph glyph-name="sevenboxed" horiz-adv-x="2048" 
d="M136 232v720q0 219 154.5 373.5t373.5 154.5h720q219 0 374 -154.5t155 -373.5v-720q0 -219 -155 -373.5t-374 -154.5h-720q-219 0 -373.5 154.5t-154.5 373.5zM664 -222h720q189 0 322 133t133 321v720q0 188 -133 321t-322 133h-720q-188 0 -321 -133t-133 -321v-720
q0 -188 133 -321t321 -133zM683 0q14 210 229 501l167 223l205 275h-688v185h876v-185q-271 -335 -411.5 -585t-151.5 -414h-226z" />
    <glyph glyph-name="eightboxed" horiz-adv-x="2048" 
d="M136 232v720q0 219 154.5 373.5t373.5 154.5h720q219 0 374 -154.5t155 -373.5v-720q0 -219 -155 -373.5t-374 -154.5h-720q-219 0 -373.5 154.5t-154.5 373.5zM664 -222h720q189 0 322 133t133 321v720q0 188 -133 321t-322 133h-720q-188 0 -321 -133t-133 -321v-720
q0 -188 133 -321t321 -133zM846 642q-123 69 -162.5 120.5t-39.5 142.5q0 141 107.5 222.5t294.5 81.5q174 0 276 -74.5t102 -201.5q0 -172 -218 -305q160 -89 219 -153t59 -150q0 -156 -133 -253t-347 -97q-203 0 -320 82.5t-117 225.5q0 199 279 359zM1091 685
q97 71 125.5 110.5t28.5 101.5q0 82 -54.5 123t-162.5 41q-104 0 -155.5 -35t-51.5 -105q0 -74 127 -153l99 -62q7 -4 44 -21zM954 562q-189 -105 -189 -261q0 -82 65 -130t176 -48q119 0 197.5 48t78.5 121q0 84 -205 199z" />
    <glyph glyph-name="nineboxed" horiz-adv-x="2048" 
d="M136 232v720q0 219 154.5 373.5t373.5 154.5h720q219 0 374 -154.5t155 -373.5v-720q0 -219 -155 -373.5t-374 -154.5h-720q-219 0 -373.5 154.5t-154.5 373.5zM664 -222h720q189 0 322 133t133 321v720q0 188 -133 321t-322 133h-720q-188 0 -321 -133t-133 -321v-720
q0 -188 133 -321t321 -133zM1277 567q-135 -160 -312 -160q-172 0 -282 105.5t-110 271.5q0 186 129 305.5t328 119.5q210 0 327.5 -150.5t117.5 -419.5q0 -305 -146.5 -484.5t-394.5 -179.5q-144 0 -285 55v173q153 -80 285 -80q171 0 257 111t86 333zM771 812
q0 -129 57.5 -193t172.5 -64q111 0 181.5 71t70.5 182q0 114 -66.5 183.5t-174.5 69.5q-109 0 -175 -68.5t-66 -180.5z" />
    <glyph glyph-name="equalboxed" horiz-adv-x="2048" 
d="M136 232v720q0 219 154.5 373.5t373.5 154.5h720q219 0 374 -154.5t155 -373.5v-720q0 -219 -155 -373.5t-374 -154.5h-720q-219 0 -373.5 154.5t-154.5 373.5zM664 -222h720q189 0 322 133t133 321v720q0 188 -133 321t-322 133h-720q-188 0 -321 -133t-133 -321v-720
q0 -188 133 -321t321 -133zM394 333v148h1184v-148h-1184zM394 703v148h1184v-148h-1184z" />
    <glyph glyph-name="periodboxed" horiz-adv-x="2048" 
d="M136 232v720q0 219 154.5 373.5t373.5 154.5h720q219 0 374 -154.5t155 -373.5v-720q0 -219 -155 -373.5t-374 -154.5h-720q-219 0 -373.5 154.5t-154.5 373.5zM664 -222h720q189 0 322 133t133 321v720q0 188 -133 321t-322 133h-720q-188 0 -321 -133t-133 -321v-720
q0 -188 133 -321t321 -133zM900 100v247h247v-247h-247z" />
    <glyph glyph-name="plusboxed" horiz-adv-x="2048" 
d="M136 232v720q0 219 154.5 373.5t373.5 154.5h720q219 0 374 -154.5t155 -373.5v-720q0 -219 -155 -373.5t-374 -154.5h-720q-219 0 -373.5 154.5t-154.5 373.5zM664 -222h720q189 0 322 133t133 321v720q0 188 -133 321t-322 133h-720q-188 0 -321 -133t-133 -321v-720
q0 -188 133 -321t321 -133zM952 0v518h-518v148h518v518h148v-518h518v-148h-518v-518h-148z" />
    <glyph glyph-name="hyphenboxed" horiz-adv-x="2048" 
d="M136 232v720q0 219 154.5 373.5t373.5 154.5h720q219 0 374 -154.5t155 -373.5v-720q0 -219 -155 -373.5t-374 -154.5h-720q-219 0 -373.5 154.5t-154.5 373.5zM664 -222h720q189 0 322 133t133 321v720q0 188 -133 321t-322 133h-720q-188 0 -321 -133t-133 -321v-720
q0 -188 133 -321t321 -133zM580 518v148h888v-148h-888z" />
    <glyph glyph-name="asteriskboxed" horiz-adv-x="2048" 
d="M136 232v720q0 219 154.5 373.5t373.5 154.5h720q219 0 374 -154.5t155 -373.5v-720q0 -219 -155 -373.5t-374 -154.5h-720q-219 0 -373.5 154.5t-154.5 373.5zM664 -222h720q189 0 322 133t133 321v720q0 188 -133 321t-322 133h-720q-188 0 -321 -133t-133 -321v-720
q0 -188 133 -321t321 -133zM1362 956l46 -141l-303 -66q2 11 2 15q0 41 -29 67zM1307 504l-120 -86l-156 267q50 6 70 51zM861 418l-120 86l207 232q19 -45 69 -51zM641 815l45 141l284 -125q-29 -25 -29 -67q0 -4 2 -15zM950 1147h148l-31 -308q-18 10 -43 10t-43 -10z" />
    <glyph glyph-name="slashboxed" horiz-adv-x="2048" 
d="M136 232v720q0 219 154.5 373.5t373.5 154.5h720q219 0 374 -154.5t155 -373.5v-720q0 -219 -155 -373.5t-374 -154.5h-720q-219 0 -373.5 154.5t-154.5 373.5zM664 -222h720q189 0 322 133t133 321v720q0 188 -133 321t-322 133h-720q-188 0 -321 -133t-133 -321v-720
q0 -188 133 -321t321 -133zM769 0l356 1184h154l-355 -1184h-155z" />
    <glyph glyph-name="zerosmall" horiz-adv-x="1234" 
d="M609 -25q-235 0 -372.5 166.5t-137.5 450.5q0 288 138.5 452.5t379.5 164.5t379.5 -164.5t138.5 -449.5q0 -293 -138.5 -456.5t-387.5 -163.5zM612 123q141 0 227.5 130t86.5 341q0 206 -86.5 336.5t-222.5 130.5t-222 -130.5t-86 -338.5q0 -205 85.5 -337t217.5 -132z
" />
    <glyph glyph-name="onesmall" horiz-adv-x="1234" 
d="M331 0v148h259v859l-259 -74v153l457 123v-1061h259v-148h-716z" />
    <glyph glyph-name="twosmall" horiz-adv-x="1234" 
d="M229 0v173q59 124 261 300q77 67 93 82l59 53q166 152 166 260q0 193 -206 193q-124 0 -336 -120v175q187 93 364 93q173 0 274 -86t101 -232q0 -156 -131 -279l-94 -84l-52 -46q-236 -211 -261 -309h538v-173h-776z" />
    <glyph glyph-name="threesmall" horiz-adv-x="1234" 
d="M247 23v184q179 -84 315 -84q126 0 189.5 50.5t63.5 152.5q0 124 -77.5 172t-274.5 48h-79v136h69q155 0 233 51t78 153q0 87 -52 131t-156 44q-129 0 -289 -83v172q157 59 295 59q200 0 300 -73.5t100 -220.5q0 -109 -69.5 -180.5t-207.5 -105.5q163 -26 245 -98.5
t82 -191.5q0 -163 -125 -263.5t-329 -100.5q-140 0 -311 48z" />
    <glyph glyph-name="foursmall" horiz-adv-x="1234" 
d="M697 0v296h-549v148l549 740h185v-728h191v-160h-191v-296h-185zM341 456h369v497z" />
    <glyph glyph-name="fivesmall" horiz-adv-x="1234" 
d="M250 6v176q153 -59 251 -59q140 0 210.5 61t70.5 184q0 121 -85.5 182t-255.5 61q-73 0 -165 -11v584h674v-172h-502v-255q47 3 70 3q212 0 336.5 -101t124.5 -272q0 -183 -135 -297.5t-351 -114.5q-100 0 -243 31z" />
    <glyph glyph-name="sixsmall" horiz-adv-x="1234" 
d="M349 617q135 161 312 161q173 0 282.5 -105.5t109.5 -272.5q0 -185 -129 -305t-329 -120q-208 0 -325.5 151t-117.5 419q0 306 146 485t396 179q141 0 283 -55v-172q-153 79 -285 79q-172 0 -257.5 -111t-85.5 -333zM855 373q0 128 -57.5 192t-172.5 64
q-111 0 -181 -70.5t-70 -182.5q0 -113 66 -183t174 -70q109 0 175 68.5t66 181.5z" />
    <glyph glyph-name="sevensmall" horiz-adv-x="1234" 
d="M291 0q14 210 229 501l167 223l205 275h-688v185h876v-185q-271 -335 -411.5 -585t-151.5 -414h-226z" />
    <glyph glyph-name="eightsmall" horiz-adv-x="1234" 
d="M438 642q-123 69 -162.5 120.5t-39.5 142.5q0 141 107.5 222.5t294.5 81.5q174 0 276 -74.5t102 -201.5q0 -172 -218 -305q160 -89 219 -153t59 -150q0 -156 -133 -253t-347 -97q-203 0 -320 82.5t-117 225.5q0 199 279 359zM683 685q97 71 125.5 110.5t28.5 101.5
q0 82 -54.5 123t-162.5 41q-104 0 -155.5 -35t-51.5 -105q0 -74 127 -153l99 -62q7 -4 44 -21zM546 562q-189 -105 -189 -261q0 -82 65 -130t176 -48q119 0 197.5 48t78.5 121q0 84 -205 199z" />
    <glyph glyph-name="ninesmall" horiz-adv-x="1234" 
d="M885 567q-135 -160 -312 -160q-172 0 -282 105.5t-110 271.5q0 186 129 305.5t328 119.5q210 0 327.5 -150.5t117.5 -419.5q0 -305 -146.5 -484.5t-394.5 -179.5q-144 0 -285 55v173q153 -80 285 -80q171 0 257 111t86 333zM379 812q0 -129 57.5 -193t172.5 -64
q111 0 181.5 71t70.5 182q0 114 -66.5 183.5t-174.5 69.5q-109 0 -175 -68.5t-66 -180.5z" />
    <glyph glyph-name="Fsmall" horiz-adv-x="1079" 
d="M247 0v1184h752v-148h-554v-382h451v-148h-451v-506h-198z" />
    <glyph glyph-name="boxed" horiz-adv-x="2048" 
d="M136 232v720q0 219 154.5 373.5t373.5 154.5h720q219 0 374 -154.5t155 -373.5v-720q0 -219 -155 -373.5t-374 -154.5h-720q-219 0 -373.5 154.5t-154.5 373.5zM664 -222h720q189 0 322 133t133 321v720q0 188 -133 321t-322 133h-720q-188 0 -321 -133t-133 -321v-720
q0 -188 133 -321t321 -133z" />
    <glyph glyph-name="controliso" unicode="&#x2388;" horiz-adv-x="2048" 
d="M552 382l2 -3q146 -194 393 -226l3 -1v460zM950 -197v200q-326 44 -527 305l-174 -101l-74 128l174 101q-65 158 -65 304q0 145 65 305l-174 100l74 128l174 -100q201 259 527 304v201h148v-201q325 -46 527 -304l174 100l74 -128l-174 -100q65 -160 65 -305
q0 -146 -65 -304l174 -101l-74 -128l-174 101q-202 -260 -527 -305v-200h-148zM1496 1098l-2 3q-146 194 -393 227h-3v-460zM950 1328h-3q-239 -29 -393 -227l-2 -3l398 -230v460zM478 970l-1 -3q-45 -103 -45 -228q0 -116 45 -226l1 -3l398 230zM1098 152l3 1
q239 29 393 227l2 2l-398 230v-460zM1570 510l1 4q45 103 45 227q0 116 -45 226l-1 3l-398 -230z" />
    <glyph glyph-name="optioniso" unicode="&#x2387;" horiz-adv-x="2048" 
d="M1184 0v148h692v-148h-692zM1876 1480v-148h-459l-666 -1332h-578v148h458l667 1332h578z" />
    <glyph glyph-name="whitecircle" unicode="&#x25cb;" horiz-adv-x="1184" 
d="M575 185q-180 0 -309.5 131t-129.5 313q0 184 130 314t314 130t314 -130t130 -313q0 -187 -130.5 -316t-318.5 -129zM576 259q156 0 265 108t109 263q0 152 -108.5 260.5t-261.5 108.5t-261.5 -108.5t-108.5 -261.5q0 -151 108 -260.5t258 -109.5z" />
    <glyph glyph-name="rupee1" unicode="&#x20a8;" horiz-adv-x="1898" 
d="M419 783h44q165 0 263.5 82.5t98.5 220.5q0 127 -78 182t-257 55h-71v-540zM222 0v1480h375q440 0 440 -366q0 -308 -293 -416l381 -698h-229l-342 626h-135v-626h-197zM1162 24v160q165 -75 284 -75q152 0 152 114q0 72 -122 122l-87 36q-223 91 -223 254q0 119 88 186
t244 67q91 0 234 -29v-148q-139 44 -225 44q-148 0 -148 -101q0 -66 112 -111l73 -29q141 -56 198 -116.5t57 -152.5q0 -118 -96 -194t-244 -76q-140 0 -297 49z" />
    <glyph glyph-name="yodyodpatahhebrew" unicode="&#xfb1f;" horiz-adv-x="1227" 
d="M437 517h-175q49 225 49 324q0 80 -55 120t-213 77l90 171q200 -34 281.5 -109.5t81.5 -224.5q0 -90 -49 -311q-3 -16 -10 -47zM1013 517h-174q48 225 48 324q0 80 -54.5 120t-213.5 77l91 171q199 -34 281 -109.5t82 -224.5q0 -90 -50 -311q-3 -16 -10 -47zM129 197v99
h943v-99h-943z" />
    <glyph glyph-name="shinshindothebrew" unicode="&#xfb2a;" horiz-adv-x="1467" 
d="M260 0l-143 1140l181 69l65 -684q150 17 216.5 133.5t66.5 362.5v163h185v-147q0 -310 -104 -461.5t-346 -195.5l24 -183q778 0 778 856v131h185v-112q0 -467 -230 -729q-150 -171 -339.5 -248.5t-492.5 -92.5zM1214 1332v124h124v-124h-124z" />
    <glyph glyph-name="shinsindothebrew" unicode="&#xfb2b;" horiz-adv-x="1467" 
d="M260 0l-143 1140l181 69l65 -684q150 17 216.5 133.5t66.5 362.5v163h185v-147q0 -310 -104 -461.5t-346 -195.5l24 -183q778 0 778 856v131h185v-112q0 -467 -230 -729q-150 -171 -339.5 -248.5t-492.5 -92.5zM151 1332v124h124v-124h-124z" />
    <glyph glyph-name="shindageshshindothebrew" unicode="&#xfb2c;" horiz-adv-x="1467" 
d="M260 0l-143 1140l181 69l65 -684q150 17 216.5 133.5t66.5 362.5v163h185v-147q0 -310 -104 -461.5t-346 -195.5l24 -183q778 0 778 856v131h185v-112q0 -467 -230 -729q-150 -171 -339.5 -248.5t-492.5 -92.5zM1214 1332v124h124v-124h-124zM912 740v148h148v-148h-148z
" />
    <glyph glyph-name="shindageshsindothebrew" unicode="&#xfb2d;" horiz-adv-x="1467" 
d="M260 0l-143 1140l181 69l65 -684q150 17 216.5 133.5t66.5 362.5v163h185v-147q0 -310 -104 -461.5t-346 -195.5l24 -183q778 0 778 856v131h185v-112q0 -467 -230 -729q-150 -171 -339.5 -248.5t-492.5 -92.5zM151 1332v124h124v-124h-124zM912 740v148h148v-148h-148z
" />
    <glyph glyph-name="betdageshhebrew" unicode="&#xfb31;" horiz-adv-x="1153" 
d="M37 0l66 197h652v469q0 231 -38.5 276t-233.5 45h-355l66 197h289q282 0 363.5 -87.5t81.5 -393.5v-506h148l-65 -197h-974zM328 543v148h148v-148h-148z" />
    <glyph glyph-name="gimeldageshhebrew" unicode="&#xfb32;" horiz-adv-x="875" 
d="M166 1039l90 170q214 -79 275.5 -144.5t91.5 -246.5l17 -103l41 -256q51 -314 100 -459h-186q-9 36 -11 43l-21 96q-24 109 -34 170q-146 -159 -414 -334l-76 176q289 163 463 335l-39 223q-27 162 -76.5 217t-220.5 113zM196 543v148h148v-148h-148z" />
    <glyph glyph-name="daletdageshhebrew" unicode="&#xfb33;" horiz-adv-x="1026" 
d="M631 0v987h-619l66 197h942l-66 -197h-150v-987h-173zM242 543v148h148v-148h-148z" />
    <glyph glyph-name="hedageshhebrew" unicode="&#xfb34;" horiz-adv-x="1458" 
d="M77 987l66 197h686q282 0 363.5 -87.5t81.5 -393.5v-703h-173v666q0 230 -38.5 275.5t-233.5 45.5h-752zM398 691v-691h-173v691h173zM657 543v148h148v-148h-148z" />
    <glyph glyph-name="vavdageshhebrew" unicode="&#xfb35;" horiz-adv-x="655" 
d="M297 0v716q0 170 -50 227t-235 97l85 169q224 -32 298.5 -125t74.5 -344v-740h-173zM42 543v148h148v-148h-148z" />
    <glyph glyph-name="zayindageshhebrew" unicode="&#xfb36;" horiz-adv-x="697" 
d="M165 0v565q0 233 101 355l-247 114l72 175l569 -262l-73 -176l-183 86q-67 -64 -67 -260v-597h-172zM-89 543v148h148v-148h-148z" />
    <glyph glyph-name="tetdageshhebrew" unicode="&#xfb38;" horiz-adv-x="1319" 
d="M260 0l-143 1140l182 69l106 -1012q292 15 467 169t175 397q0 261 -255 261q-60 0 -122 -19l63 190q55 14 105 14q182 0 282 -108.5t100 -306.5q0 -221 -138.5 -412.5t-375.5 -298.5q-185 -83 -446 -83zM590 568v148h148v-148h-148z" />
    <glyph glyph-name="yoddageshhebrew" unicode="&#xfb39;" horiz-adv-x="650" 
d="M433 493h-175q53 221 53 343q0 84 -54 124.5t-214 77.5l86 171q198 -29 282.5 -107t84.5 -232q0 -112 -49 -317zM48 691v148h148v-148h-148z" />
    <glyph glyph-name="kaffinaldageshhebrew" unicode="&#xfb3a;" horiz-adv-x="1081" 
d="M711 -296v1283h-680l66 197h787v-1480h-173zM308 543v148h148v-148h-148z" />
    <glyph glyph-name="kafdageshhebrew" unicode="&#xfb3b;" horiz-adv-x="1171" 
d="M62 0l66 197h602q121 226 121 431q0 202 -82.5 280.5t-294.5 78.5h-344l66 197h287q176 0 265 -28t154 -105q115 -137 115 -383q0 -220 -116 -471l-64 -197h-775zM348 543v148h148v-148h-148z" />
    <glyph glyph-name="lameddageshhebrew" unicode="&#xfb3c;" horiz-adv-x="1092" 
d="M150 -25l70 210q200 20 340 152q89 83 150 222t61 257q0 98 -76 134.5t-280 36.5h-316v559l173 58v-420h278q220 0 313 -70t93 -236q0 -321 -229 -577.5t-577 -325.5zM225 543v148h148v-148h-148z" />
    <glyph glyph-name="memdageshhebrew" unicode="&#xfb3e;" horiz-adv-x="1417" 
d="M91 0l155 583q27 103 27 172q0 133 -223 357l151 97q131 -108 214 -279q157 279 412 279q364 0 405 -528l37 -484l-66 -197h-607l66 197h432l-33 431q-29 384 -263 384q-144 0 -233 -124t-174 -443l-118 -445h-182zM698 543v148h148v-148h-148z" />
    <glyph glyph-name="nundageshhebrew" unicode="&#xfb40;" horiz-adv-x="846" 
d="M37 0l66 197h385v541q0 134 -34 174t-209 115l-26 11l85 171q141 -51 240 -119q72 -49 94.5 -111.5t22.5 -214.5v-567l-66 -197h-558zM267 543v148h148v-148h-148z" />
    <glyph glyph-name="samekhdageshhebrew" unicode="&#xfb41;" horiz-adv-x="1361" 
d="M288 0l-120 987h-149l66 197h684q269 0 363 -63.5t94 -246.5q0 -208 -106 -402.5t-286 -318.5q-200 -137 -546 -153zM437 197q186 0 328 95q116 77 196 228t80 292q0 106 -70.5 140.5t-287.5 34.5h-342zM674 543v148h148v-148h-148z" />
    <glyph glyph-name="pehfinaldageshhebrew" unicode="&#xfb43;" horiz-adv-x="1073" 
d="M716 -296v924q0 154 -36.5 199.5t-195.5 90.5l-241 68l-22 -68q-18 -53 -18 -85q0 -127 144 -127h14l-56 -169q-268 26 -268 231q0 86 70 282l57 159l430 -114q177 -47 235.5 -115.5t58.5 -228.5v-1047h-172zM527 499v148h148v-148h-148z" />
    <glyph glyph-name="pedageshhebrew" unicode="&#xfb44;" horiz-adv-x="1172" 
d="M814 197v431q0 154 -36 199.5t-195 90.5l-242 68l-22 -68q-17 -52 -17 -85q0 -127 143 -127h15l-56 -169q-268 26 -268 231q0 85 70 282l56 159l431 -114q177 -47 235.5 -115.5t58.5 -228.5v-554l-66 -197h-872l66 197h699zM625 499v148h148v-148h-148z" />
    <glyph glyph-name="tsadidageshhebrew" unicode="&#xfb46;" horiz-adv-x="1177" 
d="M31 0l66 185h639q-194 169 -381.5 454.5t-252.5 509.5l176 60q111 -334 348 -621q138 125 184.5 227.5t46.5 281.5v87h186v-35q0 -395 -322 -673q188 -208 301 -291l-61 -185h-930zM240 363v148h148v-148h-148z" />
    <glyph glyph-name="qofdageshhebrew" unicode="&#xfb47;" horiz-adv-x="1364" 
d="M223 -296v982h172v-982h-172zM74 987l66 197h634q265 0 359.5 -64.5t94.5 -246.5q0 -298 -198 -542t-530 -355l70 209q193 50 333 235.5t140 392.5q0 172 -244 172l-127 2h-598zM662 543v148h148v-148h-148z" />
    <glyph glyph-name="reshdageshhebrew" unicode="&#xfb48;" horiz-adv-x="1044" 
d="M686 0v666q0 230 -38.5 275.5t-232.5 45.5h-359l66 197h293q282 0 363 -88t81 -393v-703h-173zM366 543v148h148v-148h-148z" />
    <glyph glyph-name="shindageshhebrew" unicode="&#xfb49;" horiz-adv-x="1467" 
d="M260 0l-143 1140l181 69l65 -684q150 17 216.5 133.5t66.5 362.5v163h185v-147q0 -310 -104 -461.5t-346 -195.5l24 -183q778 0 778 856v131h185v-112q0 -467 -230 -729q-150 -171 -339.5 -248.5t-492.5 -92.5zM912 740v148h148v-148h-148z" />
    <glyph glyph-name="tavdageshhebrew" unicode="&#xfb4a;" horiz-adv-x="1421" 
d="M29 0l66 197h307q-108 245 -108 642v148h-151l66 197h582q282 0 363.5 -87.5t81.5 -393.5v-703h-173v666q0 231 -38.5 276t-233.5 45h-324v-119q0 -252 24 -382.5t99 -288.5l-66 -197h-495zM775 543v148h148v-148h-148z" />
    <glyph glyph-name="vavholamhebrew" unicode="&#xfb4b;" horiz-adv-x="655" 
d="M297 0v716q0 170 -50 227t-235 97l85 169q224 -32 298.5 -125t74.5 -344v-740h-173zM38 1356v124h124v-124h-124z" />
    <glyph glyph-name="eject" unicode="&#x23cf;" horiz-adv-x="1755" 
d="M131 192v287h1493v-287h-1493zM127 663l750 767l751 -767h-1501z" />
    <glyph glyph-name="eject" unicode="&#xf804;" horiz-adv-x="1755" 
d="M131 192v287h1493v-287h-1493zM127 663l750 767l751 -767h-1501z" />
    <glyph glyph-name="horncmb" unicode="&#x31b;" horiz-adv-x="123" 
d="M-198 767v97q161 0 161 222v98h148v-49q0 -172 -80 -270t-222 -98h-7z" />
    <glyph glyph-name="zerowidthjoiner" unicode="&#x200d;" 
 />
    <glyph glyph-name="replacement" unicode="&#xfffd;" horiz-adv-x="2048" 
d="M0 768l1024 1024l1024 -1024l-1024 -1024zM888 0h272v226h-272v-226zM888 384h272v78q0 127 16 171.5t88 112.5l62 59q150 143 150 275q0 144 -125.5 227.5t-342.5 83.5q-174 0 -357 -56v-207q179 82 317 82q214 0 214 -171q0 -114 -132 -260l-64 -71q-98 -108 -98 -298
v-26z" />
    <glyph glyph-name="e_circumflex_macron" horiz-adv-x="1141" 
d="M993 35q-198 -60 -339 -60q-240 0 -391.5 159.5t-151.5 413.5q0 247 133.5 405t341.5 158q197 0 304.5 -140t107.5 -398l-1 -61h-685q43 -387 379 -387q123 0 302 66v-156zM321 660h479q0 303 -226 303q-227 0 -253 -303zM235 1283l241 321h219l240 -321h-148l-201 202
h-2l-200 -202h-149zM264 1752v148h642v-148h-642z" />
    <glyph glyph-name="E_circumflex_macron" horiz-adv-x="1110" 
d="M191 0v1480h827v-157h-617v-475h517v-155h-517v-536h660v-157h-870zM265 1604l241 321h218l241 -321h-148l-201 202h-2l-201 -202h-148zM294 2073v148h642v-148h-642z" />
    <glyph glyph-name="e_circumflex_caron" horiz-adv-x="1141" 
d="M993 35q-198 -60 -339 -60q-240 0 -391.5 159.5t-151.5 413.5q0 247 133.5 405t341.5 158q197 0 304.5 -140t107.5 -398l-1 -61h-685q43 -387 379 -387q123 0 302 66v-156zM321 660h479q0 303 -226 303q-227 0 -253 -303zM235 1283l241 321h219l240 -321h-148l-201 202
h-2l-200 -202h-149zM935 2060l-241 -320h-218l-241 320h149l200 -201h2l201 201h148z" />
    <glyph glyph-name="E_circumflex_caron" horiz-adv-x="1110" 
d="M191 0v1480h827v-157h-617v-475h517v-155h-517v-536h660v-157h-870zM265 1604l241 321h218l241 -321h-148l-201 202h-2l-201 -202h-148zM965 2381l-241 -321h-218l-241 321h148l201 -201h2l201 201h148z" />
    <glyph glyph-name="keycap.enclosing" unicode="&#x20e3;" 
d="M-2079 225v1065q0 323 228.5 551.5t552.5 228.5h1064q323 0 551.5 -228.5t228.5 -551.5v-1065q0 -323 -228.5 -551.5t-551.5 -228.5h-1064q-324 0 -552.5 228.5t-228.5 551.5zM-1298 -444h1063q278 0 474 196t196 474v1063q0 278 -196 474t-474 196h-1063
q-277 0 -473.5 -196t-196.5 -474v-1063q0 -278 196.5 -474t473.5 -196z" />
    <glyph glyph-name="vavhebrew_vavhebrew" unicode="&#x5f0;" horiz-adv-x="1261" 
d="M297 0v716q0 170 -50 227t-235 97l85 169q224 -32 298.5 -125t74.5 -344v-740h-173zM903 0v716q0 170 -50 227t-235 97l84 169q225 -32 299 -125t74 -344v-740h-172z" />
    <glyph glyph-name="circlecmb" unicode="&#x20dd;" 
d="M-2075 772q0 -514 353.5 -871t863.5 -357q501 0 856 356t355 858t-355.5 858t-858.5 356q-497 0 -855.5 -354t-358.5 -846zM-2186 774q0 536 391 922.5t934 386.5q549 0 937 -388.5t388 -936.5t-387.5 -936.5t-934.5 -388.5q-556 0 -942 389.5t-386 951.5z" />
    <glyph glyph-name="verticalbar" unicode="&#x2758;" horiz-adv-x="592" 
d="M222 0v1480h148v-1480h-148z" />
    <glyph glyph-name="TEChint.next2" unicode="&#xf860;" 
 />
    <glyph glyph-name="TEChint.next3" unicode="&#xf861;" 
 />
    <glyph glyph-name="TEChint.vartag1" unicode="&#xf87f;" 
 />
    <glyph glyph-name="asterisk.propeller" horiz-adv-x="987" 
d="M832 1289l45 -141l-303 -66q3 11 3 15q0 41 -29 67zM777 838l-120 -87l-157 267q51 6 70 51zM331 751l-120 87l206 231q20 -45 70 -51zM110 1148l46 141l284 -125q-29 -25 -29 -67q0 -4 2 -15zM420 1480h148l-31 -308q-18 11 -43 11t-43 -11z" />
    <glyph glyph-name="Dafrican" unicode="&#x189;" horiz-adv-x="1553" 
d="M210 0v688h-173v148h173v644h492q221 0 356 -49t234 -166q157 -186 157 -490q0 -343 -184 -556q-188 -219 -560 -219h-495zM420 157h269q289 0 408 155q129 165 129 443q0 261 -127 410q-77 91 -184 124.5t-322 33.5h-173v-487h333v-148h-333v-531z" />
    <glyph glyph-name="Ereversed" unicode="&#x18e;" horiz-adv-x="1110" 
d="M919 0h-870v157h661v536h-518v155h518v475h-617v157h826v-1480z" />
    <glyph glyph-name="Tonetwo" unicode="&#x1a7;" horiz-adv-x="1103" 
d="M1003 28q-232 -65 -382 -65q-235 0 -377 117t-142 311q0 135 76 232t267 206l107 60q138 79 190 136t52 131q0 89 -71.5 146.5t-180.5 57.5q-114 0 -348 -92v192q190 57 361 57q192 0 316 -110.5t124 -281.5q0 -127 -77.5 -222.5t-266.5 -203.5l-102 -59
q-133 -75 -183 -136t-50 -148q0 -106 76 -171t200 -65q161 0 411 116v-208z" />
    <glyph glyph-name="tonetwo" unicode="&#x1a8;" horiz-adv-x="1043" 
d="M887 38q-193 -63 -329 -63q-176 0 -288.5 92t-112.5 235q0 113 67 188.5t228 143.5l95 40q143 61 143 150q0 138 -190 138q-96 0 -261 -49v164l41 8q134 25 226 25q174 0 274 -81.5t100 -223.5q0 -199 -254 -305l-116 -49q-156 -66 -156 -167q0 -69 56 -115t141 -46
q143 0 336 96v-181z" />
    <glyph glyph-name="Esh" unicode="&#x1a9;" horiz-adv-x="1215" 
d="M62 0v188l574 574l-549 561v157h1042v-157h-767l523 -534l-601 -601h876v-188h-1098z" />
    <glyph glyph-name="Upsilonafrican" unicode="&#x1b1;" horiz-adv-x="1604" 
d="M1542 1480v-154h-407q358 -270 358 -678q0 -300 -194 -492.5t-497 -192.5t-497 192.5t-194 493.5q0 408 358 677h-407v154h611v-154q-340 -229 -340 -663q0 -256 125 -401t344 -145q220 0 344.5 145.5t124.5 401.5q0 433 -339 662v154h610z" />
    <glyph glyph-name="clickretroflex" unicode="&#x1c3;" horiz-adv-x="592" 
d="M197 0v197h197v-197h-197zM234 419l-37 765v296h197v-296l-37 -765h-123z" />
    <glyph glyph-name="DZcaron" unicode="&#x1c4;" horiz-adv-x="2672" 
d="M191 0v1480h492q220 0 355.5 -49t234.5 -166q157 -186 157 -490q0 -369 -195 -572t-549 -203h-495zM401 157h269q288 0 408 155q129 165 129 443q0 261 -127 410q-77 91 -184 124.5t-322 33.5h-173v-1166zM1528 0v168l795 1155h-746v157h998v-157l-794 -1155h794v-168
h-1047zM2401 1925l-240 -321h-219l-240 321h148l201 -202l202 202h148z" />
    <glyph glyph-name="Dzcaron" unicode="&#x1c5;" horiz-adv-x="2633" 
d="M191 0v1480h492q220 0 355.5 -49t234.5 -166q157 -186 157 -490q0 -369 -195 -572t-549 -203h-495zM401 157h269q288 0 408 155q129 165 129 443q0 261 -127 410q-77 91 -184 124.5t-322 33.5h-173v-1166zM1582 0v148l673 790h-642v148h885v-148l-673 -790h685v-148h-928
zM2393 1604l-241 -321h-218l-241 321h149l200 -202h2l201 202h148z" />
    <glyph glyph-name="dzcaron" unicode="&#x1c6;" horiz-adv-x="2365" 
d="M894 0v204q-120 -229 -362 -229q-196 0 -308.5 143t-112.5 391q0 271 127.5 436t335.5 165q193 0 320 -148v617h198v-1579h-198zM894 827q-153 135 -290 135q-135 0 -209 -113t-74 -320q0 -381 252 -381q164 0 321 179v500zM1314 0v148l672 790h-641v148h884v-148
l-672 -790h685v-148h-928zM2125 1604l-241 -321h-219l-240 321h148l201 -202h2l200 202h149z" />
    <glyph glyph-name="LJ" unicode="&#x1c7;" horiz-adv-x="1756" 
d="M191 0v1480h210v-1323h666v-157h-876zM936 -275v186q120 -39 212 -39q119 0 167 68.5t48 239.5v1300h210v-1293q0 -483 -457 -483q-70 0 -180 21z" />
    <glyph glyph-name="Lj" unicode="&#x1c8;" horiz-adv-x="1684" 
d="M191 0v1480h210v-1323h666v-157h-876zM907 -369v156q137 -58 209 -58q104 0 138.5 54t34.5 217v1086h197v-1086q0 -419 -353 -419q-106 0 -226 50zM1277 1283v197h197v-197h-197z" />
    <glyph glyph-name="lj" unicode="&#x1c9;" horiz-adv-x="1135" 
d="M197 0v1579h197v-1579h-197zM357 -369v156q138 -58 210 -58q104 0 138.5 54t34.5 217v1086h197v-1086q0 -419 -353 -419q-106 0 -227 50zM740 1283v197h197v-197h-197z" />
    <glyph glyph-name="NJ" unicode="&#x1ca;" horiz-adv-x="2135" 
d="M191 0v1480h206l745 -1143v1143h180v-1480h-205l-746 1143v-1143h-180zM1314 -275v186q120 -39 213 -39q119 0 167 68.5t48 239.5v1300h209v-1293q0 -483 -457 -483q-70 0 -180 21z" />
    <glyph glyph-name="Nj" unicode="&#x1cb;" horiz-adv-x="2099" 
d="M191 0v1480h206l745 -1143v1143h180v-1480h-205l-746 1143v-1143h-180zM1322 -369v156q138 -58 210 -58q104 0 138.5 54t34.5 217v1086h197v-1086q0 -419 -353 -419q-106 0 -227 50zM1705 1283v197h197v-197h-197z" />
    <glyph glyph-name="nj" unicode="&#x1cc;" horiz-adv-x="1851" 
d="M197 0v1086h197v-204q156 228 382 228q141 0 225 -89.5t84 -240.5v-780h-197v716q0 121 -35.5 172.5t-117.5 51.5q-181 0 -341 -237v-703h-197zM1073 -369v156q138 -58 210 -58q104 0 138 54t34 217v1086h198v-1086q0 -419 -354 -419q-105 0 -226 50zM1455 1283v197h198
v-197h-198z" />
    <glyph glyph-name="Acaron" unicode="&#x1cd;" horiz-adv-x="1413" 
d="M17 0l587 1480h208l578 -1480h-227l-161 410h-627l-163 -410h-195zM436 566h505l-252 638zM1058 1925l-241 -321h-218l-241 321h148l202 -202l202 202h148z" />
    <glyph glyph-name="acaron" unicode="&#x1ce;" horiz-adv-x="1131" 
d="M757 138q-177 -163 -341 -163q-135 0 -224 84.5t-89 213.5q0 178 149.5 273.5t428.5 95.5h47v131q0 189 -194 189q-156 0 -337 -96v163q199 81 373 81q182 0 268.5 -82t86.5 -255v-492q0 -169 104 -169q13 0 38 4l14 -109q-67 -32 -148 -32q-138 0 -176 163zM728 245v281
l-66 2q-162 0 -262 -61.5t-100 -161.5q0 -71 50 -120t122 -49q123 0 256 109zM924 1604l-240 -321h-219l-240 321h148l201 -202l202 202h148z" />
    <glyph glyph-name="Icaron" unicode="&#x1cf;" horiz-adv-x="590" 
d="M190 0v1480h210v-1480h-210zM645 1925l-241 -321h-218l-241 321h148l202 -202l202 202h148z" />
    <glyph glyph-name="icaron" unicode="&#x1d0;" horiz-adv-x="592" 
d="M197 0v1086h197v-1086h-197zM646 1604l-241 -321h-219l-240 321h148l201 -202l203 202h148z" />
    <glyph glyph-name="Ocaron" unicode="&#x1d1;" horiz-adv-x="1591" 
d="M787 -37q-308 0 -495.5 213.5t-187.5 564.5q0 353 188.5 564.5t503.5 211.5q314 0 503 -211t189 -563q0 -359 -189 -569.5t-512 -210.5zM790 120q227 0 351 163.5t124 461.5q0 289 -124.5 452t-344.5 163q-221 0 -345 -163.5t-124 -454.5q0 -290 123 -456t340 -166z
M1146 1925l-241 -321h-218l-241 321h148l202 -202l202 202h148z" />
    <glyph glyph-name="ocaron" unicode="&#x1d2;" horiz-adv-x="1258" 
d="M622 -25q-233 0 -372 154.5t-139 413.5q0 262 139.5 414.5t378.5 152.5t378.5 -152.5t139.5 -412.5q0 -266 -140 -418t-385 -152zM625 123q313 0 313 422q0 417 -309 417q-308 0 -308 -419q0 -199 80 -309.5t224 -110.5zM979 1604l-241 -321h-218l-241 321h148l202 -202
l202 202h148z" />
    <glyph glyph-name="Ucaron" unicode="&#x1d3;" horiz-adv-x="1419" 
d="M179 1480h210v-934q0 -223 82.5 -324.5t262.5 -101.5q176 0 249.5 95.5t73.5 323.5v941h184v-938q0 -194 -38 -298t-137 -183q-124 -98 -346 -98q-277 0 -409 143t-132 442v932zM1073 1925l-241 -321h-218l-241 321h148l202 -202l202 202h148z" />
    <glyph glyph-name="ucaron" unicode="&#x1d4;" horiz-adv-x="1271" 
d="M876 0v204q-157 -229 -381 -229q-142 0 -226 89.5t-84 241.5v780h197v-716q0 -122 35.5 -173.5t118.5 -51.5q180 0 340 237v704h197v-1086h-197zM979 1604l-241 -321h-218l-241 321h148l202 -202l202 202h148z" />
    <glyph glyph-name="Udieresismacron" unicode="&#x1d5;" horiz-adv-x="1419" 
d="M179 1480h210v-934q0 -223 82.5 -324.5t262.5 -101.5q176 0 249.5 95.5t73.5 323.5v941h184v-938q0 -194 -38 -298t-137 -183q-124 -98 -346 -98q-277 0 -409 143t-132 442v932zM439 1604v173h173v-173h-173zM834 1604v173h173v-173h-173zM402 1925v148h642v-148h-642z
" />
    <glyph glyph-name="udieresismacron" unicode="&#x1d6;" horiz-adv-x="1271" 
d="M876 0v204q-157 -229 -381 -229q-142 0 -226 89.5t-84 241.5v780h197v-716q0 -122 35.5 -173.5t118.5 -51.5q180 0 340 237v704h197v-1086h-197zM345 1283v173h173v-173h-173zM740 1283v173h173v-173h-173zM308 1604v148h642v-148h-642z" />
    <glyph glyph-name="Udieresisacute" unicode="&#x1d7;" horiz-adv-x="1419" 
d="M179 1480h210v-934q0 -223 82.5 -324.5t262.5 -101.5q176 0 249.5 95.5t73.5 323.5v941h184v-938q0 -194 -38 -298t-137 -183q-124 -98 -346 -98q-277 0 -409 143t-132 442v932zM439 1604v173h173v-173h-173zM834 1604v173h173v-173h-173zM575 1925l240 321h229
l-321 -321h-148z" />
    <glyph glyph-name="udieresisacute" unicode="&#x1d8;" horiz-adv-x="1271" 
d="M876 0v204q-157 -229 -381 -229q-142 0 -226 89.5t-84 241.5v780h197v-716q0 -122 35.5 -173.5t118.5 -51.5q180 0 340 237v704h197v-1086h-197zM345 1283v173h173v-173h-173zM740 1283v173h173v-173h-173zM481 1604l241 321h228l-321 -321h-148z" />
    <glyph glyph-name="Udieresiscaron" unicode="&#x1d9;" horiz-adv-x="1419" 
d="M179 1480h210v-934q0 -223 82.5 -324.5t262.5 -101.5q176 0 249.5 95.5t73.5 323.5v941h184v-938q0 -194 -38 -298t-137 -183q-124 -98 -346 -98q-277 0 -409 143t-132 442v932zM439 1604v173h173v-173h-173zM834 1604v173h173v-173h-173zM1073 2246l-241 -321h-218
l-241 321h148l201 -202h2l201 202h148z" />
    <glyph glyph-name="udieresiscaron" unicode="&#x1da;" horiz-adv-x="1271" 
d="M876 0v204q-157 -229 -381 -229q-142 0 -226 89.5t-84 241.5v780h197v-716q0 -122 35.5 -173.5t118.5 -51.5q180 0 340 237v704h197v-1086h-197zM345 1283v173h173v-173h-173zM740 1283v173h173v-173h-173zM979 1925l-241 -321h-218l-241 321h148l201 -202h2l201 202h148
z" />
    <glyph glyph-name="Udieresisgrave" unicode="&#x1db;" horiz-adv-x="1419" 
d="M179 1480h210v-934q0 -223 82.5 -324.5t262.5 -101.5q176 0 249.5 95.5t73.5 323.5v941h184v-938q0 -194 -38 -298t-137 -183q-124 -98 -346 -98q-277 0 -409 143t-132 442v932zM439 1604v173h173v-173h-173zM834 1604v173h173v-173h-173zM871 1925h-148l-321 321h229z
" />
    <glyph glyph-name="udieresisgrave" unicode="&#x1dc;" horiz-adv-x="1271" 
d="M876 0v204q-157 -229 -381 -229q-142 0 -226 89.5t-84 241.5v780h197v-716q0 -122 35.5 -173.5t118.5 -51.5q180 0 340 237v704h197v-1086h-197zM345 1283v173h173v-173h-173zM740 1283v173h173v-173h-173zM777 1604h-148l-321 321h229z" />
    <glyph glyph-name="eturned" unicode="&#x1dd;" horiz-adv-x="1141" 
d="M150 1050q197 60 338 60q241 0 392 -159t151 -413q0 -247 -133 -405t-342 -158q-197 0 -304 140t-107 398v61h685q-42 387 -379 387q-123 0 -301 -66v155zM821 426h-479q0 -303 227 -303q226 0 252 303z" />
    <glyph glyph-name="Adieresismacron" unicode="&#x1de;" horiz-adv-x="1413" 
d="M17 0l587 1480h208l578 -1480h-227l-161 410h-627l-163 -410h-195zM436 566h505l-252 638zM420 1604v173h172v-173h-172zM814 1604v173h173v-173h-173zM382 1925v148h642v-148h-642z" />
    <glyph glyph-name="adieresismacron" unicode="&#x1df;" horiz-adv-x="1131" 
d="M757 138q-177 -163 -341 -163q-135 0 -224 84.5t-89 213.5q0 178 149.5 273.5t428.5 95.5h47v131q0 189 -194 189q-156 0 -337 -96v163q199 81 373 81q182 0 268.5 -82t86.5 -255v-492q0 -169 104 -169q13 0 38 4l14 -109q-67 -32 -148 -32q-138 0 -176 163zM728 245v281
l-66 2q-162 0 -262 -61.5t-100 -161.5q0 -71 50 -120t122 -49q123 0 256 109zM284 1283v173h172v-173h-172zM678 1283v173h173v-173h-173zM247 1604v148h641v-148h-641z" />
    <glyph glyph-name="Adotmacron" unicode="&#x1e0;" horiz-adv-x="1413" 
d="M17 0l587 1480h208l578 -1480h-227l-161 410h-627l-163 -410h-195zM436 566h505l-252 638zM382 1949v148h642v-148h-642zM605 1604v197h197v-197h-197z" />
    <glyph glyph-name="adotmacron" unicode="&#x1e1;" horiz-adv-x="1131" 
d="M757 138q-177 -163 -341 -163q-135 0 -224 84.5t-89 213.5q0 178 149.5 273.5t428.5 95.5h47v131q0 189 -194 189q-156 0 -337 -96v163q199 81 373 81q182 0 268.5 -82t86.5 -255v-492q0 -169 104 -169q13 0 38 4l14 -109q-67 -32 -148 -32q-138 0 -176 163zM728 245v281
l-66 2q-162 0 -262 -61.5t-100 -161.5q0 -71 50 -120t122 -49q123 0 256 109zM247 1604v148h641v-148h-641zM469 1258v198h197v-198h-197z" />
    <glyph glyph-name="AEmacron" unicode="&#x1e2;" horiz-adv-x="1857" 
d="M18 0l861 1480h883v-157h-618v-475h518v-155h-518v-536h664v-157h-874v414h-483l-241 -414h-192zM540 569h394v671zM934 1628v149h642v-149h-642z" />
    <glyph glyph-name="aemacron" unicode="&#x1e3;" horiz-adv-x="1743" 
d="M809 193q-190 -218 -393 -218q-135 0 -224 84.5t-89 213.5q0 178 149.5 273.5t428.5 95.5h47v131q0 189 -194 189q-156 0 -337 -96v163q199 81 373 81q195 0 307 -121q123 121 303 121q418 0 418 -598h-672q28 -389 365 -389q140 0 307 71v-157q-193 -62 -359 -62
q-285 0 -430 218zM728 245v281l-66 2q-162 0 -262 -61.5t-100 -161.5q0 -71 50 -120t122 -49q123 0 256 109zM932 648h456q0 315 -214 315q-217 0 -242 -315zM542 1308v148h642v-148h-642z" />
    <glyph glyph-name="Gcaron" unicode="&#x1e6;" horiz-adv-x="1480" 
d="M1303 40q-269 -77 -469 -77q-353 0 -541.5 201t-188.5 576q0 368 191 572.5t536 204.5q226 0 470 -67v-194q-306 104 -469 104q-240 0 -372.5 -163t-132.5 -459q0 -293 142 -455.5t398 -162.5q105 0 227 37v482h209v-599zM1179 1925l-241 -321h-219l-240 321h148
l201 -202l202 202h149z" />
    <glyph glyph-name="gcaron" unicode="&#x1e7;" horiz-adv-x="1277" 
d="M201 -361l23 171q171 -81 337 -81q333 0 333 353v171q-109 -228 -358 -228q-195 0 -310 142t-115 383q0 248 131 404t339 156q182 0 313 -148v124h198v-790q0 -255 -26.5 -377.5t-99.5 -200.5q-129 -137 -401 -137q-190 0 -364 58zM894 376v451q-130 135 -283 135
q-136 0 -213 -109t-77 -299q0 -357 251 -357q171 0 322 179zM952 1604l-240 -321h-219l-240 321h148l201 -202l202 202h148z" />
    <glyph glyph-name="Kcaron" unicode="&#x1e8;" horiz-adv-x="1337" 
d="M191 0v1480h197v-728l599 728h211l-580 -706l683 -774h-266l-647 750v-750h-197zM997 1925l-241 -321h-219l-240 321h148l201 -202l202 202h149z" />
    <glyph glyph-name="kcaron" unicode="&#x1e9;" horiz-adv-x="1197" 
d="M197 0v1579h197v-1020l460 527h212l-439 -507l530 -579h-252l-511 557v-557h-197zM1054 1925l-241 -321h-219l-240 321h148l201 -202l202 202h149z" />
    <glyph glyph-name="Oogonek" unicode="&#x1ea;" horiz-adv-x="1591" 
d="M790 120q227 0 351 163.5t124 461.5q0 289 -124.5 452t-344.5 163q-221 0 -345 -163.5t-124 -454.5q0 -290 123 -456t340 -166zM787 -37q-308 0 -495.5 213.5t-187.5 564.5q0 353 188.5 564.5t503.5 211.5q314 0 503 -211t189 -563q0 -359 -189 -570q-148 -164 -378 -200
q-88 -67 -88 -153q0 -95 114 -95q57 0 92 15v-81q-60 -29 -138 -29q-204 0 -204 159q0 99 99 174h-9z" />
    <glyph glyph-name="oogonek" unicode="&#x1eb;" horiz-adv-x="1258" 
d="M625 123q313 0 313 422q0 417 -309 417q-308 0 -308 -419q0 -199 80 -309.5t224 -110.5zM622 -25q-233 0 -372 154.5t-139 413.5q0 262 139.5 414.5t378.5 152.5t378.5 -152.5t139.5 -412.5q0 -266 -140 -418q-98 -107 -248 -138q-109 -73 -109 -169q0 -95 114 -95
q56 0 91 15v-81q-60 -29 -138 -29q-204 0 -204 159q0 108 116 186h-7z" />
    <glyph glyph-name="Oogonekmacron" unicode="&#x1ec;" horiz-adv-x="1591" 
d="M790 120q227 0 351 163.5t124 461.5q0 289 -124.5 452t-344.5 163q-221 0 -345 -163.5t-124 -454.5q0 -290 123 -456t340 -166zM475 1628v149h642v-149h-642zM787 -37q-308 0 -495.5 213.5t-187.5 564.5q0 353 188.5 564.5t503.5 211.5q314 0 503 -211t189 -563
q0 -359 -189 -570q-148 -164 -378 -200q-88 -67 -88 -153q0 -95 114 -95q57 0 92 15v-81q-60 -29 -138 -29q-204 0 -204 159q0 99 99 174h-9z" />
    <glyph glyph-name="oogonekmacron" unicode="&#x1ed;" horiz-adv-x="1258" 
d="M625 123q313 0 313 422q0 417 -309 417q-308 0 -308 -419q0 -199 80 -309.5t224 -110.5zM308 1308v148h642v-148h-642zM622 -25q-233 0 -372 154.5t-139 413.5q0 262 139.5 414.5t378.5 152.5t378.5 -152.5t139.5 -412.5q0 -266 -140 -418q-98 -107 -248 -138
q-109 -73 -109 -169q0 -95 114 -95q56 0 91 15v-81q-60 -29 -138 -29q-204 0 -204 159q0 108 116 186h-7z" />
    <glyph glyph-name="jcaron" unicode="&#x1f0;" horiz-adv-x="623" 
d="M-154 -369v156q138 -58 210 -58q104 0 138 54t34 217v1086h198v-1086q0 -419 -354 -419q-105 0 -226 50zM677 1604l-241 -321h-218l-241 321h148l202 -202l202 202h148z" />
    <glyph glyph-name="DZ" unicode="&#x1f1;" horiz-adv-x="2672" 
d="M191 0v1480h492q220 0 355.5 -49t234.5 -166q157 -186 157 -490q0 -369 -195 -572t-549 -203h-495zM401 157h269q288 0 408 155q129 165 129 443q0 261 -127 410q-77 91 -184 124.5t-322 33.5h-173v-1166zM1528 0v168l795 1155h-746v157h998v-157l-794 -1155h794v-168
h-1047z" />
    <glyph glyph-name="Dz" unicode="&#x1f2;" horiz-adv-x="2633" 
d="M191 0v1480h492q220 0 355.5 -49t234.5 -166q157 -186 157 -490q0 -369 -195 -572t-549 -203h-495zM401 157h269q288 0 408 155q129 165 129 443q0 261 -127 410q-77 91 -184 124.5t-322 33.5h-173v-1166zM1582 0v148l673 790h-642v148h885v-148l-673 -790h685v-148h-928
z" />
    <glyph glyph-name="dz" unicode="&#x1f3;" horiz-adv-x="2365" 
d="M894 0v204q-120 -229 -362 -229q-196 0 -308.5 143t-112.5 391q0 271 127.5 436t335.5 165q193 0 320 -148v617h198v-1579h-198zM894 827q-153 135 -290 135q-135 0 -209 -113t-74 -320q0 -381 252 -381q164 0 321 179v500zM1314 0v148l672 790h-641v148h884v-148
l-672 -790h685v-148h-928z" />
    <glyph glyph-name="Gacute" unicode="&#x1f4;" horiz-adv-x="1480" 
d="M1303 40q-269 -77 -469 -77q-353 0 -541.5 201t-188.5 576q0 368 191 572.5t536 204.5q226 0 470 -67v-194q-306 104 -469 104q-240 0 -372.5 -163t-132.5 -459q0 -293 142 -455.5t398 -162.5q105 0 227 37v482h209v-599zM654 1604l241 321h228l-320 -321h-149z" />
    <glyph glyph-name="uni01F8" unicode="&#x1f8;" horiz-adv-x="1513" 
d="M191 0v1480h206l745 -1143v1143h180v-1480h-205l-746 1143v-1143h-180zM905 1604h-148l-321 321h228z" />
    <glyph glyph-name="uni01F9" unicode="&#x1f9;" horiz-adv-x="1271" 
d="M197 0v1086h197v-204q156 228 382 228q141 0 225 -89.5t84 -240.5v-780h-197v716q0 121 -35.5 172.5t-117.5 51.5q-181 0 -341 -237v-703h-197zM842 1283h-148l-321 321h229z" />
    <glyph glyph-name="Aringacute" unicode="&#x1fa;" horiz-adv-x="1413" 
d="M17 0l587 1480h208l578 -1480h-227l-161 410h-627l-163 -410h-195zM436 566h505l-252 638zM705 1481q-92 0 -158 66.5t-66 160.5t66.5 160.5t160.5 66.5t160.5 -66.5t66.5 -160.5q0 -96 -66.5 -161.5t-163.5 -65.5zM706 1567q60 0 101.5 41t41.5 100t-41 99.5t-100 40.5
q-58 0 -99 -41t-41 -99t40.5 -99.5t97.5 -41.5zM563 1996l241 321h228l-324 -321h-145z" />
    <glyph glyph-name="aringacute" unicode="&#x1fb;" horiz-adv-x="1131" 
d="M757 138q-177 -163 -341 -163q-135 0 -224 84.5t-89 213.5q0 178 149.5 273.5t428.5 95.5h47v131q0 189 -194 189q-156 0 -337 -96v163q199 81 373 81q182 0 268.5 -82t86.5 -255v-492q0 -169 104 -169q13 0 38 4l14 -109q-67 -32 -148 -32q-138 0 -176 163zM728 245v281
l-66 2q-162 0 -262 -61.5t-100 -161.5q0 -71 50 -120t122 -49q123 0 256 109zM565 1209q-93 0 -158.5 66.5t-65.5 160.5t66 160.5t161 66.5q94 0 160.5 -66t66.5 -161q0 -96 -66.5 -161.5t-163.5 -65.5zM566 1295q60 0 101 41t41 101q0 58 -41 99t-99 41q-59 0 -100 -41
t-41 -100q0 -58 41 -99.5t98 -41.5zM417 1762l241 321h228l-321 -321h-148z" />
    <glyph glyph-name="Ostrokeacute" horiz-adv-x="1591" 
d="M1097 1247q-119 113 -302 113q-220 0 -344 -163.5t-124 -454.5q0 -233 83 -393zM495 234q119 -114 303 -114q219 0 343 164.5t124 454.5q0 235 -83 393zM115 -37l169 221q-180 217 -180 557q0 353 188.5 564.5t502.5 211.5q237 0 413 -126l97 126h172l-169 -220
q180 -216 180 -559q0 -351 -188.5 -563t-500.5 -212q-245 0 -415 126l-96 -126h-173zM648 1604l240 321h229l-321 -321h-148z" />
    <glyph glyph-name="ostrokeacute" horiz-adv-x="1258" 
d="M111 -25l130 166l-3 3q-127 146 -127 396q0 264 139 417t379 153q178 0 304 -85l68 85h146l-129 -165l2 -4q127 -159 127 -397q0 -262 -139 -415.5t-378 -153.5q-174 0 -304 85l-67 -85h-148zM895 787l-463 -591q77 -73 195 -73q147 0 229 109.5t82 305.5q0 136 -43 249z
M364 298l463 590q-81 74 -196 74q-147 0 -228.5 -109.5t-81.5 -305.5q0 -145 43 -249zM481 1283l241 321h228l-321 -321h-148z" />
    <glyph glyph-name="Adblgrave" unicode="&#x200;" horiz-adv-x="1413" 
d="M17 0l587 1480h208l578 -1480h-227l-161 410h-627l-163 -410h-195zM436 566h505l-252 638zM943 1604h-111l-321 321h191zM591 1604h-111l-320 321h191z" />
    <glyph glyph-name="adblgrave" unicode="&#x201;" horiz-adv-x="1131" 
d="M757 138q-177 -163 -341 -163q-135 0 -224 84.5t-89 213.5q0 178 149.5 273.5t428.5 95.5h47v131q0 189 -194 189q-156 0 -337 -96v163q199 81 373 81q182 0 268.5 -82t86.5 -255v-492q0 -169 104 -169q13 0 38 4l14 -109q-67 -32 -148 -32q-138 0 -176 163zM728 245v281
l-66 2q-162 0 -262 -61.5t-100 -161.5q0 -71 50 -120t122 -49q123 0 256 109zM852 1283h-111l-321 321h191zM500 1283h-111l-320 321h191z" />
    <glyph glyph-name="Ainvertedbreve" unicode="&#x202;" horiz-adv-x="1413" 
d="M17 0l587 1480h208l578 -1480h-227l-161 410h-627l-163 -410h-195zM436 566h505l-252 638zM1041 1604h-123q-32 173 -210 173t-210 -173h-123q15 146 106 233.5t227 87.5t226.5 -87.5t106.5 -233.5z" />
    <glyph glyph-name="ainvertedbreve" unicode="&#x203;" horiz-adv-x="1131" 
d="M757 138q-177 -163 -341 -163q-135 0 -224 84.5t-89 213.5q0 178 149.5 273.5t428.5 95.5h47v131q0 189 -194 189q-156 0 -337 -96v163q199 81 373 81q182 0 268.5 -82t86.5 -255v-492q0 -169 104 -169q13 0 38 4l14 -109q-67 -32 -148 -32q-138 0 -176 163zM728 245v281
l-66 2q-162 0 -262 -61.5t-100 -161.5q0 -71 50 -120t122 -49q123 0 256 109zM883 1283h-124q-32 173 -209 173q-178 0 -210 -173h-123q15 146 106 233.5t227 87.5t226.5 -87.5t106.5 -233.5z" />
    <glyph glyph-name="Edblgrave" unicode="&#x204;" horiz-adv-x="1110" 
d="M191 0v1480h827v-157h-617v-475h517v-155h-517v-536h660v-157h-870zM913 1604h-111l-321 321h191zM561 1604h-111l-321 321h192z" />
    <glyph glyph-name="edblgrave" unicode="&#x205;" horiz-adv-x="1141" 
d="M993 35q-198 -60 -339 -60q-240 0 -391.5 159.5t-151.5 413.5q0 247 133.5 405t341.5 158q197 0 304.5 -140t107.5 -398l-1 -61h-685q43 -387 379 -387q123 0 302 66v-156zM321 660h479q0 303 -226 303q-227 0 -253 -303zM895 1283h-111l-320 321h191zM544 1283h-111
l-321 321h191z" />
    <glyph glyph-name="Einvertedbreve" unicode="&#x206;" horiz-adv-x="1110" 
d="M191 0v1480h827v-157h-617v-475h517v-155h-517v-536h660v-157h-870zM944 1604h-124q-32 173 -210 173q-177 0 -209 -173h-124q16 146 106.5 233.5t226.5 87.5q137 0 227.5 -87.5t106.5 -233.5z" />
    <glyph glyph-name="einvertedbreve" unicode="&#x207;" horiz-adv-x="1141" 
d="M993 35q-198 -60 -339 -60q-240 0 -391.5 159.5t-151.5 413.5q0 247 133.5 405t341.5 158q197 0 304.5 -140t107.5 -398l-1 -61h-685q43 -387 379 -387q123 0 302 66v-156zM321 660h479q0 303 -226 303q-227 0 -253 -303zM902 1283h-123q-32 173 -210 173t-209 -173h-124
q15 146 106 233.5t227 87.5t227 -87.5t106 -233.5z" />
    <glyph glyph-name="Idblgrave" unicode="&#x208;" horiz-adv-x="590" 
d="M190 0v1480h210v-1480h-210zM628 1604h-111l-321 321h191zM276 1604h-111l-321 321h192z" />
    <glyph glyph-name="idblgrave" unicode="&#x209;" horiz-adv-x="592" 
d="M198 0v1086h197v-1086h-197zM636 1283h-111l-321 321h191zM284 1283h-111l-321 321h192z" />
    </font>
</defs>
</svg>
